<svg xmlns="http://www.w3.org/2000/svg" xmlns:xlink="http://www.w3.org/1999/xlink" width="531.294" height="378.106" viewBox="0 0 531.294 378.106"><defs><clipPath id="clip-path"><rect id="Rectangle_826" data-name="Rectangle 826" width="531.294" height="378.106" fill="none"></rect></clipPath><linearGradient id="linear-gradient" x1="0.5" x2="0.5" y2="1" gradientUnits="objectBoundingBox"><stop offset="0" stop-color="#9bc63c"></stop><stop offset="1" stop-color="#349044"></stop></linearGradient></defs><g id="compare-and-save" clip-path="url(#clip-path)"><path id="Path_300" data-name="Path 300" d="M531.294,167.247c0,7.29-118.934,13.2-265.647,13.2S0,174.537,0,167.247s118.934-13.2,265.647-13.2,265.647,5.911,265.647,13.2" transform="translate(0 197.658)" fill="#eceff8" opacity="0.22"></path><path id="Path_303" data-name="Path 303" d="M80.949,46.636,79.725,46.6c.016-.623.046-1.242.089-1.861l1.221.084c-.041.6-.071,1.205-.087,1.811" transform="translate(102.296 57.408)" fill="#3f5a9f"></path><path id="Path_304" data-name="Path 304" d="M164.184,59.25c-.331-1.192-.719-2.381-1.153-3.537l1.148-.432c.445,1.189.845,2.413,1.185,3.639ZM81.165,63.992l-1.21-.192c.2-1.256.457-2.516.767-3.751l1.189.3c-.3,1.2-.553,2.425-.747,3.644m80.407-11.7c-.534-1.112-1.123-2.217-1.753-3.279l1.053-.626c.648,1.094,1.256,2.228,1.806,3.374Zm-78.6,4.491-1.158-.4c.416-1.2.893-2.4,1.413-3.557l1.116.5c-.5,1.13-.968,2.292-1.372,3.459M157.782,45.9c-.719-1-1.493-1.986-2.3-2.925l.927-.8c.831.966,1.628,1.977,2.368,3.009ZM86.019,50l-1.071-.6c.621-1.11,1.3-2.205,2.009-3.258l1.014.687c-.694,1.023-1.349,2.089-1.952,3.169m66.916-9.733c-.886-.865-1.82-1.7-2.774-2.482l.776-.947c.982.8,1.943,1.662,2.852,2.55ZM90.192,43.843l-.952-.772c.8-.986,1.658-1.95,2.543-2.861l.879.852c-.861.888-1.692,1.824-2.47,2.781m56.989-8.288c-1.021-.7-2.084-1.358-3.162-1.963l.6-1.066c1.107.621,2.2,1.3,3.253,2.018ZM95.366,38.508l-.8-.927c.963-.833,1.973-1.632,3-2.377l.717.993c-1,.724-1.979,1.5-2.916,2.311m45.333-6.6c-1.126-.509-2.288-.975-3.454-1.384l.406-1.155c1.2.42,2.4.9,3.553,1.425Zm-39.311,2.24-.63-1.053c1.094-.651,2.226-1.26,3.37-1.815l.532,1.105c-1.11.537-2.212,1.13-3.272,1.763m32.295-4.7c-1.2-.306-2.422-.559-3.642-.758l.2-1.21c1.253.205,2.516.468,3.749.781Zm-25.605,1.466-.434-1.146c1.189-.45,2.411-.854,3.635-1.2l.333,1.18c-1.189.333-2.379.726-3.534,1.164m18.269-2.66c-1.233-.089-2.484-.126-3.719-.107l-.016-1.226c1.269-.018,2.557.021,3.824.112Zm-11.114.644-.228-1.2c1.249-.237,2.527-.422,3.785-.55l.126,1.217c-1.224.126-2.468.306-3.683.537" transform="translate(102.591 34.543)" fill="#3f5a9f"></path><path id="Path_305" data-name="Path 305" d="M118.726,44.431l-1.212.174c-.087-.6-.183-1.2-.294-1.79l1.205-.224c.112.61.215,1.221.3,1.84" transform="translate(150.405 54.649)" fill="#3f5a9f"></path><path id="Path_306" data-name="Path 306" d="M87,45.743l-4.448,2.123-4.616-1.728,5,10.548Z" transform="translate(99.996 58.693)" fill="#3f5a9f"></path><path id="Path_307" data-name="Path 307" d="M63.62,75.533c-.185-2.79.957-6.068,1.7-5.744s.05,2.934.568,3.717a4.875,4.875,0,0,1,.765,4.429Z" transform="translate(81.606 89.518)" fill="#fcb47e"></path><path id="Path_308" data-name="Path 308" d="M53.847,167.676,51.621,149.7H64.8l.578,17.975Z" transform="translate(66.236 192.084)" fill="#fcb47e"></path><path id="Path_309" data-name="Path 309" d="M64.785,157.169c-4.979,1.3-12.374-1.066-12.374-1.066l-.523-4.267,12.76,1.073Z" transform="translate(66.578 194.823)" fill="#fca377"></path><path id="Path_310" data-name="Path 310" d="M25.068,167.676,26.285,149.7H39.463L36.6,167.676Z" transform="translate(32.165 192.084)" fill="#fcb47e"></path><path id="Path_311" data-name="Path 311" d="M38.409,152.97l-.9,5.671a20.491,20.491,0,0,1-12.1-2.973l.37-5.521Z" transform="translate(32.603 192.657)" fill="#fca377"></path><path id="Path_312" data-name="Path 312" d="M95.594,244.955s-8.8-110.528-32.566-164.263L40.934,81.8S42.82,159.621,59.4,244.955c0,0,20.735,4.92,36.2,0" transform="translate(52.523 103.537)" fill="#1240b2"></path><path id="Path_313" data-name="Path 313" d="M56.643,244.84S34.9,248.353,22.5,239.92c0,0,6.6-119.843,26.829-159.138H73.106s-.776,64.6-16.464,164.058" transform="translate(28.869 103.652)" fill="#1240b2"></path><path id="Path_314" data-name="Path 314" d="M35.742,75.129c.584-2.091,1.687-4.763,1.687-4.763a25.985,25.985,0,0,0-.352,5.416c5.162,2.368,15.945,5.452,32.692,1.356-.215-1.719-.31-3.352-.31-3.352a23.891,23.891,0,0,0,1.135,3.146c.6-.153,1.2-.311,1.811-.482a44.276,44.276,0,0,1-.715-5.822,26.631,26.631,0,0,0,2.228,5.388c1.021-.311,2.059-.639,3.119-1,0,0-3.338-5.094-5.527-18.349-1.8-10.9-7.39-16.043-15.884-15.815C38.158,41.323,33.5,73.739,33.5,73.739a16.151,16.151,0,0,0,2.244,1.39" transform="translate(42.982 52.412)" fill="#374263"></path><path id="Path_315" data-name="Path 315" d="M111.982,91.417s-7-31.512-34.833-33.142c-42.84-2.507-56.007,25.359-56.007,25.359Z" transform="translate(27.128 74.57)" fill="#fff"></path><path id="Path_316" data-name="Path 316" d="M43.466,45.335c4.728-2.7,13.032-2.817,14.932,3.58,1.751,5.906,1.473,23.715-6.432,23.379C43.7,71.94,41.093,65.659,40.358,61.821c-.265-1.379-1.623-13.783,3.107-16.486" transform="translate(51.293 55.924)" fill="#fcb47e"></path><path id="Path_317" data-name="Path 317" d="M42.733,54.562s-3.692,1.137-4.381-2.183c-.621-3,2.934-4.162,4.078-2.849Z" transform="translate(49.117 62.867)" fill="#fcb47e"></path><path id="Path_318" data-name="Path 318" d="M69.43,115.27c5.3-10.37,9.434-34.591,9.434-34.591.614-.954,3.185-5.078,3.347-8.219.068-1.395-.637-2.224-1.582-1.767-.34-1.135-1.014-1.342-1.922-.678-.507-.991-1.128-.952-1.747-.468-1.354-2.267-4.05,4.916-4.037,5.815.009.6.192,2.813.283,3.463.121.861-15.881,28.133-15.881,28.133Z" transform="translate(73.554 88.671)" fill="#fcb47e"></path><path id="Path_319" data-name="Path 319" d="M24.79,240.708l-.71-.048c.078-1.2,8.128-120.286,28.573-158.982l.628.333c-20.372,38.562-28.411,157.5-28.491,158.7" transform="translate(30.897 104.802)" fill="#fff"></path><path id="Path_320" data-name="Path 320" d="M36.2,90.449l-7.5,42.877c19.564,5.877,41.642.6,59.7-11.384L80.923,79.656,67.007,58.467s-6.785,7.742-14.263-.176L33.267,66.46Z" transform="translate(36.827 74.794)" fill="#fff"></path><path id="Path_321" data-name="Path 321" d="M78.457,96.171l-3.95-9.8s-9.888-20.1-18.023-25.3L51.277,96.246Z" transform="translate(65.794 78.369)" fill="#fff"></path><path id="Path_322" data-name="Path 322" d="M43.334,130.1l-.694-.066c1.123-12.009,2.059-23.754,2.781-34.907l.7.046c-.721,11.16-1.658,22.911-2.783,34.927" transform="translate(54.712 122.054)" fill="#47393d"></path><path id="Path_323" data-name="Path 323" d="M62,212.657c-.148-.708-14.813-71.066-18.984-106.519l.708-.082c4.167,35.42,18.827,105.749,18.973,106.455Z" transform="translate(55.193 136.082)" fill="#fff"></path><path id="Path_324" data-name="Path 324" d="M58.9,110.027l.678-.119L52.1,67.623l-.676.119Z" transform="translate(65.985 86.768)" fill="#3f5a9f"></path><path id="Path_325" data-name="Path 325" d="M38.91,57.078a2.154,2.154,0,0,1,2.637.632,15.956,15.956,0,0,1,1.292-4.555l.594,3.116a53.828,53.828,0,0,0,7.342.717c.941.018,3.587,0,3.587,0l.605-5.21,1.128,5.107c.779-.062,1.384-.146,2-.228l.441-3.062.854,2.884c.833-.139,1.411-.269,1.694-.331.171-2.19.24-8.094-3.662-11.514-4.479-3.925-13.957-1.769-16.153,2.932a27.427,27.427,0,0,0-2.361,9.511" transform="translate(49.926 54.655)" fill="#374263"></path><path id="Path_326" data-name="Path 326" d="M47.418,71.778c3.925,0,6.256-3.427,6.256-3.427L52.69,57,41.9,50.588,39.174,68.175a12.415,12.415,0,0,0,8.244,3.6" transform="translate(50.265 64.91)" fill="#fcb47e"></path><path id="Path_327" data-name="Path 327" d="M50.909,60.8l.03-.687c-4.911-.21-8.057-3.966-9.829-7.08l-.6.342c1.858,3.263,5.171,7.2,10.4,7.425" transform="translate(51.981 68.05)" fill="#374263"></path><path id="Path_328" data-name="Path 328" d="M51.924,169.5l33.308.123a2,2,0,0,0,2.007-2.132l0-.041c-.023-.253-.053-.516-.091-.779a5.189,5.189,0,0,0-.76-2.329c-1.573-2.1-4.635-3.069-10.091-5.253a43.915,43.915,0,0,1-7.605-4.05,1.051,1.051,0,0,0-1.317.132c-6.612,6.418-10.651,5.032-11.852,2.368-.918-2.03-2.228-1.61-2.594-1.018-1.114,1.854-1.744,7.29-2,10.016-.032.295-.057.564-.073.779-.041.509-.064.817-.064.817a1.164,1.164,0,0,0,1.135,1.368" transform="translate(65.145 198.714)" fill="#374263"></path><path id="Path_329" data-name="Path 329" d="M61.261,160.273a3.554,3.554,0,0,0,2.023-3.607l-.571.084a2.931,2.931,0,0,1-1.7,3Z" transform="translate(78.283 201.02)" fill="#fff"></path><path id="Path_330" data-name="Path 330" d="M62.557,160.61a3.589,3.589,0,0,0,1.945-3.432l-.573.066a3.027,3.027,0,0,1-1.655,2.861Z" transform="translate(79.905 201.677)" fill="#fff"></path><path id="Path_331" data-name="Path 331" d="M56.488,159.267a10.636,10.636,0,0,0,4.283-1.018l-.263-.514c-.053.027-5.114,2.548-7.7-.7l-.452.358a5.064,5.064,0,0,0,4.132,1.87" transform="translate(67.179 201.499)" fill="#fff"></path><rect id="Rectangle_803" data-name="Rectangle 803" width="0.578" height="19.409" transform="translate(120.06 366.209) rotate(-89.791)" fill="#fff"></rect><rect id="Rectangle_804" data-name="Rectangle 804" width="0.578" height="4.589" transform="translate(141.961 366.289) rotate(-89.8)" fill="#fff"></rect><path id="Path_332" data-name="Path 332" d="M24.6,169.5l33.308.123a2,2,0,0,0,2.007-2.132l0-.041c-.021-.253-.05-.516-.089-.779a5.162,5.162,0,0,0-.763-2.329c-1.571-2.1-4.635-3.069-10.089-5.253a43.916,43.916,0,0,1-7.605-4.05,1.051,1.051,0,0,0-1.317.132c-6.612,6.418-10.651,5.032-11.852,2.368-.918-2.03-2.228-1.61-2.594-1.018-1.114,1.854-1.744,7.29-2,10.016-.032.295-.057.564-.073.779-.041.509-.064.817-.064.817A1.164,1.164,0,0,0,24.6,169.5" transform="translate(30.09 198.714)" fill="#374263"></path><path id="Path_333" data-name="Path 333" d="M33.94,160.273a3.554,3.554,0,0,0,2.023-3.607l-.571.084a2.931,2.931,0,0,1-1.7,3Z" transform="translate(43.227 201.02)" fill="#fff"></path><path id="Path_334" data-name="Path 334" d="M35.237,160.61a3.589,3.589,0,0,0,1.945-3.432l-.573.066a3.027,3.027,0,0,1-1.655,2.861Z" transform="translate(44.85 201.677)" fill="#fff"></path><path id="Path_335" data-name="Path 335" d="M29.168,159.267a10.636,10.636,0,0,0,4.283-1.018l-.263-.514c-.053.027-5.114,2.548-7.7-.7l-.452.358a5.064,5.064,0,0,0,4.132,1.87" transform="translate(32.124 201.499)" fill="#fff"></path><rect id="Rectangle_805" data-name="Rectangle 805" width="0.578" height="19.409" transform="translate(57.684 366.209) rotate(-89.791)" fill="#fff"></rect><rect id="Rectangle_806" data-name="Rectangle 806" width="0.578" height="4.59" transform="translate(79.586 366.289) rotate(-89.801)" fill="#fff"></rect><path id="Path_336" data-name="Path 336" d="M41.717,167.055l111.256-17.566a4.23,4.23,0,0,0,3.507-4.822l-11.306-71.6a4.229,4.229,0,0,0-4.822-3.507L29.1,87.123a4.23,4.23,0,0,0-3.507,4.822l11.306,71.6a4.23,4.23,0,0,0,4.822,3.507" transform="translate(32.767 89.183)" fill="#5e86e9"></path><path id="Path_337" data-name="Path 337" d="M54.595,102.941,34.565,106.1a1.142,1.142,0,0,1-1.3-.95l-.61-3.849A1.147,1.147,0,0,1,33.6,100l20.03-3.162a1.144,1.144,0,0,1,1.306.95l.607,3.849a1.144,1.144,0,0,1-.95,1.306" transform="translate(41.878 124.233)" fill="#fff"></path><path id="Path_338" data-name="Path 338" d="M66.191,101.11l-20.027,3.162a1.143,1.143,0,0,1-1.306-.95l-.61-3.849a1.146,1.146,0,0,1,.95-1.306L65.227,95a1.144,1.144,0,0,1,1.306.95l.607,3.849a1.144,1.144,0,0,1-.95,1.306" transform="translate(56.757 121.884)" fill="#fff"></path><path id="Path_339" data-name="Path 339" d="M77.786,99.279l-20.027,3.162a1.143,1.143,0,0,1-1.306-.95l-.61-3.849a1.147,1.147,0,0,1,.95-1.306l20.03-3.162a1.144,1.144,0,0,1,1.306.95l.607,3.849a1.144,1.144,0,0,1-.95,1.306" transform="translate(71.635 119.535)" fill="#fff"></path><path id="Path_340" data-name="Path 340" d="M89.382,97.448,69.354,100.61a1.143,1.143,0,0,1-1.306-.95l-.61-3.849a1.147,1.147,0,0,1,.95-1.306l20.03-3.162a1.144,1.144,0,0,1,1.306.95l.607,3.849a1.144,1.144,0,0,1-.95,1.306" transform="translate(86.514 117.185)" fill="#fff"></path><path id="Path_341" data-name="Path 341" d="M93.769,102.7l-26.349,4.16a1.392,1.392,0,0,1-1.589-1.155l-.53-3.361a1.393,1.393,0,0,1,1.155-1.589l26.349-4.16a1.4,1.4,0,0,1,1.589,1.155l.53,3.361a1.392,1.392,0,0,1-1.155,1.589" transform="translate(83.766 123.917)" fill="#fff"></path><path id="Path_342" data-name="Path 342" d="M33.779,94.851l-1.265-8.018a3.222,3.222,0,0,1,2.676-3.68l15.575-2.459a3.222,3.222,0,0,1,3.68,2.676l1.265,8.018a3.218,3.218,0,0,1-2.676,3.68L37.459,97.527a3.224,3.224,0,0,1-3.68-2.676m1.546-10.845A2.36,2.36,0,0,0,33.366,86.7l1.267,8.018a2.355,2.355,0,0,0,2.692,1.957L52.9,94.214a2.356,2.356,0,0,0,1.959-2.692L53.592,83.5A2.354,2.354,0,0,0,50.9,81.547Z" transform="translate(41.669 103.488)" fill="#fff"></path><rect id="Rectangle_807" data-name="Rectangle 807" width="0.786" height="17.365" transform="translate(178.386 167.578) rotate(-8.971)" fill="#2e4882"></rect><path id="Path_343" data-name="Path 343" d="M53.822,137.141l-.123-.776,63.078-9.959a3.836,3.836,0,0,0,3.18-4.372l-5.482-34.717.776-.123,5.479,34.717a4.621,4.621,0,0,1-3.831,5.272Z" transform="translate(68.902 111.878)" fill="#2e4882"></path><rect id="Rectangle_808" data-name="Rectangle 808" width="23.655" height="0.786" transform="translate(88.391 253.656) rotate(-9.025)" fill="#2e4882"></rect><path id="Path_344" data-name="Path 344" d="M68.649,69.792a.839.839,0,0,1,.518,1.158c-.39.829-1.032,1.7-1.482,1.728-.795.05-.393-1.311-.087-2.324a.842.842,0,0,1,1.05-.562" transform="translate(86.253 89.505)" fill="#fcb47e"></path><path id="Path_345" data-name="Path 345" d="M68.252,69.852a.854.854,0,0,1,.322,1.009c-.349.925-1.1,2.256-1.858,2.137-.479-.075-.162-1.521.155-2.694a.913.913,0,0,1,1.381-.452" transform="translate(85.289 89.427)" fill="#fcb47e"></path><path id="Path_346" data-name="Path 346" d="M67.246,69.573a.848.848,0,0,1,.66.991c-.2.979-.694,2.267-1.708,2.63-.87.311-.374-1.751-.064-3.018a.845.845,0,0,1,1-.628Z" transform="translate(84.313 89.215)" fill="#fcb47e"></path><path id="Path_347" data-name="Path 347" d="M66.431,69.079a1.053,1.053,0,0,1,.728,1.511c-.39.993-1.068,2.119-1.694,2.274-.669.164-.3-1.5-.08-2.769.1-.573.539-1.105,1.046-1.016" transform="translate(83.51 88.623)" fill="#fcb47e"></path><path id="Path_348" data-name="Path 348" d="M42.989,125.448s-13.018-19.066,7.132-32.655L61.663,60.333v-.217c-13.516-.068-28.043,8.2-35.909,19.79-13.153,19.381-11.831,42.555,10.192,54.5Z" transform="translate(22.201 77.135)" fill="#fff"></path><rect id="Rectangle_809" data-name="Rectangle 809" width="10.178" height="0.712" transform="translate(71.098 173.857) rotate(-78.907)" fill="#3f5a9f"></rect><path id="Path_349" data-name="Path 349" d="M38.164,123.713c-9.491-5.148-15.683-12.706-17.909-21.852-2.539-10.432.158-22.21,7.591-33.165l.589.4c-7.32,10.785-9.979,22.363-7.489,32.6,2.176,8.943,8.247,16.343,17.557,21.393Z" transform="translate(24.795 88.146)" fill="#3f5a9f"></path><path id="Path_350" data-name="Path 350" d="M30.688,89.419c.66.53,2.721,2.3,3.555,2.443.772.132,5.041.311,4.922,1.21-.126.945-3.039.212-3.009.975.016.468,5.7,2,5.13,3-.377.653-3.692-.744-3.76-.333-.062.381,4.384,1.251,3.877,2.247-.532,1.043-4.811-1.587-5.027-1.091-.11.244,5.087,2.112,4.648,2.913-.582,1.073-4.571-1.568-4.879-1.1-.151.231,1.425.911,2.311,1.436.491.29.336.733-.05.717-4.014-.18-9.048-5.062-9.692-5.292q-1.435-.51-2.785-1.064Z" transform="translate(33.269 114.735)" fill="#fcb47e"></path><path id="Path_351" data-name="Path 351" d="M28.416,83.493l-.616-.358A27.694,27.694,0,0,1,36.451,74.3l.4.589a26.967,26.967,0,0,0-8.432,8.605" transform="translate(35.671 95.334)" fill="#3f5a9f"></path><path id="Path_352" data-name="Path 352" d="M255.51,60.906c.007.274.016.541.023.815.979,33.416-2.45,59.461-8.251,79.756l-17.219,10.708,14.162-2.192.4-.062c-7.683,22.306-18.3,36.717-28.34,45.984a73.444,73.444,0,0,1-17.2,12.016c-.326.164-.646.322-.966.473-.795.381-1.566.724-2.3,1.034l-9.47.5c-.13-.443-.253-.877-.37-1.317-.082-.279-.158-.555-.224-.831-.107-.363-.2-.733-.292-1.094-11.194-43.135,2.913-77.541,21.343-102.067a1.843,1.843,0,0,1,.18-.242,166.92,166.92,0,0,1,19.909-21.9l4.187,10.662.6-14.936a164.547,164.547,0,0,1,23.267-16.984c.363-.215.552-.317.552-.317" transform="translate(232.873 78.149)" fill="#9aade5"></path><path id="Path_353" data-name="Path 353" d="M254.512,61.154l-.313.658L234.747,102.54l-.349.719-5.3,11.105-.18.372-16.909,35.4-.025.048-27.553,57.694-.416.865-.658,1.37-.827.043.651-1.37.957-2,27.192-56.934.507-1.055,41.788-87.482.231-.479Z" transform="translate(234.206 78.057)" fill="#fff"></path><rect id="Rectangle_810" data-name="Rectangle 810" width="29.273" height="0.636" transform="matrix(0.824, -0.566, 0.566, 0.824, 463.003, 192.619)" fill="#fff"></rect><rect id="Rectangle_811" data-name="Rectangle 811" width="22.946" height="0.636" transform="matrix(0.824, -0.566, 0.566, 0.824, 468.373, 180.98)" fill="#fff"></rect><rect id="Rectangle_812" data-name="Rectangle 812" width="0.637" height="46.143" transform="translate(439.655 182.561) rotate(-7.388)" fill="#fff"></rect><path id="Path_354" data-name="Path 354" d="M181.954,167.318s22.45,10.607,54.391-8.436l-10.356-4.916,16.906.678c12.466-8.721,26.148-22.012,40.352-42.016l-3.952-1.872,5.126.2q3.593-5.13,7.224-10.852a124.011,124.011,0,0,0-22.788.719l-6.884,9.32,1.952-8.655c-27.418,4.16-67.334,18.527-81.971,65.827" transform="translate(233.467 128.164)" fill="#bac8f3"></path><rect id="Rectangle_813" data-name="Rectangle 813" width="129.028" height="0.719" transform="matrix(0.863, -0.505, 0.505, 0.863, 413.535, 293.073)" fill="#fff"></rect><rect id="Rectangle_814" data-name="Rectangle 814" width="0.668" height="16.032" transform="translate(496.078 245.824) rotate(-84.115)" fill="#fff"></rect><path id="Path_355" data-name="Path 355" d="M232.523,113.242l-18.6-3.315.116-.658,18.6,3.315Z" transform="translate(274.49 140.205)" fill="#fff"></path><path id="Path_356" data-name="Path 356" d="M193.763,122.665l-.559-.63a98.232,98.232,0,0,1,33.833-19.26l.272.8a97.406,97.406,0,0,0-33.546,19.094" transform="translate(247.902 131.872)" fill="#2e4882"></path><path id="Path_357" data-name="Path 357" d="M95.739,88.191c.039.272.075.537.114.806,4.614,33.11,12.347,58.219,21.457,77.261l18.767,7.678-14.331.205-.409.007c11.3,20.71,24.18,33.144,35.623,40.605a73.487,73.487,0,0,0,18.964,8.975c.347.107.69.208,1.03.3.847.244,1.664.452,2.438.637l9.422-1.094c.055-.457.1-.9.144-1.361q.051-.428.082-.856c.043-.374.073-.753.105-1.128,3.831-44.4-15.824-75.964-38.091-97.067a1.925,1.925,0,0,0-.219-.208,166.821,166.821,0,0,0-23.285-18.269L125.2,115.9l-3.087-14.626A164.27,164.27,0,0,0,96.335,88.41c-.393-.148-.6-.219-.6-.219" transform="translate(122.844 113.159)" fill="#9aade5"></path><path id="Path_358" data-name="Path 358" d="M95.605,88.522l.418.6L122,126.024l.466.653,7.08,10.064.242.333,22.585,32.08.032.043,36.8,52.281.552.783.877,1.242.822-.1-.87-1.242-1.279-1.815L153,168.759l-.676-.957L96.507,88.531,96.2,88.1Z" transform="translate(122.672 113.038)" fill="#fff"></path><path id="Path_359" data-name="Path 359" d="M125.418,116.977l.267-.578L99.138,104.069l-.267.578Z" transform="translate(126.862 133.532)" fill="#fff"></path><path id="Path_360" data-name="Path 360" d="M119.024,110.846l.267-.578L98.482,100.6l-.269.578Z" transform="translate(126.018 129.083)" fill="#fff"></path><rect id="Rectangle_815" data-name="Rectangle 815" width="0.635" height="46.145" transform="translate(273.256 236.13) rotate(-2.229)" fill="#fff"></rect><path id="Path_361" data-name="Path 361" d="M205.78,179.2s-20.363,14.208-55.037.767l9.39-6.575-16.555,3.493c-13.747-6.516-29.457-17.336-46.8-34.685l3.584-2.507-5.021,1.055q-4.4-4.455-8.934-9.491a123.944,123.944,0,0,1,22.587-3.1l8.345,8.041-3.37-8.208c27.726-.477,69.482,7.016,91.813,51.21" transform="translate(110.867 164.196)" fill="#bac8f3"></path><rect id="Rectangle_816" data-name="Rectangle 816" width="0.717" height="129.027" transform="matrix(0.353, -0.936, 0.936, 0.353, 197.145, 295.788)" fill="#fff"></rect><rect id="Rectangle_817" data-name="Rectangle 817" width="16.033" height="0.667" transform="translate(213.202 311.546) rotate(-15.503)" fill="#fff"></rect><path id="Path_362" data-name="Path 362" d="M96.189,142.889l17.783-6.374-.226-.628-17.783,6.374Z" transform="translate(123.131 174.358)" fill="#fff"></path><path id="Path_363" data-name="Path 363" d="M144.742,142.543l.447-.715a98.284,98.284,0,0,0-36.575-13.34l-.135.833a97.392,97.392,0,0,1,36.263,13.222" transform="translate(139.191 164.865)" fill="#2e4882"></path><path id="Path_364" data-name="Path 364" d="M168.374,300.356H145.655a13.708,13.708,0,0,1-13.779-13.043L119.059,63.75a13.69,13.69,0,0,1,13.783-14.164h26.2Z" transform="translate(152.75 63.624)" fill="#1240b2"></path><path id="Path_365" data-name="Path 365" d="M270.759,63.75l-6.71,223.562a13.71,13.71,0,0,1-13.781,13.043H149.823c-7.395,0-16.107-5.756-16.411-13.043l-6.7-223.562A13.688,13.688,0,0,1,140.49,49.586H256.979A13.688,13.688,0,0,1,270.759,63.75" transform="translate(162.566 63.624)" fill="#dce8ff"></path><path id="Path_366" data-name="Path 366" d="M143.382,56.355H138a2.639,2.639,0,0,0-1.895.79A2.688,2.688,0,0,0,138,61.736h98.608a2.7,2.7,0,0,0,2.685-2.687,2.694,2.694,0,0,0-2.685-2.694H143.382Z" transform="translate(173.626 72.31)" fill="#3f5a9f"></path><path id="Path_367" data-name="Path 367" d="M236.2,133.685H140.546a3.4,3.4,0,0,1-3.395-3.269L134.776,68.19a3.4,3.4,0,0,1,3.4-3.53h100.4a3.4,3.4,0,0,1,3.395,3.53l-2.374,62.226a3.4,3.4,0,0,1-3.395,3.269" transform="translate(172.93 82.966)" fill="#fff"></path><path id="Path_368" data-name="Path 368" d="M158.7,122.366H143.912a4.708,4.708,0,0,1-4.708-4.705v-6.724a4.707,4.707,0,0,1,4.708-4.705H158.7a4.7,4.7,0,0,1,4.7,4.705v6.724a4.7,4.7,0,0,1-4.7,4.705" transform="translate(178.614 136.306)" fill="#647ce2"></path><path id="Path_369" data-name="Path 369" d="M158.7,133.9H143.912a4.708,4.708,0,0,1-4.708-4.706v-6.724a4.707,4.707,0,0,1,4.708-4.705H158.7a4.7,4.7,0,0,1,4.7,4.705v6.724a4.7,4.7,0,0,1-4.7,4.706" transform="translate(178.614 151.104)" fill="#647ce2"></path><path id="Path_370" data-name="Path 370" d="M158.7,145.433H143.912a4.708,4.708,0,0,1-4.708-4.706V134a4.707,4.707,0,0,1,4.708-4.705H158.7a4.7,4.7,0,0,1,4.7,4.705v6.724a4.7,4.7,0,0,1-4.7,4.706" transform="translate(178.614 165.904)" fill="#647ce2"></path><path id="Path_371" data-name="Path 371" d="M158.7,156.966H143.912a4.708,4.708,0,0,1-4.708-4.705v-6.724a4.707,4.707,0,0,1,4.708-4.706H158.7a4.7,4.7,0,0,1,4.7,4.706v6.724a4.7,4.7,0,0,1-4.7,4.705" transform="translate(178.614 180.702)" fill="#3f5a9f"></path><path id="Path_372" data-name="Path 372" d="M172.158,122.366h-14.79a4.707,4.707,0,0,1-4.708-4.705v-6.724a4.705,4.705,0,0,1,4.708-4.705h14.79a4.7,4.7,0,0,1,4.706,4.705v6.724a4.7,4.7,0,0,1-4.706,4.705" transform="translate(195.88 136.306)" fill="#647ce2"></path><path id="Path_373" data-name="Path 373" d="M172.158,133.9h-14.79a4.707,4.707,0,0,1-4.708-4.706v-6.724a4.705,4.705,0,0,1,4.708-4.705h14.79a4.7,4.7,0,0,1,4.706,4.705v6.724a4.7,4.7,0,0,1-4.706,4.706" transform="translate(195.88 151.104)" fill="#647ce2"></path><path id="Path_374" data-name="Path 374" d="M172.158,145.433h-14.79a4.707,4.707,0,0,1-4.708-4.706V134a4.705,4.705,0,0,1,4.708-4.705h14.79A4.7,4.7,0,0,1,176.863,134v6.724a4.7,4.7,0,0,1-4.706,4.706" transform="translate(195.88 165.904)" fill="#647ce2"></path><path id="Path_375" data-name="Path 375" d="M172.158,156.966h-14.79a4.707,4.707,0,0,1-4.708-4.705v-6.724a4.705,4.705,0,0,1,4.708-4.706h14.79a4.7,4.7,0,0,1,4.706,4.706v6.724a4.7,4.7,0,0,1-4.706,4.705" transform="translate(195.88 180.702)" fill="#647ce2"></path><path id="Path_376" data-name="Path 376" d="M185.614,122.366H170.822a4.706,4.706,0,0,1-4.706-4.705v-6.724a4.7,4.7,0,0,1,4.706-4.705h14.792a4.7,4.7,0,0,1,4.705,4.705v6.724a4.706,4.706,0,0,1-4.705,4.705" transform="translate(213.146 136.306)" fill="#647ce2"></path><path id="Path_377" data-name="Path 377" d="M185.614,133.9H170.822a4.706,4.706,0,0,1-4.706-4.706v-6.724a4.7,4.7,0,0,1,4.706-4.705h14.792a4.7,4.7,0,0,1,4.705,4.705v6.724a4.706,4.706,0,0,1-4.705,4.706" transform="translate(213.146 151.104)" fill="#647ce2"></path><path id="Path_378" data-name="Path 378" d="M185.614,145.433H170.822a4.706,4.706,0,0,1-4.706-4.706V134a4.7,4.7,0,0,1,4.706-4.705h14.792A4.7,4.7,0,0,1,190.319,134v6.724a4.706,4.706,0,0,1-4.705,4.706" transform="translate(213.146 165.904)" fill="#647ce2"></path><path id="Path_379" data-name="Path 379" d="M185.614,156.966H170.822a4.706,4.706,0,0,1-4.706-4.705v-6.724a4.7,4.7,0,0,1,4.706-4.706h14.792a4.7,4.7,0,0,1,4.705,4.706v6.724a4.706,4.706,0,0,1-4.705,4.705" transform="translate(213.146 180.702)" fill="#3f5a9f"></path><path id="Path_380" data-name="Path 380" d="M160.625,122.366h-14.79a4.707,4.707,0,0,1-4.708-4.705v-6.724a4.705,4.705,0,0,1,4.708-4.705h14.79a4.7,4.7,0,0,1,4.705,4.705v6.724a4.706,4.706,0,0,1-4.705,4.705" transform="translate(181.082 136.306)" fill="#6d92f0"></path><path id="Path_381" data-name="Path 381" d="M160.625,133.9h-14.79a4.707,4.707,0,0,1-4.708-4.706v-6.724a4.705,4.705,0,0,1,4.708-4.705h14.79a4.7,4.7,0,0,1,4.705,4.705v6.724a4.706,4.706,0,0,1-4.705,4.706" transform="translate(181.082 151.104)" fill="#6d92f0"></path><path id="Path_382" data-name="Path 382" d="M160.625,145.433h-14.79a4.707,4.707,0,0,1-4.708-4.706V134a4.705,4.705,0,0,1,4.708-4.705h14.79A4.7,4.7,0,0,1,165.33,134v6.724a4.706,4.706,0,0,1-4.705,4.706" transform="translate(181.082 165.904)" fill="#6d92f0"></path><path id="Path_383" data-name="Path 383" d="M160.625,156.966h-14.79a4.707,4.707,0,0,1-4.708-4.705v-6.724a4.705,4.705,0,0,1,4.708-4.706h14.79a4.7,4.7,0,0,1,4.705,4.706v6.724a4.706,4.706,0,0,1-4.705,4.705" transform="translate(181.082 180.702)" fill="#3f5a9f"></path><path id="Path_384" data-name="Path 384" d="M174.081,122.366h-14.79a4.707,4.707,0,0,1-4.708-4.705v-6.724a4.705,4.705,0,0,1,4.708-4.705h14.79a4.7,4.7,0,0,1,4.706,4.705v6.724a4.706,4.706,0,0,1-4.706,4.705" transform="translate(198.347 136.306)" fill="#6d92f0"></path><path id="Path_385" data-name="Path 385" d="M174.081,133.9h-14.79a4.707,4.707,0,0,1-4.708-4.706v-6.724a4.705,4.705,0,0,1,4.708-4.705h14.79a4.7,4.7,0,0,1,4.706,4.705v6.724a4.706,4.706,0,0,1-4.706,4.706" transform="translate(198.347 151.104)" fill="#6d92f0"></path><path id="Path_386" data-name="Path 386" d="M174.081,145.433h-14.79a4.707,4.707,0,0,1-4.708-4.706V134a4.705,4.705,0,0,1,4.708-4.705h14.79A4.7,4.7,0,0,1,178.786,134v6.724a4.706,4.706,0,0,1-4.706,4.706" transform="translate(198.347 165.904)" fill="#6d92f0"></path><path id="Path_387" data-name="Path 387" d="M174.081,156.966h-14.79a4.707,4.707,0,0,1-4.708-4.705v-6.724a4.705,4.705,0,0,1,4.708-4.706h14.79a4.7,4.7,0,0,1,4.706,4.706v6.724a4.706,4.706,0,0,1-4.706,4.705" transform="translate(198.347 180.702)" fill="#6d92f0"></path><path id="Path_388" data-name="Path 388" d="M187.536,122.366h-14.79a4.707,4.707,0,0,1-4.708-4.705v-6.724a4.705,4.705,0,0,1,4.708-4.705h14.79a4.7,4.7,0,0,1,4.706,4.705v6.724a4.706,4.706,0,0,1-4.706,4.705" transform="translate(215.612 136.306)" fill="#6d92f0"></path><path id="Path_389" data-name="Path 389" d="M187.536,133.9h-14.79a4.707,4.707,0,0,1-4.708-4.706v-6.724a4.705,4.705,0,0,1,4.708-4.705h14.79a4.7,4.7,0,0,1,4.706,4.705v6.724a4.706,4.706,0,0,1-4.706,4.706" transform="translate(215.612 151.104)" fill="#6d92f0"></path><path id="Path_390" data-name="Path 390" d="M187.536,145.433h-14.79a4.707,4.707,0,0,1-4.708-4.706V134a4.705,4.705,0,0,1,4.708-4.705h14.79A4.7,4.7,0,0,1,192.241,134v6.724a4.706,4.706,0,0,1-4.706,4.706" transform="translate(215.612 165.904)" fill="#6d92f0"></path><path id="Path_391" data-name="Path 391" d="M187.536,156.966h-14.79a4.707,4.707,0,0,1-4.708-4.705v-6.724a4.705,4.705,0,0,1,4.708-4.706h14.79a4.7,4.7,0,0,1,4.706,4.706v6.724a4.706,4.706,0,0,1-4.706,4.705" transform="translate(215.612 180.702)" fill="#3f5a9f"></path><path id="Path_392" data-name="Path 392" d="M160.871,123.05H146.079a5.148,5.148,0,0,1-5.144-5.144v-6.724a5.148,5.148,0,0,1,5.144-5.144h14.792a5.149,5.149,0,0,1,5.144,5.144v6.724a5.149,5.149,0,0,1-5.144,5.144m-14.792-16.135a4.271,4.271,0,0,0-4.267,4.267v6.724a4.271,4.271,0,0,0,4.267,4.267h14.792a4.272,4.272,0,0,0,4.267-4.267v-6.724a4.272,4.272,0,0,0-4.267-4.267Z" transform="translate(180.835 136.06)" fill="#fff"></path><path id="Path_393" data-name="Path 393" d="M160.871,134.583H146.079a5.148,5.148,0,0,1-5.144-5.144v-6.724a5.148,5.148,0,0,1,5.144-5.144h14.792a5.149,5.149,0,0,1,5.144,5.144v6.724a5.149,5.149,0,0,1-5.144,5.144m-14.792-16.135a4.271,4.271,0,0,0-4.267,4.267v6.724a4.272,4.272,0,0,0,4.267,4.267h14.792a4.274,4.274,0,0,0,4.267-4.267v-6.724a4.272,4.272,0,0,0-4.267-4.267Z" transform="translate(180.835 150.858)" fill="#fff"></path><path id="Path_394" data-name="Path 394" d="M160.871,146.118H146.079a5.148,5.148,0,0,1-5.144-5.144V134.25a5.148,5.148,0,0,1,5.144-5.144h14.792a5.149,5.149,0,0,1,5.144,5.144v6.724a5.149,5.149,0,0,1-5.144,5.144m-14.792-16.135a4.271,4.271,0,0,0-4.267,4.267v6.724a4.272,4.272,0,0,0,4.267,4.267h14.792a4.274,4.274,0,0,0,4.267-4.267V134.25a4.272,4.272,0,0,0-4.267-4.267Z" transform="translate(180.835 165.658)" fill="#fff"></path><path id="Path_395" data-name="Path 395" d="M160.871,157.652H146.079a5.148,5.148,0,0,1-5.144-5.144v-6.724a5.15,5.15,0,0,1,5.144-5.146h14.792a5.151,5.151,0,0,1,5.144,5.146v6.724a5.149,5.149,0,0,1-5.144,5.144m-14.792-16.135a4.271,4.271,0,0,0-4.267,4.267v6.724a4.272,4.272,0,0,0,4.267,4.267h14.792a4.274,4.274,0,0,0,4.267-4.267v-6.724a4.272,4.272,0,0,0-4.267-4.267Z" transform="translate(180.835 180.454)" fill="#fff"></path><path id="Path_396" data-name="Path 396" d="M174.327,123.05H159.535a5.148,5.148,0,0,1-5.144-5.144v-6.724a5.148,5.148,0,0,1,5.144-5.144h14.792a5.149,5.149,0,0,1,5.144,5.144v6.724a5.149,5.149,0,0,1-5.144,5.144m-14.792-16.135a4.271,4.271,0,0,0-4.267,4.267v6.724a4.271,4.271,0,0,0,4.267,4.267h14.792a4.272,4.272,0,0,0,4.267-4.267v-6.724a4.272,4.272,0,0,0-4.267-4.267Z" transform="translate(198.101 136.06)" fill="#fff"></path><path id="Path_397" data-name="Path 397" d="M174.327,134.583H159.535a5.148,5.148,0,0,1-5.144-5.144v-6.724a5.148,5.148,0,0,1,5.144-5.144h14.792a5.149,5.149,0,0,1,5.144,5.144v6.724a5.149,5.149,0,0,1-5.144,5.144m-14.792-16.135a4.271,4.271,0,0,0-4.267,4.267v6.724a4.272,4.272,0,0,0,4.267,4.267h14.792a4.274,4.274,0,0,0,4.267-4.267v-6.724a4.272,4.272,0,0,0-4.267-4.267Z" transform="translate(198.101 150.858)" fill="#fff"></path><path id="Path_398" data-name="Path 398" d="M174.327,146.118H159.535a5.148,5.148,0,0,1-5.144-5.144V134.25a5.148,5.148,0,0,1,5.144-5.144h14.792a5.149,5.149,0,0,1,5.144,5.144v6.724a5.149,5.149,0,0,1-5.144,5.144m-14.792-16.135a4.271,4.271,0,0,0-4.267,4.267v6.724a4.272,4.272,0,0,0,4.267,4.267h14.792a4.274,4.274,0,0,0,4.267-4.267V134.25a4.272,4.272,0,0,0-4.267-4.267Z" transform="translate(198.101 165.658)" fill="#fff"></path><path id="Path_399" data-name="Path 399" d="M174.327,157.652H159.535a5.148,5.148,0,0,1-5.144-5.144v-6.724a5.15,5.15,0,0,1,5.144-5.146h14.792a5.151,5.151,0,0,1,5.144,5.146v6.724a5.149,5.149,0,0,1-5.144,5.144m-14.792-16.135a4.271,4.271,0,0,0-4.267,4.267v6.724a4.272,4.272,0,0,0,4.267,4.267h14.792a4.274,4.274,0,0,0,4.267-4.267v-6.724a4.272,4.272,0,0,0-4.267-4.267Z" transform="translate(198.101 180.454)" fill="#fff"></path><path id="Path_400" data-name="Path 400" d="M187.783,123.05H172.991a5.148,5.148,0,0,1-5.144-5.144v-6.724a5.148,5.148,0,0,1,5.144-5.144h14.792a5.149,5.149,0,0,1,5.144,5.144v6.724a5.149,5.149,0,0,1-5.144,5.144m-14.792-16.135a4.271,4.271,0,0,0-4.267,4.267v6.724a4.271,4.271,0,0,0,4.267,4.267h14.792a4.272,4.272,0,0,0,4.267-4.267v-6.724a4.272,4.272,0,0,0-4.267-4.267Z" transform="translate(215.367 136.06)" fill="#fff"></path><path id="Path_401" data-name="Path 401" d="M187.783,134.583H172.991a5.148,5.148,0,0,1-5.144-5.144v-6.724a5.148,5.148,0,0,1,5.144-5.144h14.792a5.149,5.149,0,0,1,5.144,5.144v6.724a5.149,5.149,0,0,1-5.144,5.144m-14.792-16.135a4.271,4.271,0,0,0-4.267,4.267v6.724a4.272,4.272,0,0,0,4.267,4.267h14.792a4.274,4.274,0,0,0,4.267-4.267v-6.724a4.272,4.272,0,0,0-4.267-4.267Z" transform="translate(215.367 150.858)" fill="#fff"></path><path id="Path_402" data-name="Path 402" d="M187.783,146.118H172.991a5.148,5.148,0,0,1-5.144-5.144V134.25a5.148,5.148,0,0,1,5.144-5.144h14.792a5.149,5.149,0,0,1,5.144,5.144v6.724a5.149,5.149,0,0,1-5.144,5.144m-14.792-16.135a4.271,4.271,0,0,0-4.267,4.267v6.724a4.272,4.272,0,0,0,4.267,4.267h14.792a4.274,4.274,0,0,0,4.267-4.267V134.25a4.272,4.272,0,0,0-4.267-4.267Z" transform="translate(215.367 165.658)" fill="#fff"></path><path id="Path_403" data-name="Path 403" d="M187.783,157.652H172.991a5.148,5.148,0,0,1-5.144-5.144v-6.724a5.15,5.15,0,0,1,5.144-5.146h14.792a5.151,5.151,0,0,1,5.144,5.146v6.724a5.149,5.149,0,0,1-5.144,5.144m-14.792-16.135a4.271,4.271,0,0,0-4.267,4.267v6.724a4.272,4.272,0,0,0,4.267,4.267h14.792a4.274,4.274,0,0,0,4.267-4.267v-6.724a4.272,4.272,0,0,0-4.267-4.267Z" transform="translate(215.367 180.454)" fill="#fff"></path><path id="Path_404" data-name="Path 404" d="M238.4,301.276H150.154c-7.6,0-16.68-5.945-17-13.61L126.451,64.1a13.969,13.969,0,0,1,3.925-10.336,14.333,14.333,0,0,1,10.443-4.436H257.31a14.338,14.338,0,0,1,10.445,4.436,13.983,13.983,0,0,1,3.925,10.342l-.365,12.2-1.18-.037.368-12.206a12.827,12.827,0,0,0-3.6-9.484,13.178,13.178,0,0,0-9.6-4.073H140.819a13.173,13.173,0,0,0-9.594,4.073,12.813,12.813,0,0,0-3.6,9.477l6.7,223.569c.295,7.021,8.749,12.473,15.824,12.473H238.4Z" transform="translate(162.235 63.293)" fill="#3f5a9f"></path><rect id="Rectangle_818" data-name="Rectangle 818" width="130.049" height="1.179" transform="translate(427.5 303.883) rotate(-88.335)" fill="#3f5a9f"></rect><path id="Path_405" data-name="Path 405" d="M233.82,44.229V92.611h-87.7V44.229a12.667,12.667,0,0,0-4.046-8.47,12.954,12.954,0,0,0-8.813-3.468h87.7a12.937,12.937,0,0,1,8.813,3.468,12.626,12.626,0,0,1,4.046,8.47" transform="translate(170.994 41.433)" fill="#fff"></path><path id="Path_406" data-name="Path 406" d="M153.356,44.229H127.63a12.636,12.636,0,0,1,4.055-8.47,12.931,12.931,0,0,1,17.626,0,12.666,12.666,0,0,1,4.046,8.47" transform="translate(163.764 41.433)" fill="#2e4882"></path><path id="Path_407" data-name="Path 407" d="M234.214,93.223H145.732V44.449a12.242,12.242,0,0,0-3.922-8.183,12.53,12.53,0,0,0-8.543-3.361V32.12H220.96a13.307,13.307,0,0,1,9.08,3.571,13,13,0,0,1,4.171,8.733l0,.025Zm-87.7-.785h86.909V44.463a12.211,12.211,0,0,0-3.92-8.2,12.535,12.535,0,0,0-8.546-3.361H137.777a13.358,13.358,0,0,1,4.569,2.785,13.041,13.041,0,0,1,4.171,8.733Z" transform="translate(170.995 41.214)" fill="#2e4882"></path><path id="Path_408" data-name="Path 408" d="M236.828,62.35H138.223a3.08,3.08,0,0,1-2.174-5.263,3.021,3.021,0,0,1,2.174-.9H143.6v.785h-5.379a2.248,2.248,0,0,0-1.616.674,2.294,2.294,0,0,0,1.616,3.922h98.605a2.307,2.307,0,0,0,2.295-2.295,2.3,2.3,0,0,0-2.295-2.3h-5.381v-.785h5.381a3.087,3.087,0,0,1,3.08,3.087,3.091,3.091,0,0,1-3.08,3.08" transform="translate(173.404 72.089)" fill="#2e4882"></path><path id="Path_409" data-name="Path 409" d="M181.317,166.968c0,2.174,15.964,3.943,35.651,3.943s35.649-1.769,35.649-3.943a.549.549,0,0,0-.016-.119V156.194H181.342v10.63a.454.454,0,0,0-.025.144" transform="translate(232.65 200.414)" fill="#f49b51"></path><path id="Path_410" data-name="Path 410" d="M181.319,158.453c0,2.178,15.961,3.943,35.649,3.943s35.649-1.765,35.649-3.943-15.961-3.943-35.649-3.943-35.649,1.765-35.649,3.943" transform="translate(232.653 198.254)" fill="#fcc659"></path><path id="Path_411" data-name="Path 411" d="M177.628,161.337c0,2.174,15.961,3.943,35.649,3.943s35.648-1.769,35.648-3.943a.542.542,0,0,0-.014-.119V150.563H177.651v10.63a.525.525,0,0,0-.023.144" transform="translate(227.917 193.189)" fill="#f49b51"></path><path id="Path_412" data-name="Path 412" d="M177.629,152.821c0,2.178,15.961,3.941,35.649,3.941s35.648-1.763,35.648-3.941-15.961-3.943-35.648-3.943-35.649,1.765-35.649,3.943" transform="translate(227.918 191.027)" fill="#fcc659"></path><path id="Path_413" data-name="Path 413" d="M181.317,155.706c0,2.174,15.964,3.943,35.651,3.943s35.649-1.769,35.649-3.943a.549.549,0,0,0-.016-.119V144.932H181.342v10.63a.454.454,0,0,0-.025.144" transform="translate(232.65 185.964)" fill="#f49b51"></path><path id="Path_414" data-name="Path 414" d="M181.319,147.19c0,2.176,15.961,3.941,35.649,3.941s35.649-1.765,35.649-3.941-15.961-3.943-35.649-3.943-35.649,1.765-35.649,3.943" transform="translate(232.653 183.802)" fill="#fcc659"></path><path id="Path_415" data-name="Path 415" d="M198.339,165.275c14.5,0,36.071-1.162,36.071-4.363h-.842c0,1.228-12.1,3.521-35.228,3.521-.84,0-1.676,0-2.5-.009l-.007.842c.826.007,1.664.009,2.507.009" transform="translate(251.275 206.468)" fill="#2e4882"></path><path id="Path_416" data-name="Path 416" d="M196.293,163.549l.039-.84c-3.61-.173-6.918-.411-9.838-.7l-.082.838c2.932.294,6.256.532,9.881.705" transform="translate(239.188 207.872)" fill="#2e4882"></path><path id="Path_417" data-name="Path 417" d="M203.135,158.723c13.4-1.219,13.4-2.909,13.4-3.463h-.842c0,.411-2.269,1.683-12.63,2.626Z" transform="translate(260.549 199.216)" fill="#2e4882"></path><path id="Path_418" data-name="Path 418" d="M198.438,157.766c4.007,0,7.943-.073,11.7-.217l-.032-.842c-6.708.258-14.121.288-21.032.078l-.023.842c3.059.091,6.217.139,9.388.139" transform="translate(242.572 201.073)" fill="#2e4882"></path><path id="Path_419" data-name="Path 419" d="M190.747,157.94l.057-.84c-3.8-.251-7.119-.573-9.856-.961l-.119.833c2.76.39,6.1.717,9.918.968" transform="translate(232.024 200.344)" fill="#2e4882"></path><path id="Path_420" data-name="Path 420" d="M207.478,148.309c11.881-1.212,11.881-2.742,11.881-3.317h-.842c0,.014-.3,1.377-11.123,2.479Z" transform="translate(266.11 186.041)" fill="#2e4882"></path><path id="Path_421" data-name="Path 421" d="M208.292,147.772c4.1,0,8.107-.075,11.913-.226l-.034-.842c-3.795.151-7.792.226-11.879.226-7.315,0-14.342-.244-20.32-.7l-.064.838c6,.463,13.046.708,20.384.708" transform="translate(241.107 187.624)" fill="#2e4882"></path><path id="Path_422" data-name="Path 422" d="M175.783,150.074c0,2.174,15.964,3.943,35.651,3.943s35.648-1.769,35.648-3.943a.549.549,0,0,0-.016-.119V139.3H175.808v10.63a.454.454,0,0,0-.025.144" transform="translate(225.549 178.738)" fill="#f49b51"></path><path id="Path_423" data-name="Path 423" d="M175.784,141.559c0,2.176,15.961,3.943,35.649,3.943s35.648-1.767,35.648-3.943-15.961-3.943-35.648-3.943-35.649,1.765-35.649,3.943" transform="translate(225.551 176.577)" fill="#fcc659"></path><path id="Path_424" data-name="Path 424" d="M178.68,140.833c0,1.463,13,2.651,29.037,2.651s29.037-1.187,29.037-2.651-13-2.651-29.037-2.651-29.037,1.187-29.037,2.651" transform="translate(229.267 177.303)" fill="#f49b51"></path><rect id="Rectangle_819" data-name="Rectangle 819" width="19.057" height="2.356" transform="translate(376.389 94.991)" fill="#e1eaff"></rect><rect id="Rectangle_820" data-name="Rectangle 820" width="38.317" height="2.356" transform="translate(329.243 94.991)" fill="#e1eaff"></rect><rect id="Rectangle_821" data-name="Rectangle 821" width="44.135" height="2.356" transform="translate(351.312 105.206)" fill="#e1eaff"></rect><rect id="Rectangle_822" data-name="Rectangle 822" width="16.651" height="2.356" transform="translate(329.243 105.206)" fill="#e1eaff"></rect><rect id="Rectangle_823" data-name="Rectangle 823" width="18.055" height="2.358" transform="translate(369.166 116.204)" fill="#e1eaff"></rect><rect id="Rectangle_824" data-name="Rectangle 824" width="32.299" height="2.358" transform="translate(329.243 116.204)" fill="#e1eaff"></rect><rect id="Rectangle_825" data-name="Rectangle 825" width="23.897" height="1.178" transform="translate(336.305 216.062)" fill="#3f5a9f"></rect><path id="Path_425" data-name="Path 425" d="M201.482,127.942H161.829v-1.178h39.653a2.8,2.8,0,0,0,2.808-2.7L206.368,69.6l1.178.043-2.08,54.468a3.974,3.974,0,0,1-3.984,3.836" transform="translate(207.645 89.298)" fill="#3f5a9f"></path><path id="Path_426" data-name="Path 426" d="M98.63,59a24.164,24.164,0,1,0,18.98,28.42A24.163,24.163,0,0,0,98.63,59m14.356,27.5A19.449,19.449,0,1,1,97.178,63.523c.178.032.354.066.532.1a19.473,19.473,0,0,1,15.372,22.352c-.032.174-.062.349-.1.523" transform="translate(89.483 75.096)" fill="#fcc659"></path><path id="Path_427" data-name="Path 427" d="M110.428,83.326c-.03.174-.059.349-.1.523A19.451,19.451,0,1,1,94.524,60.874c.18.03.354.064.532.1a19.473,19.473,0,0,1,15.372,22.352" transform="translate(92.135 77.746)" fill="#f49b51"></path><path id="Path_428" data-name="Path 428" d="M81.267,91.9l.619-3.607a10.542,10.542,0,0,1-5.2-2.507l1.267-2.247a9.654,9.654,0,0,0,4.879,2.416c2.537.434,4.5-.735,4.849-2.772.336-1.963-.849-3.418-3.308-4.941-3.4-2.053-5.368-4.082-4.836-7.189.507-2.964,3-4.854,6.377-4.827l.619-3.607L88.751,63l-.594,3.466a9.661,9.661,0,0,1,4.429,2.043l-1.3,2.2A8.789,8.789,0,0,0,87,68.726c-2.751-.47-4.066,1-4.311,2.425-.32,1.856.845,3.011,3.731,4.829,3.422,2.13,4.961,4.306,4.418,7.484-.482,2.822-2.9,5.13-6.683,5.107l-.635,3.715Z" transform="translate(98.401 80.347)" fill="#fcc659"></path><path id="Path_429" data-name="Path 429" d="M93.338,76.574c-.014-.162-.032-.326-.05-.489a19.217,19.217,0,0,0-8.137-13.642l.3-.432a19.73,19.73,0,0,1,8.356,13.982c.023.2.041.368.055.537Z" transform="translate(109.258 79.568)" fill="#2e4882"></path><path id="Path_430" data-name="Path 430" d="M92.234,64.424a19.176,19.176,0,0,0-12.557-3.358l-.046-.525a19.708,19.708,0,0,1,12.9,3.45Z" transform="translate(102.176 77.588)" fill="#2e4882"></path><path id="Path_431" data-name="Path 431" d="M87.19,78.542l-.4-.34a19.057,19.057,0,0,0,3.628-6.553l.5.16a19.59,19.59,0,0,1-3.726,6.733" transform="translate(111.356 91.934)" fill="#2e4882"></path><path id="Path_432" data-name="Path 432" d="M91.522,65.561a23.882,23.882,0,0,0-5.479-4.945l.311-.473A24.445,24.445,0,0,1,91.961,65.2Z" transform="translate(110.403 77.17)" fill="#2e4882"></path><path id="Path_433" data-name="Path 433" d="M84.845,96.724l-.233-.516A23.885,23.885,0,0,0,96.854,65.2l.523-.219A24.455,24.455,0,0,1,84.845,96.724" transform="translate(108.567 83.373)" fill="#2e4882"></path><path id="Path_434" data-name="Path 434" d="M191.763,97.757a22.432,22.432,0,1,1-16.206-27.274,22.434,22.434,0,0,1,16.206,27.274" transform="translate(189.371 89.541)" fill="url(#linear-gradient)"></path><path id="Path_435" data-name="Path 435" d="M162.828,99.217l-10.29-10.585,1.128-1.1,8.724,8.975,11.221-23.26,1.415.683Z" transform="translate(195.724 93.989)" fill="#fff"></path><path id="Path_436" data-name="Path 436" d="M73.461,66.149a10.473,10.473,0,0,1,4.76,4.993,10.507,10.507,0,0,1,4.767-5,10.487,10.487,0,0,1-4.767-4.993,10.492,10.492,0,0,1-4.76,5" transform="translate(94.259 78.458)" fill="#ffe6a6"></path><path id="Path_437" data-name="Path 437" d="M81.932,78.437a6.091,6.091,0,0,1,2.767,2.9,6.094,6.094,0,0,1,2.769-2.906,6.1,6.1,0,0,1-2.769-2.9,6.1,6.1,0,0,1-2.767,2.906" transform="translate(105.128 96.915)" fill="#ffe6a6"></path></g></svg>