<svg xmlns="http://www.w3.org/2000/svg" id="ecommerce-payments" width="80" height="80" viewBox="0 0 80 80"><g id="Ellipse_31" data-name="Ellipse 31" fill="#fff" stroke="rgba(13,21,39,0.15)" stroke-width="1"><circle cx="40" cy="40" r="40" stroke="none"></circle><circle cx="40" cy="40" r="39.5" fill="none"></circle></g><g id="Ecommerce_icon" data-name="Ecommerce icon" transform="translate(-1029.307 -441.219)"><path id="rect20726-0-3-9-1-2" d="M1055.044,466a3.054,3.054,0,0,0-3.044,3.044v22.829a.761.761,0,0,0,.761.761h35a.761.761,0,0,0,.761-.761V469.044a3.054,3.054,0,0,0-3.044-3.044Z" transform="translate(-0.956 0)" fill="#1b53e0"></path><path id="rect20270-4-4-1-2-4" d="M1048.761,499a.761.761,0,0,0-.761.761v1.522a3.054,3.054,0,0,0,3.044,3.044h36.526a3.054,3.054,0,0,0,3.044-3.044v-1.522a.761.761,0,0,0-.761-.761Z" transform="translate(0 -7.888)" fill="#1240b2"></path><path id="rect21786-7-5-1-0-7" d="M1078.654,499v.38a.364.364,0,0,1-.381.38H1069.9a.364.364,0,0,1-.38-.38V499H1068v.38a1.915,1.915,0,0,0,1.9,1.9h8.371a1.915,1.915,0,0,0,1.9-1.9V499Z" transform="translate(-4.781 -7.888)" fill="#5e86e9"></path><path id="rect22479-2-4-0-6-7" d="M1058.456,470a2.5,2.5,0,0,0-2.456,2.519v15.954a2.5,2.5,0,0,0,2.456,2.519h27.832a2.5,2.5,0,0,0,2.456-2.519V472.519a2.5,2.5,0,0,0-2.456-2.519Z" transform="translate(-3.065 -1.94)" fill="#d1dcf9"></path><path id="path105410-4-1-7" d="M1067.761,474.5a.761.761,0,0,0,0,1.522h.926l1.745,7.031a.761.761,0,0,0,.739.578h5.954a.761.761,0,0,0,.738-.578l1.29-5.2a.761.761,0,0,0-.739-.944h-7.94l-.453-1.831a.761.761,0,0,0-.739-.578Zm3.79,9.893a1.141,1.141,0,1,0,1.141,1.141A1.141,1.141,0,0,0,1071.551,484.393Zm5.193,0a1.141,1.141,0,1,0,1.142,1.141A1.141,1.141,0,0,0,1076.744,484.393Z" transform="translate(-4.542 -2.032)" fill="#5e86e9"></path></g></svg>