<svg xmlns="http://www.w3.org/2000/svg" xmlns:xlink="http://www.w3.org/1999/xlink" width="731.31" height="320.375" viewBox="0 0 731.31 320.375"><defs><linearGradient id="linear-gradient" x1="0.5" x2="0.5" y2="1" gradientUnits="objectBoundingBox"><stop offset="0" stop-color="#9bc63c"></stop><stop offset="1" stop-color="#349044"></stop></linearGradient><clipPath id="clip-path"><rect id="Rectangle_775" data-name="Rectangle 775" width="49.871" height="94.529" fill="#fff" stroke="#1b53e0" stroke-width="1"></rect></clipPath><clipPath id="clip-path-2"><rect id="Rectangle_776" data-name="Rectangle 776" width="8.183" height="17.587" fill="#fff" stroke="#1b53e0" stroke-width="1"></rect></clipPath></defs><g id="footer-cta" transform="translate(-595.69 -9668.396)"><path id="Path_152" data-name="Path 152" d="M82.246,401.174h50.8c-6.374-50.187-15.117-101.22-25.6-96.811-.116.049-.232.1-.349.167-.391.2-.774.414-1.159.642-.921-3.082-4.576-5.17-7.313-2.316-.076.084-.153.167-.231.256-4.166,4.881.275,3.933.573,7.272-16.791,15.561-20.838,52.936-16.719,90.79" transform="translate(578.5 9587.597)" fill="#eb966b"></path><path id="Path_153" data-name="Path 153" d="M195.364,395.042c7.1-55.176-2.086-89.194-12-112.5-11.6-9.466-19.175-3.9-33.895-4-13.755-.073-14.683-11.6-28.419-11.179-17.3,10.737-26.377,26.317-31.891,38.969-.167.331-.3.682-.446,1.013-1.113,2.615-2.079,5.083-2.933,7.348a105.391,105.391,0,0,0-5.03,18.748c-.334,1.8-.612,3.61-.872,5.452-2.474,17.973-1.8,37.677.2,56.149Z" transform="translate(578.944 9593.729)" fill="#1240b2"></path><path id="Path_154" data-name="Path 154" d="M100.276,394.861c-2.143-34.984-.487-62.912,4.979-83.363,3.733-14.03,8.943-30.091,19.289-42.858a1.409,1.409,0,0,0-2.19-1.775c-10.68,13.18-16.013,29.591-19.822,43.906-5.531,20.693-7.22,48.864-5.076,84.09Z" transform="translate(575.662 9593.91)" fill="#445a97"></path><path id="Path_155" data-name="Path 155" d="M212.785,228.859c1.138,5.078.9,6.792,2.217,11.825.015.052,1.471-.791,1.478-.739a5.168,5.168,0,0,0,.776,1.973,16.84,16.84,0,0,0,2.86,3.245c1.094,1.042,2.2,2,2.956,2.882,2.7,3.149,3.651,7.494,6.556,10.539,1.072,1.131,2.372,2.017,3.532,3.059,2.845,2.572,4.73,6.008,7.029,9.091,9.393,12.586,28.542,12.513,42.681,12.106,13.546-.391,32.967.076,38.233.405,2.28.144,5.618.791,7.829-.094l6.17-37.366s-51.471.309-55.062-1.405c-17-8.13-39.245-56.057-50.886-64.778-6.312-4.73-8.935,1.374-11.654,12.7-.118.51-.244,1.02-.354,1.545-.643,2.853-1.2,5.846-1.663,8.839-2.084,13.141-2.7,26.171-2.7,26.171" transform="translate(554.793 9609.774)" fill="#d1dcf9"></path><path id="Path_156" data-name="Path 156" d="M144.847,106.312c-29.526-17.576-7.254-41.426-7.29-43.4-.188-10.064,7.574-22.483,16.113-27.141,6.442-3.514,20.959-5.434,26.981.758,4.629-5.047,11.353-2.175,14.6,1,12.738,12.455.738,28.573.738,28.573L155.8,95.118s9.438,43.748,4.234,50.534c-29.526,38.5-57.649-25.8-15.185-39.339" transform="translate(570.879 9635.898)" fill="#374263"></path><path id="Path_157" data-name="Path 157" d="M201.221,177.135c-.628,2.733-.249,8.943-6.288,33.131a.219.219,0,0,1-.016.07c-.97,3.9-2.584,9.556-4.456,15.743q-.64,2.072-1.3,4.215c-4.021,12.972-8.788,27-11.109,31.6-3.718,5.357-15.168,8.508-24.871,8.9-29.964,1.234-45.838-4.828-52.933-12.2-.621-5.458-1.568-22.333-2.049-31.16-.171-3.2-.287-5.34-.3-5.512-.823,2.554-1.622,5.17-2.639,7.639-1.079,2.616-2.849,9.175-4.122,11.69a13.7,13.7,0,0,0-1.474,6.319,33.8,33.8,0,0,1,.093,4.518c-.458,3.71-3.175,6.42-4.828,9.556-.784,1.483-4.448,10.836-3.609,12.056-1.685-2.446-15.727,5.053-17.373,2.584-3.144-4.727-20.517-16.651-19.586-22.247,3.664-22.2,15.137-51.529,27.317-74.677,6.249-11.869,20.936-18.9,34.715-23.536.442-.156.893-.3,1.336-.443,2.064-.683,4.1-1.3,6.078-1.886,3.408-1,6.358-2.189,9.082-3,11.574-3.438,16.721,1.747,26.285,3.361,4.727.8,11.341-2.787,18.731-.388.272.085.559.155.831.263,2.119.878,4.106,1.747,5.977,2.6a13.267,13.267,0,0,1,1.529.691c19.934,12.273,25.05,19.8,24.98,20.1" transform="translate(585.041 9614.916)" fill="#d1dcf9"></path><path id="Path_158" data-name="Path 158" d="M129.01,144.39c2.06,3.776,12.386,14.491,24.415,24.012A103.546,103.546,0,0,0,170.65,179.82c7.147-6.482,14.628-30.622,13.272-35.263-2.1-.571-9-4.424-10.432-5.511-.631-.5.185-4.328,1.373-8.748q.057-.194.112-.387c.241-.829.482-1.694.724-2.56,1.318-4.512,2.748-9.061,3.249-10.958.037-.148.074-.258.093-.368.019-.092.037-.185.056-.258l-.279-.276-1.54-1.474L158.4,98.584c-.037,1.032-2.042,9.3-4.752,18.085-2.524,8.14-5.662,16.7-8.39,20.258-1.912,2.487-10.678,6.008-16.247,7.463" transform="translate(569.835 9624.032)" fill="#fcb47e"></path><path id="Path_159" data-name="Path 159" d="M165.827,111.581c0,.441.112,17.128,15.648,21.05.278-.957.556-1.953.835-2.947,1.318-4.512,2.747-9.061,3.248-10.958.038-.147.075-.258.093-.368.019-.092.038-.184.056-.258l-.278-.276a39.273,39.273,0,0,1-19.6-6.243" transform="translate(563.224 9621.698)" fill="#1a1a1a" opacity="0.11"></path><path id="Path_160" data-name="Path 160" d="M179,262.913c0,3.668-.012,8.647,0,13.795-.652,0-1.3,0-1.954.007-.011-5.153,0-10.135,0-13.8l0-3.675c0-6.262,1.838-9.693,4.163-14.035a61.754,61.754,0,0,0,4.69-10.5c3.034-9.172-.36-17.649-3.643-25.849-1.035-2.585-2.013-5.028-2.766-7.444a.978.978,0,0,1,1.867-.582c.73,2.343,1.693,4.75,2.714,7.3,3.254,8.128,6.942,17.34,3.683,27.189a63.372,63.372,0,0,1-4.822,10.812c-2.2,4.1-3.932,7.341-3.932,13.112Z" transform="translate(561.211 9605.798)" fill="#5e86e9" stroke="#d1dcf9" stroke-width="1" opacity="0.19"></path><path id="Path_161" data-name="Path 161" d="M109.625,233.125c.007.171.121,2.312.294,5.512,2.541-8.668,5.44-17.143,4.044-26.285-.179-1.167-1.968-.673-1.789.487,1.067,6.986-.594,13.664-2.548,20.285" transform="translate(573.316 9603.724)" fill="#5e86e9" stroke="#d1dcf9" stroke-width="1" opacity="0.19"></path><path id="Path_162" data-name="Path 162" d="M203.886,181.057c.861,1.568-1.468,2.492-2.423,3.144q-3.644,2.469-7.3,4.952c-1.747,1.188-3.827,3.3-6.008,3.493-.806.07-.932-1.188-.186-1.382,1.839-.482,3.571-2.127,5.131-3.183,1.583-1.072,3.175-2.15,4.759-3.229l2.22-1.506c.738-.5,2.367-1.017,1.77-2.127-.334-.614-1.832-1.312-2.406-1.731-.8-.574-1.6-1.149-2.406-1.731a.74.74,0,0,1,0-1.265,32.422,32.422,0,0,0,4.913-2.345c1.949-1.389.947-4.005.605-5.985-.6-3.454-1.35-6.877-2.142-10.285.521.233,1.032.466,1.529.691a115.675,115.675,0,0,1,2.6,12.855,3.375,3.375,0,0,1-.985,3.415,18.758,18.758,0,0,1-4.689,2.438c.839.605,1.677,1.2,2.523,1.809.753.543,2.026,1.126,2.493,1.972" transform="translate(559.337 9613.386)" stroke="#d1dcf9" stroke-width="1"></path><path id="Path_163" data-name="Path 163" d="M164.712,196.031a74.157,74.157,0,0,0-20.618-3.5c-1.777-.047-5.728.939-6.342-1.5-.341-1.351.109-3.229.194-4.6.077-1.451.163-2.9.249-4.347-2.524.737-5.543,1.467-8.05,1.04-2.678-.459-3.183-3.711-3.92-5.861-2.259-6.614-4.51-13.313-6.249-20.1.443-.156.893-.3,1.336-.443,1.646,5.294,3.175,10.635,4.921,15.9.473,1.42.948,2.84,1.437,4.253.442,1.282.753,3.338,1.747,4.309,1.117,1.079,4.051.318,5.348.1a33.265,33.265,0,0,0,4.06-.986.782.782,0,0,1,.978.745c-.094,1.67-.194,3.338-.287,5.007-.07,1.164-.66,3.827.194,4.6.823.746,3.269.318,4.386.35q2.155.047,4.3.233a75.91,75.91,0,0,1,16.728,3.322c.948.3.536,1.793-.411,1.491" transform="translate(571.457 9613.595)" stroke="#d1dcf9" stroke-width="1"></path><path id="Path_164" data-name="Path 164" d="M140.757,219.41s-.631,11.363.632,11.994,20.831,0,21.463-.631,1.263-12.626-.632-12.626-21.463,0-21.463,1.263" transform="translate(567.754 9602.563)" fill="#f1e6dc"></path><path id="Path_165" data-name="Path 165" d="M152.77,214.363s0,4.658.776,4.658h3.105v-4.658Z" transform="translate(565.569 9603.243)" fill="#ea8e23"></path><path id="Path_166" data-name="Path 166" d="M157.453,223.463c-2.678-.266-5.525.157-8.226.158a.689.689,0,0,0,0,1.377c2.712.05,5.737.313,8.4-.272.756-.167.505-1.2-.171-1.263" transform="translate(566.324 9601.625)" fill="#e5d6ca"></path><path id="Path_167" data-name="Path 167" d="M160.718,228.125q-7.124-.048-14.214.617c-.907.084-.921,1.508,0,1.431q7.094-.6,14.214-.532a.759.759,0,0,0,0-1.516" transform="translate(566.817 9600.772)" fill="#e5d6ca"></path><path id="Path_168" data-name="Path 168" d="M202.723,70.783c.632,4.175,12.07,30.3-8.3,41.423-10.834,5.913-30.454-2.088-33.822-16.47,0,0-11.157-3.359-7.438-14.886,2.735-8.474,10.485,2.46,10.485,2.46s3.115-5.77,4.985-10.51c7.893-2.061,24.277-7.116,27.76-14.755,0,0,5.5,7.246,6.333,12.739" transform="translate(565.635 9631.312)" fill="#fcb47e"></path><path id="Path_171" data-name="Path 171" d="M139.019,296.73s-4.156,37.078-10.319,35.244c0,0-83.542-24.9-87.238-45.59-6.436-36.045,29.082-91.313,46.373-108.925,4.438-4.52-5.9,94.477-5.9,94.477Z" transform="translate(585.693 9609.896)" fill="#d1dcf9"></path><path id="Path_172" data-name="Path 172" d="M77.861,283.823a1.291,1.291,0,0,1,1.823.016c3.412,3.47,8.648,3.477,17.162,7.561-.647.653-.806,1.591-1.478,2.218-8.13-3.7-14.037-4.427-17.522-7.971a1.29,1.29,0,0,1,.015-1.823" transform="translate(579.088 9590.837)" fill="#fff"></path><path id="Path_173" data-name="Path 173" d="M157.464,341.483s-5.747,20.144-11.391,19.418-4.047-12.109-1.766-20.057,13.157.639,13.157.639" transform="translate(567.463 9581.139)" fill="#1a1a1a"></path><path id="Path_174" data-name="Path 174" d="M156.388,322.163s8.108,3.474,17.236,7.18c6.734,2.735,15.127,5.916,15.55,6.274a25.52,25.52,0,0,1,4.174,5.362,121.9,121.9,0,0,0,8.469,10.978q1.9,2.156,3.9,4.211c1.067,1.094,2.874,2.106,3.536,3.5a2.362,2.362,0,0,1-.863,2.788,1.677,1.677,0,0,1-1.192.267,12.276,12.276,0,0,1-5.07-1.634c-.761-.409-1.481-.888-2.232-1.312a13.891,13.891,0,0,0-2.286-.8,3.708,3.708,0,0,0,.708,2.355,11.47,11.47,0,0,1,1.277,4.448c.224,2.939-2.343,2.15-4.053,1.059a16.416,16.416,0,0,1-3.821-3.32c-2.031-2.641-3.815-5.842-6.379-8.054a1.223,1.223,0,0,0-.6-.336c-1.126-.157.345,5.508.427,5.917a6.588,6.588,0,0,1-.277,4.183,1.608,1.608,0,0,1-.424.578c-.576.451-1.419.144-2.049-.228-1.739-1.026-2.149-2.152-3.2-3.75-1.643-2.507-2.849-6.119-5.63-7.546q-.047,2.639-.094,5.276c-.026,1.448-.33,3.473-2.269,3.14a3.08,3.08,0,0,1-1.754-1.085c-1.223-1.418-1.617-3.262-2.37-4.928a9.969,9.969,0,0,0-4.14-4.691,21.951,21.951,0,0,0-4.133-1.4c-1.2-.343-13.05-4.377-15.97-5.235,0,0,4.895-26.362,13.527-23.2" transform="translate(567.348 9583.935)" fill="#eb966b"></path><path id="Path_175" data-name="Path 175" d="M173.947,351.288a7.511,7.511,0,0,1,4.3,2.319,14.519,14.519,0,0,1,2.282,4.634,1.448,1.448,0,0,1-2.7,1.037,17,17,0,0,0-1.648-3.37c-.756-1.026-1.989-1.313-3.065-1.889-1.376-.736-.835-3.046.835-2.73" transform="translate(562.057 9578.663)" fill="#e08257"></path><path id="Path_176" data-name="Path 176" d="M187.095,348.164c3.971,1.941,5.252,6.492,6.2,10.457.377,1.576-2.329,2.235-2.778.669-.978-3.42-1.965-6.519-4.964-8.675-1.349-.969.066-3.173,1.542-2.451" transform="translate(559.78 9579.244)" fill="#e08257"></path><path id="Path_177" data-name="Path 177" d="M199.732,350.622q3.75,5.447,7.759,10.708c1.2,1.579-1.291,3.362-2.5,1.8q-4.035-5.241-7.812-10.67c-1.155-1.661,1.4-3.5,2.552-1.833" transform="translate(557.647 9578.895)" fill="#e08257"></path><path id="Path_178" data-name="Path 178" d="M363.7,274.387c-.191.714-4.683,23.228-9.922,25.653s-1.239-18.308-.043-25.639c.862-5.284,9.965-.014,9.965-.014" transform="translate(529.949 9592.885)" fill="#1a1a1a"></path><path id="Path_179" data-name="Path 179" d="M391.991,296.784a2.4,2.4,0,0,1,.9.711,6.136,6.136,0,0,0,.993.977,14.566,14.566,0,0,0,2.549,1.654,21.867,21.867,0,0,0,6.317,2.228,1.225,1.225,0,0,1,.459.176c2.454,1.48,7.582,11.453,9.54,9.9,2.381-1.893-.051-7.475-.205-7.822l-.011-.018s.054.028.152.066c.062.03.117.05.173.071.1.038.214.089.348.135l.007,0c1.419.523,4.548,1.356,4.306-1.556-.31-3.754-11.482-6.9-11.311-8.373.033-.3.386-.547.916-.765-4.366.812-10.941,2.008-15.128,2.611" transform="translate(522.615 9588.913)" fill="#eb966b"></path><path id="Path_180" data-name="Path 180" d="M360.173,260.616s.56.044,1.323.046c11.095.039,17.931,3.448,22.248,4.462,3.706.871,8.453,1.911,12.1,3.018,2.091.637,9.77,2.623,7.1,6.149a4.926,4.926,0,0,1-1.825,1.34c-4.192,1.618-7.229-.765-9.3-1.67-1.309-.572-4.819-2-5.861-.707-.268.331,3.7,5.912,7.832,6.748,0,0,6.369.357,5.08,4.229,0,0,9.923-1.844,9.9,3.086-.009,2.337-4.577,2.278-6.658,2.861-4.431.3-11.1.724-15.333.842-2.341-.308-8.368-1.021-11.171-2.985-3.26-2.284-21.778-5.993-23.206-6.375,0,0,1.863-21.857,7.766-21.044" transform="translate(529.723 9594.942)" fill="#eb966b"></path><path id="Path_181" data-name="Path 181" d="M375.433,267.978a13.158,13.158,0,0,1,3.65,3.216c1.359,1.646,2.945,5.256,5.186,5.417,4.644.333,13.714,1.949,17.588,4.894,2.549,1.937,2.239,5.072-1.239,5.629-5.757.922-14.79-2.078-20.571-1.23-.709.1-.985-1.04-.388-1.271,2.469-.957,9.514.812,12.957.771.7-.008,7.136-.117,7.7-.468,3.553-2.2-3.993-4.023-5.08-4.229-2.676-.507-9.256-1.759-11.928-2.068a3.874,3.874,0,0,1-3.26-2.283,13.617,13.617,0,0,0-2.753-4.443,18.049,18.049,0,0,0-2.54-2.115,17.161,17.161,0,0,1-2.194-1.582c-.44-.766,1-1.01,1.606-.8a7.907,7.907,0,0,1,1.262.563" transform="translate(526.118 9593.73)" fill="#e08257"></path><path id="Path_182" data-name="Path 182" d="M392.334,297.223a12.166,12.166,0,0,0,2.192,1.881c3.918-.128,7.5-.53,11.266-1,1.539-.185,1.954-2.342.383-2.181-4.7.46-9.17.481-13.841,1.3" transform="translate(522.554 9588.6)" fill="#e08257"></path><path id="Path_183" data-name="Path 183" d="M405.66,304.359c2.454,1.48,7.582,11.453,9.54,9.9,2.381-1.894-.051-7.475-.205-7.822a42.645,42.645,0,0,0-9.335-2.079" transform="translate(520.161 9587.084)" fill="#e08257"></path><path id="Path_184" data-name="Path 184" d="M280.2,258.1a112.994,112.994,0,0,0,17.108-.329c-.067-.012,6.5-.985,6.452-1.006-.33-.152-.835-1.141-1.487-2.8a95.785,95.785,0,0,1-21.941,1.327,1.406,1.406,0,0,0-.131,2.807" transform="translate(542.919 9596.133)" fill="#fff"></path><path id="Path_185" data-name="Path 185" d="M214.806,200.73c.192.665.406,1.315.643,1.966,2.01,5.7,5.351,10.938,6.3,16.954,1.2,7.656-1.67,14.167-4.161,21.211-.126.354-.251.71-.362,1.064a16.837,16.837,0,0,0,2.86,3.245c.273-.813.546-1.582.8-2.262,2.4-6.607,5.358-15.165,4.737-22.341-.614-7.08-4.22-12.653-6.518-19.2a51.289,51.289,0,0,1-1.988-7.51c-.141-.753-.267-1.522-.385-2.283a105.719,105.719,0,0,1-1.035-12.039c-.1-2.439-2.978-1.707-3.052.739a66.5,66.5,0,0,0,2.165,20.457" transform="translate(554.827 9609.767)" fill="#5e86e9" stroke="#d1dcf9" stroke-width="3" opacity="0.19"></path><path id="Path_187" data-name="Path 187" d="M502.919,329.309c-.779-2.4-16.165-23.242-19.794-26.531-2.859-2.591-4.208,1.189-7.03,3.306-1.254.941,20.124,32.9,21.939,31.9,2.38-1.313,5.434-6.986,4.886-8.673" transform="translate(507.523 9587.524)" fill="#1240b2"></path><path id="Path_188" data-name="Path 188" d="M497.331,337.476a.506.506,0,0,1-.008.107c-.057,1.729-1.63,5.671-1.63,5.671H436.711s2.457-4.915,5.734-7.373,5.734-5.734,4.1-7.372-9.831-4.915-9.831-9.011c0-3.916,2.179-18.809,3.875-21.086a.583.583,0,0,1,.221-.212c1.638-.82,24.576-2.458,27.034-.82s29.491,38.459,29.491,40.1" transform="translate(514.585 9588.463)" fill="#5e86e9"></path><path id="Path_189" data-name="Path 189" d="M497.323,337.962c-.057,1.729-1.63,5.671-1.63,5.671H436.711s2.457-4.915,5.734-7.372,5.734-5.735,4.1-7.373-9.831-4.915-9.831-9.011c0-3.916,2.179-18.809,3.875-21.086,5.792,9.683,23.207,40.47,27.3,41.838,3.8,1.27,21.693-1.625,29.434-2.666" transform="translate(514.585 9588.084)" fill="#1240b2"></path><path id="Path_190" data-name="Path 190" d="M447.194,301.666s5.734,11.469,8.192,11.469,19.846-1.236,20.07-2.049-6.143-11.059-7.782-11.059-20.48.82-20.48,1.638" transform="translate(512.703 9587.861)" fill="#eceff8"></path><path id="Path_191" data-name="Path 191" d="M466.595,319.778c-1.492-.751-3.418-.255-4.975.1-1.828.423-1.041,3.134.769,2.79,1.381-.263,2.931-.07,4.206-.684a1.287,1.287,0,0,0,0-2.21" transform="translate(510.3 9584.386)" fill="#1b53e0"></path><path id="Path_192" data-name="Path 192" d="M476.579,318.779c-1.492-.751-3.418-.255-4.975.105-1.828.423-1.041,3.134.769,2.79,1.381-.263,2.931-.07,4.206-.684a1.287,1.287,0,0,0,0-2.21" transform="translate(508.507 9584.564)" fill="#1b53e0"></path><path id="Path_193" data-name="Path 193" d="M486.564,317.781c-1.492-.751-3.418-.255-4.975.105-1.828.423-1.041,3.134.769,2.789,1.382-.263,2.931-.07,4.206-.684a1.287,1.287,0,0,0,0-2.21" transform="translate(506.714 9584.744)" fill="#1b53e0"></path><path id="Path_194" data-name="Path 194" d="M471.586,326.839c-1.5-.736-3.42-.221-4.974.155-1.824.441-1.009,3.145.8,2.781,1.378-.276,2.93-.1,4.2-.726a1.288,1.288,0,0,0-.022-2.21" transform="translate(509.401 9583.114)" fill="#1b53e0"></path><path id="Path_195" data-name="Path 195" d="M481.559,325.739c-1.5-.736-3.42-.221-4.974.155-1.824.442-1.009,3.145.8,2.781,1.378-.276,2.93-.1,4.2-.726a1.288,1.288,0,0,0-.022-2.21" transform="translate(507.61 9583.312)" fill="#1b53e0"></path><path id="Path_196" data-name="Path 196" d="M491.532,324.64c-1.5-.736-3.42-.221-4.974.155-1.823.441-1.009,3.145.8,2.781,1.378-.276,2.93-.1,4.2-.726a1.288,1.288,0,0,0-.022-2.21" transform="translate(505.819 9583.509)" fill="#1b53e0"></path><path id="Path_197" data-name="Path 197" d="M476.577,333.9c-1.507-.72-3.423-.186-4.973.206-1.819.46-.977,3.155.826,2.773,1.375-.291,2.928-.129,4.191-.77a1.287,1.287,0,0,0-.044-2.209" transform="translate(508.502 9581.843)" fill="#1b53e0"></path><path id="Path_198" data-name="Path 198" d="M486.538,332.7c-1.506-.72-3.422-.186-4.972.206-1.819.459-.977,3.155.826,2.773,1.375-.291,2.928-.129,4.191-.77a1.287,1.287,0,0,0-.045-2.209" transform="translate(506.714 9582.059)" fill="#1b53e0"></path><path id="Path_199" data-name="Path 199" d="M496.5,331.5c-1.506-.72-3.422-.186-4.971.206-1.82.459-.978,3.155.825,2.773,1.375-.291,2.928-.129,4.191-.77a1.287,1.287,0,0,0-.045-2.209" transform="translate(504.925 9582.274)" fill="#1b53e0"></path><path id="Path_200" data-name="Path 200" d="M481.568,340.962c-1.514-.706-3.425-.151-4.969.256-1.816.478-.947,3.164.852,2.765,1.373-.3,2.928-.158,4.183-.811a1.287,1.287,0,0,0-.066-2.209" transform="translate(507.604 9580.572)" fill="#ed4450"></path><path id="Path_201" data-name="Path 201" d="M491.517,339.66c-1.514-.706-3.425-.151-4.969.256-1.815.479-.946,3.165.853,2.765,1.373-.3,2.927-.158,4.183-.811a1.288,1.288,0,0,0-.067-2.209" transform="translate(505.817 9580.806)" fill="#efb44b"></path><path id="Path_202" data-name="Path 202" d="M501.467,338.358c-1.514-.706-3.425-.151-4.969.256-1.815.479-.946,3.165.853,2.765,1.373-.3,2.927-.158,4.183-.811a1.288,1.288,0,0,0-.067-2.21" transform="translate(504.03 9581.04)" fill="#009245"></path><path id="Path_203" data-name="Path 203" d="M465.407,302.521c-.5,1.377-.706,2.823-1.392,4.594a19.349,19.349,0,0,1-2.337-1.622c-1.3-1.063-3.185.746-1.879,1.879a23.457,23.457,0,0,0,4.814,3.259,1.431,1.431,0,0,0,2.125-1.219c.119-2.128.532-4.241.6-6.365.048-1.511-1.463-1.824-1.93-.525" transform="translate(510.519 9587.56)" fill="url(#linear-gradient)"></path><path id="Path_204" data-name="Path 204" d="M359.842,348.685s10.12-24.579,9.4-26.747-4.337-5.783-4.337-5.783-110.6-2.168-111.326-.723-11.567,34.7-11.567,34.7Z" transform="translate(549.545 9585.185)" fill="#eceff8"></path><path id="Path_205" data-name="Path 205" d="M247.751,355.019q-1.162.011-2.323.026l12.412-33.51a1.1,1.1,0,0,1,1.031-.708l106.989,1.446a1.084,1.084,0,1,1-.03,2.168l-106.224-1.435Z" transform="translate(548.931 9584.127)" fill="#543c56" opacity="0.12"></path><path id="Path_206" data-name="Path 206" d="M254.63,279.608c-3.083-.861-62.436-.96-62.939,1.367,0,0-2.885,20.112.93,22.547,1.788,1.14,15.691,1.764,30.055,1.707-.251,12.344-.977,24.954-.114,37.264a2.84,2.84,0,0,0,5.676,0c.864-12.329.134-24.956-.116-37.318,14.411-.233,27.8-1.177,28.213-3,.883-3.859,1.376-21.706-1.706-22.567" transform="translate(558.768 9591.629)" fill="#5e86e9"></path><path id="Path_207" data-name="Path 207" d="M204.484,284.509s0,15.537,1.48,17.017,49.57,0,50.31-1.48.739-17.016-.74-17.016-50.31-.74-51.05,1.479" transform="translate(556.283 9590.935)" fill="#fff"></path><path id="Path_208" data-name="Path 208" d="M212.25,295.027a1.409,1.409,0,0,1-.006-.446l.031-.258.014-.275c.02-.148.035-.344.043-.583l.014-.275.031-.291.057-.928a.51.51,0,0,0,.014-.19c-.012-.113-.076-.153-.19-.116a.823.823,0,0,0-.29.123l-.733.37-.052.017-.034.018a.245.245,0,0,1-.363-.15l-.2-.529-.089-.29-.053-.136-.036-.12-.073-.325a.324.324,0,0,1,.132-.362l1.7-1.463.084-.07.068-.07.051-.052.085-.069a1.362,1.362,0,0,1,.273-.124l1.1-.065a6.24,6.24,0,0,1,.755.007.289.289,0,0,1,.331.322A11.871,11.871,0,0,1,215,290.1a4.337,4.337,0,0,1,.007.549l-.013.275,0,.291.021.309.012.96-.009.635q0,.188.059,1.971l0,.258-.014.24.017,1.39-.011.394,0,.326-.013.327a5.268,5.268,0,0,1-.074.962.46.46,0,0,1-.372.382l-.925.149-.359.056-.205.037-.1.019-.068.017q-.256.073-.363-.235c-.011-.045-.03-.125-.054-.24l-.021-.24a9.623,9.623,0,0,1-.117-1.149,5.543,5.543,0,0,1-.025-.565L212.3,296Z" transform="translate(555.234 9589.956)" fill="#0d1527"></path><path id="Path_209" data-name="Path 209" d="M222.508,296.1l.651-.008.412-.023.428-.021c.057,0,.268-.016.634-.044a.378.378,0,0,1,.468.355,2.81,2.81,0,0,1,.022.411l.017,1.32.021.275,0,.274a.354.354,0,0,1-.287.364l-1.008.27-.1.019H223.7l-.085.018-.858-.04-.154,0-.171.019-.669.008c-.194,0-.417-.006-.669-.025-.126-.009-.235-.014-.327-.013a2.417,2.417,0,0,0-.395,0l-.36.022-.359.022c-.458-.017-.7-.026-.721-.025l-.412,0a1.339,1.339,0,0,1-.291.021.268.268,0,0,1-.243-.237c-.026-.251-.039-.389-.039-.412q0-.257.007-2.145a.724.724,0,0,1,.015-.171l.033-.156a.465.465,0,0,1,.22-.26l1.481-.893a2.862,2.862,0,0,0,.881-.886l.269-.415c.112-.185.19-.323.235-.415a1.712,1.712,0,0,0,0-1.406.261.261,0,0,0-.087-.137,1.325,1.325,0,0,0-.916-.451l-.085,0-.069-.016-.154,0a5.193,5.193,0,0,0-1.353.189l-.24.055a.289.289,0,0,1-.363-.236l-.019-.068-.018-.1-.018-.1-.019-.1-.057-.411-.074-.427a3.094,3.094,0,0,1-.057-.377l0-.172-.02-.188a.787.787,0,0,1-.02-.223.41.41,0,0,1,.218-.414l.136-.071.068-.019.085-.034a5.59,5.59,0,0,1,1.659-.382,1.7,1.7,0,0,0,.481-.006l.48-.024a3.425,3.425,0,0,1,1.186.174,2.891,2.891,0,0,1,1.177.774,5.5,5.5,0,0,1,.842,1.431,2.015,2.015,0,0,1,.091.427l.037.222.038.24a3.473,3.473,0,0,1-.169,1.6,7.155,7.155,0,0,1-.517,1.122l-.085.155-.1.173a5.291,5.291,0,0,1-.962,1.282l-.034.034-.051.052-.051.07-.051.07a.532.532,0,0,0,.224.065Z" transform="translate(553.944 9589.985)" fill="#0d1527"></path><path id="Path_210" data-name="Path 210" d="M230.474,290.53l-.548.025q-.274.02-.549.058l-.257,0q-.309,0-.313-.288l-.086-1.355a2.624,2.624,0,0,1-.022-.394.3.3,0,0,1,.254-.329l.77-.148.137-.036.154-.036c.148-.025.274-.049.377-.073l.633-.145a2.684,2.684,0,0,1,.531-.058l.669-.044a1.831,1.831,0,0,1,.756.06l.155.049.052.016.052.016a1.7,1.7,0,0,1,.969.64,3.977,3.977,0,0,1,.65,1.227,1.792,1.792,0,0,1,.057.428l.007.565a1.251,1.251,0,0,1-.1.586l-.333.758a.3.3,0,0,0,.091.427,2.729,2.729,0,0,1,.294.185l.191.152a2.343,2.343,0,0,1,.63,1.021,3.224,3.224,0,0,1,.1,1.337,3.722,3.722,0,0,1-.461,1.481,5.225,5.225,0,0,1-.809,1.159,2.538,2.538,0,0,1-.457.5,2.256,2.256,0,0,1-1.108.546,5.036,5.036,0,0,1-1.131.152l-.138-.016-.12,0c-.115-.021-.2-.038-.24-.048l-.121-.016-.12,0a2.505,2.505,0,0,1-.721-.025l-.361-.064-.344-.064a6.547,6.547,0,0,1-1.569-.581l-.086-.067-.087-.051a.336.336,0,0,1-.126-.427l.167-.414.216-.586q.016-.052.066-.172l.05-.1.066-.138.167-.38a.293.293,0,0,1,.41-.177l.585.147.585.165a1.883,1.883,0,0,0,.446.046l.292,0,.274.013a3.826,3.826,0,0,0,.6-.059l.29-.055.29-.072a1.281,1.281,0,0,0,.664-.437.79.79,0,0,0,.149-.413.829.829,0,0,0-.109-.479,1.252,1.252,0,0,0-1.071-.569l-.48.023-.5.04a.051.051,0,0,0-.034.018c-.252.026-.368-.093-.348-.355a2.467,2.467,0,0,0,.03-.378l-.01-.772a.243.243,0,0,1,.2-.26l.085-.035.1-.019.188-.02a1.768,1.768,0,0,0,.922-.354.528.528,0,0,0,.235-.415.556.556,0,0,0-.161-.461,1.065,1.065,0,0,0-.622-.387c-.116-.021-.212-.037-.293-.048l-.291-.013-.5.007Z" transform="translate(552.102 9590.076)" fill="#0d1527"></path><path id="Path_211" data-name="Path 211" d="M238.969,300.577l.059-.738,0-.154c-.006-.434,0-.715.007-.84a.325.325,0,0,1,.287-.364l.257-.055.256-.071c.08-.013.171-.025.274-.039l.12-.019.1-.018a2.524,2.524,0,0,1,.258-.021,1.434,1.434,0,0,1,.309,0l.275.014.274.013a.338.338,0,0,1,.331.322,4.844,4.844,0,0,1,.048,1.115c-.011.126-.025.32-.044.583l-.01.6a.405.405,0,0,1-.015.172q-.082.258-.289.227l-.532-.028-.068-.016H240.8a2.451,2.451,0,0,1-.7-.025l-.362-.047-.36-.048a.069.069,0,0,1-.052-.016h-.034a.375.375,0,0,1-.3-.356l0-.189Z" transform="translate(550.091 9588.182)" fill="#0d1527"></path><path id="Path_212" data-name="Path 212" d="M247.187,287.486a2.431,2.431,0,0,1,.962.176l.966.382a1.908,1.908,0,0,1,.8.591,3.985,3.985,0,0,1,.97,2.029l.092.547.094.548a3.991,3.991,0,0,1,.031,1.1q-.137,1.46-.264,2.182l-.1.516-.1.532a4.464,4.464,0,0,1-.834,1.812,2.025,2.025,0,0,1-.917.715l-.137.053-.1.053c-.1.048-.188.082-.257.107a2.953,2.953,0,0,1-1.336.136,7.011,7.011,0,0,1-1.912-.593,2.337,2.337,0,0,1-1.029-1.377,8.091,8.091,0,0,1-.292-1.351c-.013-.114-.021-.348-.026-.7l0-.206-.02-.205q-.006-.549.068-1.408l.06-.652.061-.653q.075-.841.155-1.305a4.317,4.317,0,0,1,.766-1.777,3.659,3.659,0,0,1,1.053-.871,2.726,2.726,0,0,1,1.025-.355l.12-.019Zm-.957,7.029.02.188.019.154a.718.718,0,0,1,0,.309.9.9,0,0,0,.214.632l.07.085.053.086a.688.688,0,0,0,.827.281A1.532,1.532,0,0,0,248.5,295a7.95,7.95,0,0,0,.135-1.512l-.011-.874a4.429,4.429,0,0,0-.1-.754l-.038-.257-.038-.24c-.012-.08-.025-.171-.038-.274l-.019-.121-.018-.1a1.113,1.113,0,0,0-.335-.646.528.528,0,0,0-.379-.167.462.462,0,0,0-.41.126,1.946,1.946,0,0,0-.271.295,3.242,3.242,0,0,0-.45,1.07q-.109.774-.189,1.34Z" transform="translate(549.228 9590.113)" fill="#0d1527"></path><path id="Path_213" data-name="Path 213" d="M257.368,287.357a2.431,2.431,0,0,1,.962.176l.966.382a1.908,1.908,0,0,1,.8.591,3.985,3.985,0,0,1,.97,2.029l.092.547.094.548a3.99,3.99,0,0,1,.031,1.1q-.137,1.46-.264,2.182l-.1.516-.1.533a4.462,4.462,0,0,1-.834,1.813,2.03,2.03,0,0,1-.917.715l-.137.053-.1.052c-.1.048-.188.083-.257.107a2.954,2.954,0,0,1-1.336.136,7.011,7.011,0,0,1-1.912-.593,2.338,2.338,0,0,1-1.029-1.376,8.113,8.113,0,0,1-.292-1.352c-.013-.114-.021-.348-.026-.7l0-.206-.02-.205q-.006-.549.068-1.408l.06-.652.061-.652q.075-.842.155-1.306a4.318,4.318,0,0,1,.766-1.777,3.66,3.66,0,0,1,1.053-.871,2.742,2.742,0,0,1,1.025-.355l.12-.019Zm-.957,7.029.02.188.019.154a.706.706,0,0,1,0,.309.905.905,0,0,0,.213.632l.071.085.052.086a.688.688,0,0,0,.827.281,1.532,1.532,0,0,0,1.065-1.249,7.945,7.945,0,0,0,.135-1.512l-.011-.874a4.431,4.431,0,0,0-.1-.754l-.038-.257-.038-.24c-.012-.08-.025-.171-.038-.274l-.019-.121-.018-.1a1.117,1.117,0,0,0-.334-.647.53.53,0,0,0-.38-.167.462.462,0,0,0-.41.126,1.943,1.943,0,0,0-.271.295,3.249,3.249,0,0,0-.45,1.07q-.11.774-.189,1.34Z" transform="translate(547.4 9590.137)" fill="#0d1527"></path><path id="Path_214" data-name="Path 214" d="M137.938,354.952s-1.989-9.481-.436-10.257,235.208-2.328,236.76.776.776,11.645.776,11.645Z" transform="translate(568.417 9580.035)" fill="#494f5d"></path><rect id="Rectangle_774" data-name="Rectangle 774" width="132.933" height="30.964" transform="translate(604.783 9957.806)" fill="#1b53e0"></rect><path id="Path_215" data-name="Path 215" d="M686.925,416.21l-.021-30.964H155.573V416.21Z" transform="translate(565.066 9572.56)" fill="#5e86e9"></path><path id="Path_216" data-name="Path 216" d="M666.559,381.971s-658.885,0-661.777-.723S4.059,353.7,4.059,353.7s661.777-2.168,662.5.723,0,27.551,0,27.551" transform="translate(592.411 9578.365)" fill="#1240b2"></path><path id="Path_217" data-name="Path 217" d="M699.806,405.383c.01-2.906,0-5.789-.057-8.62-.2-10.041-.789-19.6-1.663-28.538a308.043,308.043,0,0,0-7.158-43.278H594.282c-5.926,27.436-12.167,55.31-17.436,80.436Z" transform="translate(489.423 9583.387)" fill="#d1dcf9"></path><path id="Path_219" data-name="Path 219" d="M703.312,377.967c-7.324-6.018-13.221-12.756-17.1-21.487-.73-1.642-3.118-.219-2.409,1.408,3.818,8.76,9.864,16.86,17.866,22.213,1.264.847,2.845-1.148,1.646-2.133" transform="translate(470.242 9577.856)" stroke="#d1dcf9" stroke-width="2"></path><path id="Path_220" data-name="Path 220" d="M618.966,158.231l-13.5,99.486-27,44.059s-9.949,2.132-15.634,0-3.553-8.529-14.213-7.107-24.871,1.422-36.241-9.239,3.148-28.686,3.148-28.686,3.248-4.712,8.222-4.712,27.714,2.132,30.557,2.132-2.843-7.106-.711-10.659,6.4-4.974,7.107-11.37c.653-5.862,5.479-30.464,9.565-41.464.32-.881.646-1.656.959-2.316.043-.093.093-.185.135-.277,4.264-8.528,21.318-24.161,26.293-28.425s21.318-1.421,21.318-1.421" transform="translate(501.781 9613.488)" fill="#1240b2"></path><path id="Path_221" data-name="Path 221" d="M479.294,264.536S453.156,251.3,452.16,250.061s-.451-2.083-.451-2.083,19.294-4.911,21.528-4.668S506.85,258.3,507.525,260.6s-12.383,9.956-14.618,9.713-13.613-5.773-13.613-5.773" transform="translate(511.919 9598.047)" fill="#333"></path><path id="Path_222" data-name="Path 222" d="M505.261,258.1c-8.206-4.473-16.579-8.674-25.143-12.412-4.228-1.845-7.181-2.567-11.719-1.62-5.585,1.165-11.2,2.288-16.731,3.7a1.172,1.172,0,0,0,.5,2.29c4.964-.787,9.887-1.85,14.816-2.828,2.047-.406,4.351-1.165,6.46-.927,2.389.27,4.84,1.641,7,2.607,8.5,3.791,16.8,8,24.955,12.477-.063-1.094-.107-2.189-.139-3.285" transform="translate(512.059 9597.983)" fill="#1a1a1a"></path><path id="Path_223" data-name="Path 223" d="M511.441,294.23s3.221,12.893,11.5,16.011,13.621-14.986,13.744-17.807-25.239,1.8-25.239,1.8" transform="translate(501.167 9589.389)" fill="#1a1a1a"></path><path id="Path_224" data-name="Path 224" d="M515.084,270.346c.71-2.353,1.541-5.657-.627-7.068-.329-.215-.73-.3-1.056-.523-1.311-.893-.3-2.625-.966-3.756-.675-1.152-2.15-.986-3.138-.446A4.576,4.576,0,0,0,507.393,261c-1.1,2.323-1.153,4.069-2.459,6.288a5.789,5.789,0,0,1-2.23,2.355c-1.463.668-1.313-1.362-1.355-2.286-.145-3.16.144-6.319.135-9.479,0-1.627.041-5.878-2.552-5.622a2.057,2.057,0,0,0-1.5,1.093,5.723,5.723,0,0,0-.559,1.84c-.8,4.493-1.163,9.2-3.35,13.2a1.449,1.449,0,0,1-.519.617c-.532.287-1.158-.137-1.6-.552a28.254,28.254,0,0,1-3.919-4.926c-1.092-1.639-1.859-3.34-3.651-4.369-.763-.438-3.123-1.241-3.443.151-.25,1.083.551,2.367.969,3.317.512,1.165,1.06,2.314,1.588,3.472.691,1.52,1.382,3.039,2.108,4.543q.564,1.167,1.157,2.318c.967,1.885,1.845,3.7,3.933,4.615a5.992,5.992,0,0,1,2.077,1.075,5.359,5.359,0,0,1,.6.863,5.848,5.848,0,0,0,1.7,1.917c.587.378,1.234.65,1.853.972a9.863,9.863,0,0,1,3.484,2.855c.878,1.2,2.451,1.9,3.733,2.62a33.422,33.422,0,0,0,9.515,3.807c11.593,2.424,16.922-2.572,17.783-4.415,1.6-3.425-.121-8.688-2.388-11.34a13.027,13.027,0,0,0-6.173-3.792c-.628-.2-7.356-1.425-7.245-1.8" transform="translate(506.751 9596.441)" fill="#a34b22"></path><path id="Path_225" data-name="Path 225" d="M519.024,275.687c-1.311,2.533-1.946,5.359-3.383,7.847-1.947,3.37-4.48,3.251-7.877,3.566-.867.08-.871,1.254-.3,1.675,2.767,2.054,6.968-1.019,9.086-3.339a15.753,15.753,0,0,0,4.389-9.13c.094-.993-1.427-1.551-1.91-.619" transform="translate(501.952 9592.317)" fill="#933b16"></path><path id="Path_226" data-name="Path 226" d="M517.97,265.612c-1.4,1.885-1.3,4.573-2.113,6.725a19.846,19.846,0,0,1-4.819,7.05.608.608,0,0,0,.822.9,16.829,16.829,0,0,0,4.728-6.194,18.162,18.162,0,0,0,1.24-3.676,12.44,12.44,0,0,1,1.184-4.131.62.62,0,0,0-1.041-.67" transform="translate(501.274 9594.089)" fill="#933b16"></path><path id="Path_227" data-name="Path 227" d="M505.361,272.393a23.146,23.146,0,0,0,.343,4.092.566.566,0,0,0,1.113-.089,11.425,11.425,0,0,0-.279-4.259c-.149-.78-1.25-.5-1.177.255" transform="translate(502.259 9592.953)" fill="#933b16"></path><path id="Path_230" data-name="Path 230" d="M598.557,181.422s1.421,14.923-4.264,27-9.238,18.476-7.106,25.582,9.949,25.582,9.238,34.82-8.528,17.055-9.949,22.739,6.4,16.344,6.4,16.344,32.688,5.685,64.666.71,36.506-7.506,36.506-7.506a45.006,45.006,0,0,0,2.328-14.749c-.061-3.283-2.441-12.752-2.328-17.078.423-16.3.2-30.614,6.986-55.891,8.539-31.827-12.42-42.694-12.42-42.694l-11.527-4.949Z" transform="translate(487.725 9611.971)" fill="#1240b2"></path><path id="Path_232" data-name="Path 232" d="M614.309,171.094s-4.188-19.543.7-28.617,16.053-13.959,20.938-15.355,35.6-3.49,47.462-.7,3.49,11.168,6.282,15.355,9.073,8.376,9.073,13.959-8.376,17.449-8.376,17.449-62.816,21.637-68.4,17.449-7.678-19.543-7.678-19.543" transform="translate(482.996 9619.28)" fill="#1240b2"></path><path id="Path_233" data-name="Path 233" d="M621.421,153.482s1.445-17.048,11.914-19.143,9.771,13.96,9.771,13.96Z" transform="translate(481.419 9617.646)" fill="#0d308a"></path><path id="Path_234" data-name="Path 234" d="M684.429,127.412s10.416,2.982,6.98,6.98-17.844,7.686-22.562,10.992-15.539-10.543-15.539-10.543L657,122.773Z" transform="translate(475.694 9619.688)" fill="#0d308a"></path><path id="Path_235" data-name="Path 235" d="M656.3,93.405s8.242-22.575,28.173-12.02S686.81,110.7,686.81,110.7s6.522,8.963-3.15,15.441-27.7-5.688-27.7-5.688a259.98,259.98,0,0,0,.336-27.049" transform="translate(475.217 9627.625)" fill="#0d1527"></path><path id="Path_236" data-name="Path 236" d="M656.446,91.359a.993.993,0,0,0,.086.5c.14.355.471.543.9.125.81.062,1.072.028,1.949-1.713.555-1.1,1.366-2.668,2.448-4.406a35.991,35.991,0,0,1,5.014-6.463l.125-.117q.327-.324.676-.646c5.121-4.7,10.962-5.784,17.378-3.45a1,1,0,1,0,.716-1.864c-8.186-2.978-14.42-.488-18.991,3.5a34.251,34.251,0,0,0-6.356,7.741c-1.037,1.67-1.853,3.219-2.473,4.425l-.057.1c-.127.257-.245.5-.361.722-.185.368-.389.77-.533,1.046a.027.027,0,0,0-.01.021c-.056.1-.1.18-.132.234-.221.18-.354-.058-.376.241" transform="translate(475.131 9628.804)" fill="#3a1714"></path><path id="Path_237" data-name="Path 237" d="M617.716,89.337s-20.287-2.255-25.243-12.09c-4.979-9.882.185-15.327,8.178-20.986,3.993-4.908,16.71-16,33.828-10.8,20.043,6.088,24.992,26.923,17.357,55.857-2.583,9.788-34.119-11.979-34.119-11.979" transform="translate(486.969 9633.814)" fill="#0d1527"></path><path id="Path_238" data-name="Path 238" d="M624.261,115.222c1.405,6.013,8.078,16.452,6.582,20.061a.942.942,0,0,1-.085.144,36.6,36.6,0,0,1-3.721,4.935c-.512.57-4.8,4.042-5.371,4.576-2.259,7.249-1.114,17.5,1.857,23.606,2.229,4.582,8.214,3.563,13.5-2.132,9.237-9.949,19.308-20.275,23.615-23.5a33.667,33.667,0,0,1,4.431-2.859c-2.983-2.877-5.832-6.011-7-8.327-3.535-7.019-5.862-21.969-7.076-31.759-8.923,4.355-18.3,7.652-27.6,11.114.214,1.2.5,2.566.862,4.135" transform="translate(481.589 9623.782)" fill="#a34b22"></path><path id="Path_239" data-name="Path 239" d="M631.644,135.867a.825.825,0,0,1-.08.147c23.319-5.967,15.788-32.776,15.788-32.776l-22.409,11.7c1.405,6.011,8.195,17.32,6.7,20.925" transform="translate(480.787 9623.196)" fill="#1a1a1a"></path><path id="Path_240" data-name="Path 240" d="M598.714,94.89c1.21,4.014,4.674,34.158,23.036,34.186,9.136.015,20.421-8.413,24.183-18.821,1.254-3.47.806-4.362,1.706-8.48,0,0,9.25-2.224,5.06-12.126-2.053-4.849-7.39-6-9.6-2.811a19.181,19.181,0,0,0-2.553,6.118A30.873,30.873,0,0,1,632.7,84a2.607,2.607,0,0,0-2.674-1.238c-8.643,1.435-25.179,3.035-31.082-1.979,0,0-1.823,8.822-.231,14.1" transform="translate(485.614 9627.228)" fill="#a34b22"></path><path id="Path_245" data-name="Path 245" d="M622.1,204.234c-.479-4.719-1.715-9.648.4-14.14.637-1.351-1.25-2.514-2.033-1.188-1.9,3.214-1.945,6.78-1.591,10.411.464,4.752.961,9.463,1.032,14.244a118.911,118.911,0,0,1-3.54,30.042,1.345,1.345,0,0,0,2.591.714,116.37,116.37,0,0,0,3.672-26.751,110.771,110.771,0,0,0-.533-13.332" transform="translate(482.335 9607.919)" fill="#5e86e9"></path><path id="Path_246" data-name="Path 246" d="M638.3,210.768c-1.214-6.272-4.918-13.2-.853-19.177.9-1.32-1.208-2.5-2.119-1.239-3.311,4.58-2.5,10.058-1.13,15.2,2.043,7.687,2.788,14.937,1.187,22.8-.344,1.69,2.224,2.42,2.6.717a44.806,44.806,0,0,0,.313-18.3" transform="translate(479.339 9607.651)" fill="#5e86e9"></path><path id="Path_247" data-name="Path 247" d="M665.837,304.82c-.252-2.861-2.835-4.286-4.717-6.122-4.967-4.846-8.437-10.964-11.6-17.076-1.043-2.017-1.908-5.708-4.745-5.433-1.682.163-3.39.721-5.051,1.043q-2.935.568-5.892,1.018-6.179.939-12.425,1.341-2.983.195-5.974.268a42.573,42.573,0,0,0-5.645.1,3.349,3.349,0,0,0-2.575,2.042c-1.11,2.031-2.068,4.165-3.1,6.238q-3.1,6.238-6.169,12.49c-.379.772.766,1.456,1.162.681q2.459-4.824,4.9-9.656l2.262-4.49a31.847,31.847,0,0,1,2.382-4.718c1.2-1.606,3.889-1.092,5.659-1.122q2.615-.046,5.229-.183,5.225-.276,10.423-.92,4.739-.587,9.436-1.467c1.585-.3,3.514-1.049,5.124-1.061,1.946-.015,2.475,2.281,3.221,3.735a83.431,83.431,0,0,0,9.067,14.7,41.114,41.114,0,0,0,3.45,3.77,40.132,40.132,0,0,1,3.245,2.958c1.28,1.538.791,4.1.671,5.959-.14,2.188-.384,4.366-.707,6.535-.144.966,1.333,1.385,1.478.41.532-3.555,1.2-7.448.887-11.046" transform="translate(485.647 9592.145)" fill="#fff" stroke="#1240b2" stroke-width="1"></path><path id="Path_251" data-name="Path 251" d="M823.5,212.911c-16.248-7.953-25.611-25.117-41.962-32.862-.682-.323-1.267.833-.595,1.189,16,8.483,25.641,25.316,42.053,33.123.9.427,1.377-1.021.5-1.45" transform="translate(452.829 9609.415)" fill="#1240b2"></path><path id="Path_252" data-name="Path 252" d="M810.685,224.007a120.3,120.3,0,0,1-15.47-20.406c-2.088-3.509-3.91-7.14-5.7-10.808a35.184,35.184,0,0,0-6.224-9.548c-.6-.608-1.593.26-1,.879,2.826,2.917,4.581,6.587,6.31,10.211a123.416,123.416,0,0,0,5.968,11.122,111.818,111.818,0,0,0,15,19.53c.658.681,1.763-.277,1.11-.98" transform="translate(452.566 9608.867)" fill="#1240b2"></path><path id="Path_253" data-name="Path 253" d="M879.454,320.895c-.432,1.549-22.584,13.468-27.17,14.851a1.755,1.755,0,0,1-.743.122c-1.673-.463-17.178-6.912-17.178-6.912L810.1,217.429l.762-.148s10.8,2.627,14.459,1.117c3.512-1.449,15.024-3.013,16.878-1.913a.525.525,0,0,1,.179.147c1.061,1.374,37.542,102.591,37.079,104.263" transform="translate(447.541 9602.929)" fill="#1b53e0"></path><path id="Path_254" data-name="Path 254" d="M852.285,335.745a1.764,1.764,0,0,1-.743.123c-1.673-.463-17.179-6.912-17.179-6.912L810.1,217.429l.762-.149s10.8,2.628,14.459,1.117c3.512-1.448,15.024-3.013,16.877-1.912-4.3,1.3-14.166,4.323-15.824,5.266-2.135,1.211-10.677,6.052-12.052,7.112-1.25.966,31.969,90.483,37.966,106.882" transform="translate(447.541 9602.929)" fill="#1240b2"></path><g id="Group_870" data-name="Group 870" transform="translate(1276.967 9829.014)"><g id="Group_869" data-name="Group 869"><g id="Group_868" data-name="Group 868" clip-path="url(#clip-path)"><path id="Path_255" data-name="Path 255" d="M883.016,321.318c-3.287-.887-6.582-1.741-9.875-2.609-1.606-.423-3.6-.666-4.564-2.2a24.543,24.543,0,0,1-1.763-4.375l-7.7-20.164q-7.7-20.163-15.413-40.322-4.407-11.517-8.849-23.019c-.3-.773-1.44-.194-1.15.574q15.909,42.2,32.02,84.332c1.106,2.9,1.789,5.157,4.973,6.106,3.9,1.161,7.88,2.108,11.816,3.123.949.245,1.462-1.19.5-1.449" transform="translate(-833.656 -228.267)" fill="#fff" stroke="#1b53e0" stroke-width="1"></path></g></g></g><g id="Group_873" data-name="Group 873" transform="translate(1302.309 9917.947)"><g id="Group_872" data-name="Group 872"><g id="Group_871" data-name="Group 871" clip-path="url(#clip-path-2)"><path id="Path_256" data-name="Path 256" d="M871.314,337.1q-1.943,4.2-3.744,8.469c-1.064,2.532-2.68,5.373-3.021,8.108a.553.553,0,0,0,1,.347c1.575-2.278,2.319-5.422,3.387-7.979q1.782-4.272,3.722-8.477c.384-.835-.965-1.293-1.346-.468" transform="translate(-864.544 -336.665)" fill="#fff" stroke="#1b53e0" stroke-width="1"></path></g></g></g><path id="Path_257" data-name="Path 257" d="M780.893,194.982c-.114-.889-1.413-.6-1.345.264a66.26,66.26,0,0,0,3.948,18.2c.293.769,1.621.327,1.382-.471a111.71,111.71,0,0,1-3.986-17.995" transform="translate(453.027 9606.82)" fill="#eceff8"></path><path id="Path_258" data-name="Path 258" d="M828.761,331.963l-38.307,7.519-1.3.256a5.89,5.89,0,0,1-1.638-.248c-8.069-1.9-41.515-13.66-42.606-15.59-1.21-2.136-1.532-40.045-1.532-40.045l17.046-67.637s10.287-1.956,20.145-3.844c.6-.111,1.213-.23,1.808-.339,7.992-1.522,15.259-2.908,15.922-3.038,1.524-.3,30.466,122.965,30.466,122.965" transform="translate(459.522 9604.206)" fill="#eceff8"></path><path id="Path_259" data-name="Path 259" d="M755.8,206.855a24.9,24.9,0,0,0-12.243-7.39,51.568,51.568,0,0,0-6.911-1.533c-.584-.086-1.169-.156-1.754-.225a6.575,6.575,0,0,0-1.272-.176,11.917,11.917,0,0,0-3.231.842,11.251,11.251,0,0,0-2.874,1.387,11.758,11.758,0,0,0-2.178,2.322,11.255,11.255,0,0,1-2.292-4.686c-.521-1.67-.932-3.383-1.606-5-2.305-5.528-4.935-5.91-10.407-5.97a32.027,32.027,0,0,0-15.565,3.832,11.237,11.237,0,0,0-4.594,3.977c-1.326,2.31-1.18,5.161-.8,7.8,1.461,10.238,5.765,19.893,7.388,30.108,1.387,8.733.781,17.651,1.386,26.473s1.048,16.982,6.8,23.7c2.327,2.72,1.446,4.631,4.658,6.21,4.169,2.049,14.309,4.286,18.876,3.437,6.273-1.166,11.561-5.179,13.564-11.178,2.116-6.336,2.084-13.267,4.961-19.373,2.1-4.463,5.716-8.241,6.908-13.028.642-2.575.532-5.268.749-7.913a31.9,31.9,0,0,1,3-11.092,26.255,26.255,0,0,0,2.322-5.476,14.5,14.5,0,0,0,.143-4.533,21.957,21.957,0,0,0-5.017-12.513" transform="translate(469.14 9608.26)" fill="#1240b2"></path><path id="Path_261" data-name="Path 261" d="M833.138,335.315c-5.892-3.552-12.1-6.766-17.641-10.867-3.283-2.431-4.782-5.478-5.613-9.417-.756-3.583-1.4-7.193-2.077-10.791q-4.17-22.11-7.794-44.319-2.05-12.524-3.914-25.079c-.125-.847-1.425-.588-1.3.256q3.346,23.224,7.34,46.348,1.969,11.369,4.1,22.711c.721,3.836,1.391,7.692,2.218,11.507a19.321,19.321,0,0,0,2.065,5.708.61.61,0,0,0-.331.276c-3.333,5.678-6.824,11.936-8.489,18.343a.613.613,0,0,0,1.158.4c1.391-2.909,2.459-5.969,3.81-8.9,1.408-3.053,2.963-6.034,4.628-8.954a11.464,11.464,0,0,0,1.027,1.211c2.57,2.591,5.943,4.438,9.025,6.34,3.607,2.227,7.255,4.4,10.954,6.477.839.469,1.682-.747.842-1.254" transform="translate(450.29 9599.659)" stroke="#eceff8" stroke-width="1"></path><path id="Path_262" data-name="Path 262" d="M764.368,223.86a15.477,15.477,0,0,1-7.01-1.987c-6.474-3.369-12.11-9.921-12.785-10.72a.881.881,0,0,1-.07-.086s8.221-6.614,13.655-3.508a18.312,18.312,0,0,1,3.4,2.671c5.147,4.929,10.37,13.631,2.81,13.631" transform="translate(459.319 9604.614)" fill="#1a1a1a"></path><path id="Path_263" data-name="Path 263" d="M779.843,173.29q-.489,5.076-.971,10.146a6.151,6.151,0,0,1-.753,2.826,5.442,5.442,0,0,1-2.562,1.809,27.408,27.408,0,0,1-5.115,1.622c-1.754.381-3.64.621-5.053,1.739a8.735,8.735,0,0,0-2.321,3.392,40.337,40.337,0,0,0-2.174,6.063c-.046.162-.131.45-.263.846-.746,2.251-2.74,7.879-4.2,11.644-6.474-3.369-12.11-9.921-12.785-10.72a.855.855,0,0,1-.07-.085c-1.615-2.1-3.819-5.317-4.2-6.614-.512-1.739,4.518-13.406,7.429-18.732s11.915-11.83,11.915-11.83-3.8-3.206-1.661-4.417,5.947-1.956,6.855-1.35,2.74,1.839,2.74,1.839a8.885,8.885,0,0,1,3.648.109,2.917,2.917,0,0,1,2.391,2.391,2.684,2.684,0,0,1,2.538,2.561,3.932,3.932,0,0,0,.039,1.281c.249.683,1.049.947,1.739,1.157a4.154,4.154,0,0,1,2.538,1.615,4.512,4.512,0,0,1,.294,2.709" transform="translate(460.246 9613.109)" fill="#a34b22"></path><path id="Path_264" data-name="Path 264" d="M779.164,183.238a19.711,19.711,0,0,0-17.351.032c-1.657.79-.395,3.316,1.273,2.552,4.948-2.269,11.637-2.787,16.524-.459,1.757.838,1.261-1.282-.446-2.124" transform="translate(456.351 9609.19)" fill="#933b16"></path><path id="Path_265" data-name="Path 265" d="M771.657,179.041c-.38-.825-1.569-.2-1.249.623,3.8,9.786,3.154,20.413,6.229,30.355.283.916,1.748.661,1.488-.292-2.744-10.04-2.071-21.117-6.468-30.685" transform="translate(454.677 9609.655)" fill="#eceff8"></path><path id="Path_266" data-name="Path 266" d="M782.057,188.224a31.1,31.1,0,0,0-2.648-7.233c-.752-1.4-1.629-3.234-3.4-3.367-.7-.052-.967,1.043-.256,1.231,1.945.514,3.068,4.235,3.689,5.922a42.925,42.925,0,0,1,1.771,6.766c.921,4.815,1.874,12,3.417,16.681.3.916,1.794.651,1.5-.295-1.777-5.692-2.634-13.935-4.069-19.705" transform="translate(453.784 9609.84)" fill="#eceff8"></path><path id="Path_267" data-name="Path 267" d="M801.658,205.546c-1.62-2.911-3.811-5.581-5.567-8.43-1.7-2.76-3.373-5.541-5.24-8.194-3.253-4.622-7.145-8.807-12.275-11.326-.687-.337-1.279.837-.6,1.205,5.1,2.776,8.967,7.071,12.206,11.824,1.8,2.639,3.415,5.394,5.1,8.105,1.558,2.509,3.138,5.508,5.307,7.538.5.47,1.458-.03,1.072-.723" transform="translate(453.363 9609.855)" fill="#eceff8"></path><path id="Path_268" data-name="Path 268" d="M779.679,176.611c-.907-.962-1.944-2.6-3.245-3.072-1.176-.425-2.411.255-3.457.713a6.669,6.669,0,0,1-3.25.967c-1.255-.126-1.237-.861-2.123-1.387a2.608,2.608,0,0,0-2.806.231c-.771.469-1.475,1.631-2.608,1.249-1.222-.413-.866-1.515-1.356-2.3-.469-.748-1.693-.668-1.979-1.341-.66-1.554,2.679-4.161,3.673-4.956a28.086,28.086,0,0,1,4.986-3.074.7.7,0,0,0-.623-1.247c-3.337,1.331-7.5,3.854-9.1,7.232-.51,1.077-.96,2.817-.015,3.777.546.555.692.105,1.3.4s.63,1.221.993,1.784a3.164,3.164,0,0,0,3.024,1.387,4.756,4.756,0,0,0,1.769-.9c.695-.412,1.338-.971,2.179-.535.173.09.582.583.7.665a4.579,4.579,0,0,0,3.9.346c1.113-.329,2.1-1.091,3.231-1.34,1.524-.337,2.972,1.02,3.925,2.031.71.755,1.6.121.889-.638" transform="translate(457.035 9612.584)" fill="#933b16"></path><path id="Path_270" data-name="Path 270" d="M714.867,296.4c-4.911-1.053-7.5-3.518-10.521-7.1-5.52-6.553-9.266-16.806-10.475-25.543-1-7.2.153-14.381.341-21.588.208-8.011-1.935-13.13-3.548-20.893-.354-1.7-3.056-1.506-2.741.257,1.6,8.963,3.6,14.949,3.063,24.137-.445,7.583-1.127,14.994.57,22.484,1.864,8.229,5.875,18.241,11.486,24.493,2.981,3.324,7.493,6.092,11.572,5.805,1.7-.119,1.936-1.691.254-2.052" transform="translate(469.483 9602.213)" fill="#fff" stroke="#1240b2" stroke-width="2"></path><path id="Path_273" data-name="Path 273" d="M443.269,182.588c-2.008,27.557-41.208,33.233-57,13.772-15.942-19.645,5.373-57.973,30.964-51.555,3.537.887,5.23-4.494,1.671-5.447-30.565-8.186-56.232,34.78-38.773,59.451,17.279,24.418,70.805,19.61,69.126-16.05-.18-3.819-5.7-4.058-5.987-.171" transform="translate(525.763 9616.895)" fill="#fff"></path><path id="Path_274" data-name="Path 274" d="M417.133,178.743c-2.047-1.574-8.268-21.02-8.268-21.02L393.74,168.756s12.608,26.127,16.465,27.465,14.722-.08,14.722-.08,34.637-45.034,32.353-48.419-12.755-13.068-12.755-13.068-25.347,45.663-27.394,44.089" transform="translate(522.301 9617.556)" fill="url(#linear-gradient)"></path></g></svg>