<svg xmlns="http://www.w3.org/2000/svg" id="mobile-payments" width="80" height="80" viewBox="0 0 80 80"><g id="Ellipse_31" data-name="Ellipse 31" fill="#fff" stroke="rgba(13,21,39,0.15)" stroke-width="1"><circle cx="40" cy="40" r="40" stroke="none"></circle><circle cx="40" cy="40" r="39.5" fill="none"></circle></g><g id="Keyed_Payments_icon" data-name="Keyed Payments icon" transform="translate(-958.168 -439.687)"><path id="rect17113-0-4-7" d="M988.874,458A3.881,3.881,0,0,0,985,461.873V497.5a3.881,3.881,0,0,0,3.873,3.873h18.589a3.881,3.881,0,0,0,3.873-3.873V461.873a3.881,3.881,0,0,0-3.873-3.873Z" fill="#1b53e0"></path><path id="rect17373-8-1-2" d="M991.569,462A2.51,2.51,0,0,0,989,464.419v33.873a2.51,2.51,0,0,0,2.568,2.419h17.123a2.51,2.51,0,0,0,2.568-2.419V464.419a2.51,2.51,0,0,0-2.568-2.419h-3.425a.832.832,0,0,0-.856.806v.806a.813.813,0,0,1-.856.807h-6.849a.813.813,0,0,1-.856-.807v-.806c0-.575-.333-.806-.856-.806Z" transform="translate(-1.963 -1.669)" fill="#d1dcf9"></path><rect id="Rectangle_782" data-name="Rectangle 782" width="14.252" height="4.337" rx="2.169" transform="translate(990.888 488.982)" fill="#1240b2"></rect><line id="Line_18" data-name="Line 18" x2="11.773" transform="translate(992.437 470.083)" fill="none" stroke="#5e86e9" stroke-width="2"></line><line id="Line_19" data-name="Line 19" x2="6.816" transform="translate(994.915 472.561)" fill="none" stroke="#5e86e9" stroke-width="2"></line></g></svg>