<svg xmlns="http://www.w3.org/2000/svg" xmlns:xlink="http://www.w3.org/1999/xlink" id="open-your-merchant-account-today" width="640" height="455.469" viewBox="0 0 640 455.469"><defs><clipPath id="clip-path"><rect id="Rectangle_826" data-name="Rectangle 826" width="640" height="455.469" fill="none"></rect></clipPath><linearGradient id="linear-gradient" x1="0.5" x2="0.5" y2="1" gradientUnits="objectBoundingBox"><stop offset="0" stop-color="#9bc63c"></stop><stop offset="1" stop-color="#349044"></stop></linearGradient></defs><g id="Group_6575" data-name="Group 6575" clip-path="url(#clip-path)"><path id="Path_300" data-name="Path 300" d="M640,169.948c0,8.782-143.269,15.9-320,15.9s-320-7.12-320-15.9,143.269-15.9,320-15.9,320,7.12,320,15.9" transform="translate(0 269.619)" fill="#eceff8" opacity="0.22"></path><path id="Path_303" data-name="Path 303" d="M81.2,47.024l-1.474-.041c.019-.751.055-1.5.107-2.241l1.471.1c-.05.723-.085,1.452-.1,2.181" transform="translate(139.539 78.308)" fill="#3f5a9f"></path><path id="Path_304" data-name="Path 304" d="M181.417,65.864c-.4-1.436-.866-2.869-1.389-4.26l1.383-.52c.536,1.433,1.018,2.907,1.427,4.384Zm-100,5.712-1.458-.231c.239-1.513.55-3.031.924-4.519l1.433.36c-.363,1.444-.666,2.921-.9,4.389m96.858-14.1c-.644-1.339-1.353-2.671-2.112-3.949l1.268-.754c.781,1.317,1.513,2.684,2.175,4.065Zm-94.677,5.41L82.2,62.407c.5-1.447,1.075-2.888,1.7-4.285l1.345.6c-.608,1.361-1.166,2.761-1.653,4.167m90.112-13.108c-.866-1.207-1.8-2.393-2.769-3.523l1.117-.963c1,1.163,1.961,2.382,2.852,3.625ZM87.26,54.72,85.97,54c.748-1.337,1.562-2.657,2.42-3.925l1.221.828c-.836,1.232-1.625,2.516-2.351,3.817M167.867,43c-1.067-1.042-2.192-2.046-3.342-2.99l.935-1.141c1.183.968,2.34,2,3.435,3.072Zm-75.58,4.31-1.147-.93c.968-1.188,2-2.349,3.064-3.446l1.059,1.026c-1.037,1.07-2.038,2.2-2.976,3.35m68.649-9.983c-1.229-.842-2.511-1.636-3.809-2.365l.723-1.284c1.334.748,2.654,1.565,3.919,2.431ZM98.519,40.878l-.965-1.117c1.161-1,2.376-1.966,3.614-2.863l.864,1.2c-1.2.872-2.384,1.807-3.512,2.783m54.609-7.945c-1.356-.613-2.756-1.174-4.161-1.667l.49-1.392c1.444.506,2.885,1.084,4.279,1.716Zm-47.354,2.7-.759-1.268c1.317-.784,2.681-1.518,4.059-2.186l.641,1.331c-1.337.646-2.665,1.361-3.941,2.123m38.9-5.66c-1.441-.369-2.918-.674-4.387-.913l.237-1.458c1.51.248,3.031.564,4.516.941Zm-30.844,1.766-.523-1.381c1.433-.542,2.9-1.029,4.378-1.444l.4,1.422c-1.433.4-2.866.875-4.257,1.4m22.008-3.2c-1.485-.107-2.992-.151-4.48-.129l-.019-1.477c1.529-.022,3.08.025,4.607.135Zm-13.388.776-.275-1.449c1.5-.286,3.045-.509,4.56-.663l.151,1.466c-1.474.151-2.973.369-4.436.646" transform="translate(139.941 47.119)" fill="#3f5a9f"></path><path id="Path_305" data-name="Path 305" d="M119.034,44.808l-1.46.209c-.1-.723-.22-1.444-.355-2.156l1.452-.27c.135.734.259,1.471.363,2.217" transform="translate(205.163 74.545)" fill="#3f5a9f"></path><path id="Path_306" data-name="Path 306" d="M88.851,45.743,83.493,48.3l-5.561-2.082,6.023,12.706Z" transform="translate(136.401 80.061)" fill="#3f5a9f"></path><path id="Path_307" data-name="Path 307" d="M63.624,76.713c-.223-3.361,1.152-7.31,2.049-6.92s.061,3.534.685,4.477c.822,1.243,1.532,2.406.921,5.335Z" transform="translate(111.316 122.108)" fill="#fcb47e"></path><path id="Path_308" data-name="Path 308" d="M54.3,171.354,51.621,149.7H67.5l.7,21.653Z" transform="translate(90.35 262.015)" fill="#fcb47e"></path><path id="Path_309" data-name="Path 309" d="M67.424,158.261c-6,1.568-14.906-1.284-14.906-1.284l-.63-5.14,15.371,1.293Z" transform="translate(90.817 265.751)" fill="#fca377"></path><path id="Path_310" data-name="Path 310" d="M25.068,171.354,26.534,149.7H42.408L38.96,171.354Z" transform="translate(43.875 262.015)" fill="#fcb47e"></path><path id="Path_311" data-name="Path 311" d="M41.069,153.547l-1.086,6.832A24.683,24.683,0,0,1,25.409,156.8l.446-6.65Z" transform="translate(44.472 262.797)" fill="#fca377"></path><path id="Path_312" data-name="Path 312" d="M106.778,278.564s-10.6-133.142-39.23-197.872L40.934,82.029s2.272,93.742,22.239,196.536c0,0,24.978,5.927,43.605,0" transform="translate(71.645 141.231)" fill="#1240b2"></path><path id="Path_313" data-name="Path 313" d="M63.629,278.407s-26.191,4.233-41.13-5.927c0,0,7.954-144.363,32.318-191.7H83.461S82.526,158.6,63.629,278.407" transform="translate(39.379 141.389)" fill="#1240b2"></path><path id="Path_314" data-name="Path 314" d="M36.2,82.143c.7-2.519,2.032-5.737,2.032-5.737a31.3,31.3,0,0,0-.424,6.524c6.218,2.852,19.208,6.568,39.381,1.634-.259-2.071-.374-4.037-.374-4.037a28.778,28.778,0,0,0,1.367,3.79c.723-.184,1.444-.374,2.181-.58a53.334,53.334,0,0,1-.861-7.013,32.079,32.079,0,0,0,2.684,6.491c1.229-.374,2.481-.77,3.757-1.2,0,0-4.021-6.136-6.658-22.1-2.17-13.124-8.9-19.326-19.134-19.051C39.111,41.42,33.5,80.468,33.5,80.468a19.454,19.454,0,0,0,2.7,1.675" transform="translate(58.63 71.494)" fill="#374263"></path><path id="Path_315" data-name="Path 315" d="M130.569,98.231s-8.435-37.959-41.961-39.923C37,55.289,21.142,88.855,21.142,88.855Z" transform="translate(37.004 101.718)" fill="#fff"></path><path id="Path_316" data-name="Path 316" d="M44.18,45.693c5.7-3.256,15.7-3.394,17.987,4.312,2.109,7.115,1.774,28.567-7.747,28.163-9.953-.426-13.1-7.992-13.982-12.615-.319-1.661-1.955-16.6,3.743-19.86" transform="translate(69.967 76.284)" fill="#fcb47e"></path><path id="Path_317" data-name="Path 317" d="M43.644,55.7s-4.447,1.37-5.278-2.629c-.748-3.608,3.534-5.014,4.912-3.432Z" transform="translate(66.998 85.755)" fill="#fcb47e"></path><path id="Path_318" data-name="Path 318" d="M71.907,124.716c6.381-12.492,11.364-41.669,11.364-41.669.74-1.15,3.837-6.117,4.032-9.9.083-1.68-.767-2.679-1.906-2.129-.41-1.367-1.221-1.617-2.316-.817-.611-1.194-1.359-1.147-2.1-.564-1.631-2.731-4.879,5.921-4.862,7,.011.726.231,3.388.341,4.172C76.6,81.85,57.325,114.7,57.325,114.7Z" transform="translate(100.333 120.953)" fill="#fcb47e"></path><path id="Path_319" data-name="Path 319" d="M24.935,273.247l-.855-.058c.094-1.441,9.791-144.9,34.419-191.511l.756.4c-24.54,46.452-34.224,189.726-34.32,191.167" transform="translate(42.146 142.957)" fill="#fff"></path><path id="Path_320" data-name="Path 320" d="M37.733,97.028,28.7,148.678c23.567,7.079,50.162.718,71.914-13.713L91.608,84.028,74.845,58.5s-8.174,9.326-17.181-.212L34.2,68.131Z" transform="translate(50.234 102.024)" fill="#fff"></path><path id="Path_321" data-name="Path 321" d="M84.019,103.351l-4.758-11.8S67.349,67.339,57.55,61.077l-6.273,42.365Z" transform="translate(89.748 106.9)" fill="#fff"></path><path id="Path_322" data-name="Path 322" d="M43.476,137.251l-.836-.08c1.353-14.466,2.481-28.614,3.35-42.049l.839.055c-.869,13.443-2,27.6-3.353,42.073" transform="translate(74.631 166.489)" fill="#47393d"></path><path id="Path_323" data-name="Path 323" d="M65.883,234.468c-.179-.853-17.844-85.607-22.868-128.313l.853-.1c5.019,42.667,22.679,127.386,22.855,128.236Z" transform="translate(75.287 185.625)" fill="#fff"></path><path id="Path_324" data-name="Path 324" d="M60.433,118.7l.817-.143L52.24,67.623l-.814.143Z" transform="translate(90.008 118.358)" fill="#3f5a9f"></path><path id="Path_325" data-name="Path 325" d="M38.91,60.041a2.6,2.6,0,0,1,3.177.762,19.22,19.22,0,0,1,1.557-5.487l.715,3.754a64.842,64.842,0,0,0,8.845.864c1.133.022,4.321,0,4.321,0l.729-6.276,1.359,6.152c.938-.074,1.667-.176,2.412-.275l.531-3.688,1.029,3.474c1-.168,1.7-.325,2.041-.4.206-2.637.289-9.75-4.411-13.87-5.4-4.728-16.812-2.131-19.458,3.531A33.038,33.038,0,0,0,38.91,60.041" transform="translate(68.102 74.553)" fill="#374263"></path><path id="Path_326" data-name="Path 326" d="M49.105,76.113c4.728,0,7.536-4.128,7.536-4.128L55.455,58.313l-13-7.725L39.174,71.773s4.07,4.34,9.931,4.34" transform="translate(68.564 88.542)" fill="#fcb47e"></path><path id="Path_327" data-name="Path 327" d="M53.037,62.391l.036-.828c-5.916-.253-9.706-4.777-11.84-8.529l-.721.413c2.239,3.93,6.229,8.674,12.525,8.944" transform="translate(70.906 92.825)" fill="#374263"></path><path id="Path_328" data-name="Path 328" d="M52.16,172.5l40.123.148a2.408,2.408,0,0,0,2.417-2.569l0-.05c-.028-.305-.063-.622-.11-.938a6.251,6.251,0,0,0-.916-2.805c-1.895-2.533-5.583-3.7-12.156-6.328a52.9,52.9,0,0,1-9.161-4.879,1.267,1.267,0,0,0-1.587.16c-7.965,7.731-12.83,6.062-14.277,2.852-1.106-2.445-2.684-1.939-3.124-1.227-1.342,2.233-2.1,8.782-2.409,12.065-.039.355-.069.679-.088.938-.049.613-.077.985-.077.985A1.4,1.4,0,0,0,52.16,172.5" transform="translate(88.862 271.06)" fill="#374263"></path><path id="Path_329" data-name="Path 329" d="M61.313,161.011a4.282,4.282,0,0,0,2.437-4.345l-.688.1a3.53,3.53,0,0,1-2.052,3.614Z" transform="translate(106.783 274.205)" fill="#fff"></path><path id="Path_330" data-name="Path 330" d="M62.615,161.312a4.323,4.323,0,0,0,2.343-4.134l-.69.08a3.646,3.646,0,0,1-1.994,3.446Z" transform="translate(108.995 275.101)" fill="#fff"></path><path id="Path_331" data-name="Path 331" d="M57.334,159.723a12.812,12.812,0,0,0,5.159-1.227l-.316-.619c-.063.033-6.161,3.069-9.277-.839l-.545.432a6.1,6.1,0,0,0,4.978,2.252" transform="translate(91.636 274.858)" fill="#fff"></path><rect id="Rectangle_803" data-name="Rectangle 803" width="0.696" height="23.38" transform="translate(144.625 441.137) rotate(-89.791)" fill="#fff"></rect><rect id="Rectangle_804" data-name="Rectangle 804" width="0.696" height="5.528" transform="translate(171.008 441.234) rotate(-89.8)" fill="#fff"></rect><path id="Path_332" data-name="Path 332" d="M24.84,172.5l40.123.148a2.408,2.408,0,0,0,2.417-2.569l-.005-.05c-.025-.305-.061-.622-.107-.938a6.218,6.218,0,0,0-.919-2.805c-1.892-2.533-5.583-3.7-12.153-6.328a52.9,52.9,0,0,1-9.161-4.879,1.267,1.267,0,0,0-1.587.16c-7.965,7.731-12.83,6.062-14.277,2.852-1.106-2.445-2.684-1.939-3.124-1.227-1.342,2.233-2.1,8.782-2.409,12.065-.039.355-.069.679-.088.938-.049.613-.077.985-.077.985A1.4,1.4,0,0,0,24.84,172.5" transform="translate(41.045 271.06)" fill="#374263"></path><path id="Path_333" data-name="Path 333" d="M33.992,161.011a4.281,4.281,0,0,0,2.437-4.345l-.688.1a3.53,3.53,0,0,1-2.052,3.614Z" transform="translate(58.964 274.205)" fill="#fff"></path><path id="Path_334" data-name="Path 334" d="M35.3,161.312a4.323,4.323,0,0,0,2.343-4.134l-.69.08a3.646,3.646,0,0,1-1.994,3.446Z" transform="translate(61.178 275.101)" fill="#fff"></path><path id="Path_335" data-name="Path 335" d="M30.014,159.723a12.812,12.812,0,0,0,5.159-1.227l-.316-.619c-.063.033-6.161,3.069-9.277-.839l-.545.432a6.1,6.1,0,0,0,4.978,2.252" transform="translate(43.819 274.858)" fill="#fff"></path><rect id="Rectangle_805" data-name="Rectangle 805" width="0.696" height="23.38" transform="translate(69.487 441.137) rotate(-89.791)" fill="#fff"></rect><rect id="Rectangle_806" data-name="Rectangle 806" width="0.696" height="5.529" transform="translate(95.869 441.234) rotate(-89.801)" fill="#fff"></rect><path id="Path_336" data-name="Path 336" d="M45.027,187.014l134.02-21.16a5.1,5.1,0,0,0,4.224-5.809L169.652,73.792a5.094,5.094,0,0,0-5.809-4.224L29.824,90.728A5.1,5.1,0,0,0,25.6,96.536L39.219,182.79a5.1,5.1,0,0,0,5.809,4.224" transform="translate(44.697 121.652)" fill="#5e86e9"></path><path id="Path_337" data-name="Path 337" d="M59.087,104.193,34.959,108a1.376,1.376,0,0,1-1.57-1.144l-.734-4.637a1.382,1.382,0,0,1,1.144-1.573l24.128-3.809A1.378,1.378,0,0,1,59.5,97.983l.732,4.637a1.378,1.378,0,0,1-1.144,1.573" transform="translate(57.124 169.463)" fill="#fff"></path><path id="Path_338" data-name="Path 338" d="M70.683,102.362l-24.125,3.809a1.377,1.377,0,0,1-1.573-1.144l-.734-4.637a1.38,1.38,0,0,1,1.144-1.573l24.128-3.809A1.378,1.378,0,0,1,71.1,96.152l.732,4.637a1.378,1.378,0,0,1-1.144,1.573" transform="translate(77.42 166.258)" fill="#fff"></path><path id="Path_339" data-name="Path 339" d="M82.278,100.531,58.153,104.34A1.377,1.377,0,0,1,56.58,103.2l-.734-4.637a1.382,1.382,0,0,1,1.144-1.573l24.128-3.809a1.378,1.378,0,0,1,1.573,1.144l.732,4.637a1.378,1.378,0,0,1-1.144,1.573" transform="translate(97.715 163.053)" fill="#fff"></path><path id="Path_340" data-name="Path 340" d="M93.874,98.7l-24.125,3.809a1.377,1.377,0,0,1-1.573-1.144l-.734-4.637a1.382,1.382,0,0,1,1.144-1.573l24.128-3.809a1.378,1.378,0,0,1,1.573,1.144l.732,4.637A1.378,1.378,0,0,1,93.874,98.7" transform="translate(118.01 159.848)" fill="#fff"></path><path id="Path_341" data-name="Path 341" d="M99.6,103.95l-31.741,5.011a1.677,1.677,0,0,1-1.914-1.392l-.638-4.048a1.678,1.678,0,0,1,1.392-1.914L98.437,96.6a1.68,1.68,0,0,1,1.914,1.392l.638,4.048A1.677,1.677,0,0,1,99.6,103.95" transform="translate(114.262 169.032)" fill="#fff"></path><path id="Path_342" data-name="Path 342" d="M34.046,97.756,32.522,88.1a3.882,3.882,0,0,1,3.223-4.433L54.508,80.7a3.881,3.881,0,0,1,4.433,3.223l1.524,9.659a3.877,3.877,0,0,1-3.223,4.433l-18.762,2.962a3.884,3.884,0,0,1-4.433-3.223m1.862-13.064a2.843,2.843,0,0,0-2.36,3.243l1.526,9.659a2.837,2.837,0,0,0,3.243,2.357l18.762-2.962a2.838,2.838,0,0,0,2.36-3.243l-1.526-9.659A2.836,2.836,0,0,0,54.67,81.73Z" transform="translate(56.839 141.164)" fill="#fff"></path><rect id="Rectangle_807" data-name="Rectangle 807" width="0.947" height="20.918" transform="translate(214.885 201.865) rotate(-8.971)" fill="#2e4882"></rect><path id="Path_343" data-name="Path 343" d="M53.848,147.36l-.149-.935,75.984-12a4.62,4.62,0,0,0,3.831-5.267l-6.6-41.82.935-.149,6.6,41.82a5.567,5.567,0,0,1-4.615,6.35Z" transform="translate(93.987 152.61)" fill="#2e4882"></path><rect id="Rectangle_808" data-name="Rectangle 808" width="28.495" height="0.947" transform="translate(106.476 305.555) rotate(-9.025)" fill="#2e4882"></rect><path id="Path_344" data-name="Path 344" d="M68.941,69.8a1.01,1.01,0,0,1,.624,1.394c-.47,1-1.243,2.046-1.785,2.082-.957.06-.473-1.579-.1-2.8a1.014,1.014,0,0,1,1.265-.677" transform="translate(117.655 122.091)" fill="#fcb47e"></path><path id="Path_345" data-name="Path 345" d="M68.617,69.884A1.028,1.028,0,0,1,69,71.1c-.421,1.114-1.326,2.717-2.239,2.574-.578-.091-.2-1.832.187-3.245a1.1,1.1,0,0,1,1.664-.545" transform="translate(116.34 121.985)" fill="#fcb47e"></path><path id="Path_346" data-name="Path 346" d="M67.561,69.582a1.021,1.021,0,0,1,.795,1.194c-.237,1.18-.836,2.731-2.057,3.168-1.048.374-.451-2.109-.077-3.636a1.018,1.018,0,0,1,1.2-.756Z" transform="translate(115.009 121.695)" fill="#fcb47e"></path><path id="Path_347" data-name="Path 347" d="M66.706,69.081a1.268,1.268,0,0,1,.877,1.821c-.47,1.2-1.287,2.552-2.041,2.739-.806.2-.358-1.8-.1-3.336.118-.69.649-1.331,1.26-1.224" transform="translate(113.914 120.888)" fill="#fcb47e"></path><path id="Path_348" data-name="Path 348" d="M48.245,138.815s-15.682-22.967,8.592-39.337l13.9-39.1v-.261C54.458,60.034,36.958,70,27.483,83.956,11.639,107.3,13.231,135.217,39.76,149.61Z" transform="translate(30.283 105.218)" fill="#fff"></path><rect id="Rectangle_809" data-name="Rectangle 809" width="12.26" height="0.858" transform="translate(85.645 209.429) rotate(-78.907)" fill="#3f5a9f"></rect><path id="Path_349" data-name="Path 349" d="M42.018,134.97c-11.433-6.2-18.891-15.305-21.573-26.323-3.058-12.566.19-26.754,9.145-39.95l.71.481c-8.817,12.992-12.021,26.939-9.021,39.268,2.621,10.773,9.934,19.686,21.149,25.77Z" transform="translate(33.823 120.237)" fill="#3f5a9f"></path><path id="Path_350" data-name="Path 350" d="M31.662,89.419c.795.638,3.278,2.77,4.282,2.943.93.16,6.073.374,5.93,1.458-.151,1.139-3.661.256-3.625,1.174.019.564,6.867,2.412,6.18,3.611-.454.787-4.447-.9-4.53-.4-.074.459,5.28,1.507,4.67,2.706-.641,1.257-5.795-1.911-6.056-1.315-.132.294,6.128,2.544,5.6,3.509-.7,1.293-5.506-1.889-5.877-1.328-.182.278,1.716,1.1,2.783,1.73.591.349.4.883-.061.864-4.835-.217-10.9-6.1-11.675-6.375q-1.729-.615-3.355-1.282Z" transform="translate(45.381 156.506)" fill="#fcb47e"></path><path id="Path_351" data-name="Path 351" d="M28.543,85.374l-.743-.432A33.36,33.36,0,0,1,38.221,74.3l.479.71A32.485,32.485,0,0,0,28.543,85.374" transform="translate(48.657 130.042)" fill="#3f5a9f"></path><path id="Path_352" data-name="Path 352" d="M270.655,60.906c.008.33.019.652.027.982,1.18,40.253-2.951,71.628-9.939,96.075L240,170.861l17.06-2.64.487-.074c-9.255,26.87-22.049,44.23-34.139,55.393a88.471,88.471,0,0,1-20.715,14.475c-.393.2-.778.388-1.163.569-.957.459-1.887.872-2.769,1.246l-11.408.6c-.157-.534-.305-1.056-.445-1.587-.1-.336-.19-.668-.27-1-.129-.437-.239-.883-.352-1.317-13.484-51.961,3.509-93.407,25.709-122.95a2.219,2.219,0,0,1,.217-.292A201.071,201.071,0,0,1,236.194,86.9l5.044,12.844.723-17.992a198.212,198.212,0,0,1,28.028-20.459c.437-.259.666-.382.666-.382" transform="translate(317.654 106.601)" fill="#9aade5"></path><path id="Path_353" data-name="Path 353" d="M269.24,61.219l-.377.792-23.432,49.062-.421.866-6.386,13.377-.217.448-20.368,42.643-.03.058-33.19,69.5-.5,1.042-.792,1.65-1,.052.784-1.65,1.152-2.412,32.756-68.583.611-1.271L268.17,61.412l.278-.578Z" transform="translate(319.473 106.476)" fill="#fff"></path><rect id="Rectangle_810" data-name="Rectangle 810" width="35.263" height="0.766" transform="matrix(0.824, -0.566, 0.566, 0.824, 557.736, 232.03)" fill="#fff"></rect><rect id="Rectangle_811" data-name="Rectangle 811" width="27.641" height="0.766" transform="matrix(0.824, -0.566, 0.566, 0.824, 564.206, 218.01)" fill="#fff"></rect><rect id="Rectangle_812" data-name="Rectangle 812" width="0.767" height="55.585" transform="translate(529.611 219.915) rotate(-7.388)" fill="#fff"></rect><path id="Path_354" data-name="Path 354" d="M181.954,181.116S209,193.893,247.473,170.953L235,165.032l20.366.817c15.016-10.506,31.5-26.515,48.608-50.613l-4.761-2.255,6.174.245q4.328-6.18,8.7-13.072a149.386,149.386,0,0,0-27.45.866l-8.292,11.227L280.7,101.82c-33.028,5.011-81.11,22.318-98.742,79.3" transform="translate(318.465 174.825)" fill="#bac8f3"></path><rect id="Rectangle_813" data-name="Rectangle 813" width="155.428" height="0.866" transform="matrix(0.863, -0.505, 0.505, 0.863, 498.147, 353.037)" fill="#fff"></rect><rect id="Rectangle_814" data-name="Rectangle 814" width="0.805" height="19.312" transform="translate(597.578 296.121) rotate(-84.115)" fill="#fff"></rect><path id="Path_355" data-name="Path 355" d="M236.328,114.055l-22.4-3.993.14-.792,22.4,3.993Z" transform="translate(374.422 191.249)" fill="#fff"></path><path id="Path_356" data-name="Path 356" d="M193.878,126.735l-.674-.759a118.331,118.331,0,0,1,40.756-23.2l.327.96c-15.652,5.344-29.249,13.08-40.409,23" transform="translate(338.156 179.882)" fill="#2e4882"></path><path id="Path_357" data-name="Path 357" d="M95.739,88.191c.047.327.091.646.138.971,5.558,39.884,14.873,70.131,25.847,93.069l22.607,9.249-17.263.247-.492.008c13.614,24.948,29.128,39.925,42.912,48.913a88.522,88.522,0,0,0,22.844,10.811c.418.129.831.25,1.24.366,1.02.294,2,.544,2.937.767l11.35-1.317c.066-.55.124-1.089.173-1.639q.062-.516.1-1.031c.052-.451.088-.908.127-1.359,4.615-53.481-19.062-91.506-45.885-116.927a2.318,2.318,0,0,0-.264-.25,200.952,200.952,0,0,0-28.05-22.008l-2.83,13.5-3.718-17.618A197.881,197.881,0,0,0,96.457,88.455c-.473-.179-.718-.264-.718-.264" transform="translate(167.567 154.356)" fill="#9aade5"></path><path id="Path_358" data-name="Path 358" d="M95.605,88.609l.5.718,31.3,44.458.561.787,8.529,12.123.292.4,27.205,38.644.038.052,44.334,62.978.666.943,1.056,1.5.99-.116-1.048-1.5-1.54-2.186-43.751-62.147-.814-1.152L96.692,88.62l-.369-.523Z" transform="translate(167.333 154.192)" fill="#fff"></path><path id="Path_359" data-name="Path 359" d="M130.85,119.618l.322-.7-31.98-14.854-.322.7Z" transform="translate(173.048 182.146)" fill="#fff"></path><path id="Path_360" data-name="Path 360" d="M123.282,112.942l.322-.7L98.538,100.6l-.325.7Z" transform="translate(171.897 176.078)" fill="#fff"></path><rect id="Rectangle_815" data-name="Rectangle 815" width="0.765" height="55.586" transform="translate(329.166 284.444) rotate(-2.229)" fill="#fff"></rect><path id="Path_361" data-name="Path 361" d="M230.2,189.68s-24.529,17.115-66.3.924l11.312-7.921-19.942,4.208c-16.559-7.849-35.484-20.883-56.38-41.782l4.318-3.02-6.048,1.271q-5.3-5.367-10.762-11.433a149.307,149.307,0,0,1,27.208-3.735l10.052,9.686-4.059-9.887c33.4-.575,83.7,8.452,110.6,61.688" transform="translate(151.23 223.974)" fill="#bac8f3"></path><rect id="Rectangle_816" data-name="Rectangle 816" width="0.864" height="155.427" transform="matrix(0.353, -0.936, 0.936, 0.353, 237.482, 356.307)" fill="#fff"></rect><rect id="Rectangle_817" data-name="Rectangle 817" width="19.313" height="0.803" transform="translate(256.824 375.29) rotate(-15.503)" fill="#fff"></rect><path id="Path_362" data-name="Path 362" d="M96.235,144.321l21.422-7.679-.272-.756-21.422,7.679Z" transform="translate(167.96 237.835)" fill="#fff"></path><path id="Path_363" data-name="Path 363" d="M152.161,145.419l.539-.861a118.393,118.393,0,0,0-44.059-16.07l-.162,1a117.32,117.32,0,0,1,43.682,15.927" transform="translate(189.866 224.886)" fill="#2e4882"></path><path id="Path_364" data-name="Path 364" d="M178.467,351.665H151.1a16.513,16.513,0,0,1-16.6-15.712l-15.44-269.3a16.491,16.491,0,0,1,16.6-17.063h31.556Z" transform="translate(208.362 86.788)" fill="#1240b2"></path><path id="Path_365" data-name="Path 365" d="M300.235,66.649l-8.083,269.3a16.515,16.515,0,0,1-16.6,15.712h-121c-8.908,0-19.4-6.933-19.769-15.712l-8.075-269.3a16.489,16.489,0,0,1,16.6-17.063H283.635a16.489,16.489,0,0,1,16.6,17.063" transform="translate(221.751 86.788)" fill="#dce8ff"></path><path id="Path_366" data-name="Path 366" d="M145.033,56.355H138.55a3.178,3.178,0,0,0-2.283.952,3.238,3.238,0,0,0,2.283,5.531H257.334a3.249,3.249,0,0,0,3.234-3.237,3.245,3.245,0,0,0-3.234-3.245h-112.3Z" transform="translate(236.837 98.635)" fill="#3f5a9f"></path><path id="Path_367" data-name="Path 367" d="M256.949,147.808H141.727a4.093,4.093,0,0,1-4.09-3.938l-2.86-74.958a4.1,4.1,0,0,1,4.092-4.252h120.94a4.1,4.1,0,0,1,4.09,4.252l-2.86,74.958a4.091,4.091,0,0,1-4.09,3.938" transform="translate(235.888 113.171)" fill="#fff"></path><path id="Path_368" data-name="Path 368" d="M162.694,125.667H144.875A5.672,5.672,0,0,1,139.2,120v-8.1a5.67,5.67,0,0,1,5.671-5.668h17.819a5.665,5.665,0,0,1,5.666,5.668V120a5.667,5.667,0,0,1-5.666,5.668" transform="translate(243.642 185.931)" fill="#647ce2"></path><path id="Path_369" data-name="Path 369" d="M162.694,137.2H144.875a5.672,5.672,0,0,1-5.671-5.668v-8.1a5.67,5.67,0,0,1,5.671-5.668h17.819a5.665,5.665,0,0,1,5.666,5.668v8.1a5.667,5.667,0,0,1-5.666,5.668" transform="translate(243.642 206.117)" fill="#647ce2"></path><path id="Path_370" data-name="Path 370" d="M162.694,148.734H144.875a5.672,5.672,0,0,1-5.671-5.668v-8.1a5.67,5.67,0,0,1,5.671-5.668h17.819a5.665,5.665,0,0,1,5.666,5.668v8.1a5.667,5.667,0,0,1-5.666,5.668" transform="translate(243.642 226.304)" fill="#647ce2"></path><path id="Path_371" data-name="Path 371" d="M162.694,160.267H144.875A5.672,5.672,0,0,1,139.2,154.6v-8.1a5.67,5.67,0,0,1,5.671-5.668h17.819a5.665,5.665,0,0,1,5.666,5.668v8.1a5.667,5.667,0,0,1-5.666,5.668" transform="translate(243.642 246.49)" fill="#3f5a9f"></path><path id="Path_372" data-name="Path 372" d="M176.147,125.667H158.331A5.67,5.67,0,0,1,152.66,120v-8.1a5.668,5.668,0,0,1,5.671-5.668h17.816a5.666,5.666,0,0,1,5.668,5.668V120a5.667,5.667,0,0,1-5.668,5.668" transform="translate(267.193 185.931)" fill="#647ce2"></path><path id="Path_373" data-name="Path 373" d="M176.147,137.2H158.331a5.67,5.67,0,0,1-5.671-5.668v-8.1a5.668,5.668,0,0,1,5.671-5.668h17.816a5.666,5.666,0,0,1,5.668,5.668v8.1a5.667,5.667,0,0,1-5.668,5.668" transform="translate(267.193 206.117)" fill="#647ce2"></path><path id="Path_374" data-name="Path 374" d="M176.147,148.734H158.331a5.67,5.67,0,0,1-5.671-5.668v-8.1a5.668,5.668,0,0,1,5.671-5.668h17.816a5.666,5.666,0,0,1,5.668,5.668v8.1a5.667,5.667,0,0,1-5.668,5.668" transform="translate(267.193 226.304)" fill="#647ce2"></path><path id="Path_375" data-name="Path 375" d="M176.147,160.267H158.331a5.67,5.67,0,0,1-5.671-5.668v-8.1a5.668,5.668,0,0,1,5.671-5.668h17.816a5.666,5.666,0,0,1,5.668,5.668v8.1a5.667,5.667,0,0,1-5.668,5.668" transform="translate(267.193 246.49)" fill="#647ce2"></path><path id="Path_376" data-name="Path 376" d="M189.6,125.667H171.784A5.669,5.669,0,0,1,166.116,120v-8.1a5.667,5.667,0,0,1,5.668-5.668H189.6a5.667,5.667,0,0,1,5.668,5.668V120a5.669,5.669,0,0,1-5.668,5.668" transform="translate(290.745 185.931)" fill="#647ce2"></path><path id="Path_377" data-name="Path 377" d="M189.6,137.2H171.784a5.669,5.669,0,0,1-5.668-5.668v-8.1a5.667,5.667,0,0,1,5.668-5.668H189.6a5.667,5.667,0,0,1,5.668,5.668v8.1A5.669,5.669,0,0,1,189.6,137.2" transform="translate(290.745 206.117)" fill="#647ce2"></path><path id="Path_378" data-name="Path 378" d="M189.6,148.734H171.784a5.669,5.669,0,0,1-5.668-5.668v-8.1a5.667,5.667,0,0,1,5.668-5.668H189.6a5.667,5.667,0,0,1,5.668,5.668v8.1a5.669,5.669,0,0,1-5.668,5.668" transform="translate(290.745 226.304)" fill="#647ce2"></path><path id="Path_379" data-name="Path 379" d="M189.6,160.267H171.784a5.669,5.669,0,0,1-5.668-5.668v-8.1a5.667,5.667,0,0,1,5.668-5.668H189.6a5.667,5.667,0,0,1,5.668,5.668v8.1a5.669,5.669,0,0,1-5.668,5.668" transform="translate(290.745 246.49)" fill="#3f5a9f"></path><path id="Path_380" data-name="Path 380" d="M164.614,125.667H146.8A5.67,5.67,0,0,1,141.127,120v-8.1a5.668,5.668,0,0,1,5.671-5.668h17.816a5.667,5.667,0,0,1,5.668,5.668V120a5.669,5.669,0,0,1-5.668,5.668" transform="translate(247.008 185.931)" fill="#6d92f0"></path><path id="Path_381" data-name="Path 381" d="M164.614,137.2H146.8a5.67,5.67,0,0,1-5.671-5.668v-8.1a5.668,5.668,0,0,1,5.671-5.668h17.816a5.667,5.667,0,0,1,5.668,5.668v8.1a5.669,5.669,0,0,1-5.668,5.668" transform="translate(247.008 206.117)" fill="#6d92f0"></path><path id="Path_382" data-name="Path 382" d="M164.614,148.734H146.8a5.67,5.67,0,0,1-5.671-5.668v-8.1A5.668,5.668,0,0,1,146.8,129.3h17.816a5.667,5.667,0,0,1,5.668,5.668v8.1a5.669,5.669,0,0,1-5.668,5.668" transform="translate(247.008 226.304)" fill="#6d92f0"></path><path id="Path_383" data-name="Path 383" d="M164.614,160.267H146.8a5.67,5.67,0,0,1-5.671-5.668v-8.1a5.668,5.668,0,0,1,5.671-5.668h17.816a5.667,5.667,0,0,1,5.668,5.668v8.1a5.669,5.669,0,0,1-5.668,5.668" transform="translate(247.008 246.49)" fill="#3f5a9f"></path><path id="Path_384" data-name="Path 384" d="M178.07,125.667H160.254A5.67,5.67,0,0,1,154.583,120v-8.1a5.668,5.668,0,0,1,5.671-5.668H178.07a5.667,5.667,0,0,1,5.668,5.668V120a5.669,5.669,0,0,1-5.668,5.668" transform="translate(270.559 185.931)" fill="#6d92f0"></path><path id="Path_385" data-name="Path 385" d="M178.07,137.2H160.254a5.67,5.67,0,0,1-5.671-5.668v-8.1a5.668,5.668,0,0,1,5.671-5.668H178.07a5.667,5.667,0,0,1,5.668,5.668v8.1a5.669,5.669,0,0,1-5.668,5.668" transform="translate(270.559 206.117)" fill="#6d92f0"></path><path id="Path_386" data-name="Path 386" d="M178.07,148.734H160.254a5.67,5.67,0,0,1-5.671-5.668v-8.1a5.668,5.668,0,0,1,5.671-5.668H178.07a5.667,5.667,0,0,1,5.668,5.668v8.1a5.669,5.669,0,0,1-5.668,5.668" transform="translate(270.559 226.304)" fill="#6d92f0"></path><path id="Path_387" data-name="Path 387" d="M178.07,160.267H160.254a5.67,5.67,0,0,1-5.671-5.668v-8.1a5.668,5.668,0,0,1,5.671-5.668H178.07a5.667,5.667,0,0,1,5.668,5.668v8.1a5.669,5.669,0,0,1-5.668,5.668" transform="translate(270.559 246.49)" fill="#6d92f0"></path><path id="Path_388" data-name="Path 388" d="M191.525,125.667H173.709A5.67,5.67,0,0,1,168.038,120v-8.1a5.668,5.668,0,0,1,5.671-5.668h17.816a5.667,5.667,0,0,1,5.668,5.668V120a5.669,5.669,0,0,1-5.668,5.668" transform="translate(294.109 185.931)" fill="#6d92f0"></path><path id="Path_389" data-name="Path 389" d="M191.525,137.2H173.709a5.67,5.67,0,0,1-5.671-5.668v-8.1a5.668,5.668,0,0,1,5.671-5.668h17.816a5.667,5.667,0,0,1,5.668,5.668v8.1a5.669,5.669,0,0,1-5.668,5.668" transform="translate(294.109 206.117)" fill="#6d92f0"></path><path id="Path_390" data-name="Path 390" d="M191.525,148.734H173.709a5.67,5.67,0,0,1-5.671-5.668v-8.1a5.668,5.668,0,0,1,5.671-5.668h17.816a5.667,5.667,0,0,1,5.668,5.668v8.1a5.669,5.669,0,0,1-5.668,5.668" transform="translate(294.109 226.304)" fill="#6d92f0"></path><path id="Path_391" data-name="Path 391" d="M191.525,160.267H173.709a5.67,5.67,0,0,1-5.671-5.668v-8.1a5.668,5.668,0,0,1,5.671-5.668h17.816a5.667,5.667,0,0,1,5.668,5.668v8.1a5.669,5.669,0,0,1-5.668,5.668" transform="translate(294.109 246.49)" fill="#3f5a9f"></path><path id="Path_392" data-name="Path 392" d="M164.95,126.531H147.131a6.2,6.2,0,0,1-6.2-6.2v-8.1a6.2,6.2,0,0,1,6.2-6.2H164.95a6.2,6.2,0,0,1,6.2,6.2v8.1a6.2,6.2,0,0,1-6.2,6.2M147.131,107.1a5.145,5.145,0,0,0-5.14,5.14v8.1a5.145,5.145,0,0,0,5.14,5.14H164.95a5.146,5.146,0,0,0,5.14-5.14v-8.1a5.146,5.146,0,0,0-5.14-5.14Z" transform="translate(246.672 185.595)" fill="#fff"></path><path id="Path_393" data-name="Path 393" d="M164.95,138.064H147.131a6.2,6.2,0,0,1-6.2-6.2v-8.1a6.2,6.2,0,0,1,6.2-6.2H164.95a6.2,6.2,0,0,1,6.2,6.2v8.1a6.2,6.2,0,0,1-6.2,6.2m-17.819-19.436a5.145,5.145,0,0,0-5.14,5.14v8.1a5.146,5.146,0,0,0,5.14,5.14H164.95a5.148,5.148,0,0,0,5.14-5.14v-8.1a5.146,5.146,0,0,0-5.14-5.14Z" transform="translate(246.672 205.781)" fill="#fff"></path><path id="Path_394" data-name="Path 394" d="M164.95,149.6H147.131a6.2,6.2,0,0,1-6.2-6.2v-8.1a6.2,6.2,0,0,1,6.2-6.2H164.95a6.2,6.2,0,0,1,6.2,6.2v8.1a6.2,6.2,0,0,1-6.2,6.2m-17.819-19.436a5.144,5.144,0,0,0-5.14,5.14v8.1a5.146,5.146,0,0,0,5.14,5.14H164.95a5.148,5.148,0,0,0,5.14-5.14v-8.1a5.146,5.146,0,0,0-5.14-5.14Z" transform="translate(246.672 225.968)" fill="#fff"></path><path id="Path_395" data-name="Path 395" d="M164.95,161.133H147.131a6.2,6.2,0,0,1-6.2-6.2v-8.1a6.2,6.2,0,0,1,6.2-6.2H164.95a6.205,6.205,0,0,1,6.2,6.2v8.1a6.2,6.2,0,0,1-6.2,6.2M147.131,141.7a5.145,5.145,0,0,0-5.14,5.14v8.1a5.146,5.146,0,0,0,5.14,5.14H164.95a5.148,5.148,0,0,0,5.14-5.14v-8.1a5.146,5.146,0,0,0-5.14-5.14Z" transform="translate(246.672 246.152)" fill="#fff"></path><path id="Path_396" data-name="Path 396" d="M178.406,126.531H160.587a6.2,6.2,0,0,1-6.2-6.2v-8.1a6.2,6.2,0,0,1,6.2-6.2h17.819a6.2,6.2,0,0,1,6.2,6.2v8.1a6.2,6.2,0,0,1-6.2,6.2M160.587,107.1a5.145,5.145,0,0,0-5.14,5.14v8.1a5.145,5.145,0,0,0,5.14,5.14h17.819a5.146,5.146,0,0,0,5.14-5.14v-8.1a5.146,5.146,0,0,0-5.14-5.14Z" transform="translate(270.223 185.595)" fill="#fff"></path><path id="Path_397" data-name="Path 397" d="M178.406,138.064H160.587a6.2,6.2,0,0,1-6.2-6.2v-8.1a6.2,6.2,0,0,1,6.2-6.2h17.819a6.2,6.2,0,0,1,6.2,6.2v8.1a6.2,6.2,0,0,1-6.2,6.2m-17.819-19.436a5.145,5.145,0,0,0-5.14,5.14v8.1a5.146,5.146,0,0,0,5.14,5.14h17.819a5.148,5.148,0,0,0,5.14-5.14v-8.1a5.146,5.146,0,0,0-5.14-5.14Z" transform="translate(270.223 205.781)" fill="#fff"></path><path id="Path_398" data-name="Path 398" d="M178.406,149.6H160.587a6.2,6.2,0,0,1-6.2-6.2v-8.1a6.2,6.2,0,0,1,6.2-6.2h17.819a6.2,6.2,0,0,1,6.2,6.2v8.1a6.2,6.2,0,0,1-6.2,6.2m-17.819-19.436a5.145,5.145,0,0,0-5.14,5.14v8.1a5.146,5.146,0,0,0,5.14,5.14h17.819a5.148,5.148,0,0,0,5.14-5.14v-8.1a5.146,5.146,0,0,0-5.14-5.14Z" transform="translate(270.223 225.968)" fill="#fff"></path><path id="Path_399" data-name="Path 399" d="M178.406,161.133H160.587a6.2,6.2,0,0,1-6.2-6.2v-8.1a6.2,6.2,0,0,1,6.2-6.2h17.819a6.205,6.205,0,0,1,6.2,6.2v8.1a6.2,6.2,0,0,1-6.2,6.2M160.587,141.7a5.145,5.145,0,0,0-5.14,5.14v8.1a5.146,5.146,0,0,0,5.14,5.14h17.819a5.148,5.148,0,0,0,5.14-5.14v-8.1a5.146,5.146,0,0,0-5.14-5.14Z" transform="translate(270.223 246.152)" fill="#fff"></path><path id="Path_400" data-name="Path 400" d="M191.862,126.531H174.043a6.2,6.2,0,0,1-6.2-6.2v-8.1a6.2,6.2,0,0,1,6.2-6.2h17.819a6.2,6.2,0,0,1,6.2,6.2v8.1a6.2,6.2,0,0,1-6.2,6.2M174.043,107.1a5.145,5.145,0,0,0-5.14,5.14v8.1a5.145,5.145,0,0,0,5.14,5.14h17.819a5.146,5.146,0,0,0,5.14-5.14v-8.1a5.146,5.146,0,0,0-5.14-5.14Z" transform="translate(293.774 185.595)" fill="#fff"></path><path id="Path_401" data-name="Path 401" d="M191.862,138.064H174.043a6.2,6.2,0,0,1-6.2-6.2v-8.1a6.2,6.2,0,0,1,6.2-6.2h17.819a6.2,6.2,0,0,1,6.2,6.2v8.1a6.2,6.2,0,0,1-6.2,6.2m-17.819-19.436a5.144,5.144,0,0,0-5.14,5.14v8.1a5.146,5.146,0,0,0,5.14,5.14h17.819a5.148,5.148,0,0,0,5.14-5.14v-8.1a5.146,5.146,0,0,0-5.14-5.14Z" transform="translate(293.774 205.781)" fill="#fff"></path><path id="Path_402" data-name="Path 402" d="M191.862,149.6H174.043a6.2,6.2,0,0,1-6.2-6.2v-8.1a6.2,6.2,0,0,1,6.2-6.2h17.819a6.2,6.2,0,0,1,6.2,6.2v8.1a6.2,6.2,0,0,1-6.2,6.2m-17.819-19.436a5.144,5.144,0,0,0-5.14,5.14v8.1a5.146,5.146,0,0,0,5.14,5.14h17.819A5.148,5.148,0,0,0,197,143.4v-8.1a5.146,5.146,0,0,0-5.14-5.14Z" transform="translate(293.774 225.968)" fill="#fff"></path><path id="Path_403" data-name="Path 403" d="M191.862,161.133H174.043a6.2,6.2,0,0,1-6.2-6.2v-8.1a6.2,6.2,0,0,1,6.2-6.2h17.819a6.205,6.205,0,0,1,6.2,6.2v8.1a6.2,6.2,0,0,1-6.2,6.2M174.043,141.7a5.145,5.145,0,0,0-5.14,5.14v8.1a5.146,5.146,0,0,0,5.14,5.14h17.819a5.148,5.148,0,0,0,5.14-5.14v-8.1a5.146,5.146,0,0,0-5.14-5.14Z" transform="translate(293.774 246.152)" fill="#fff"></path><path id="Path_404" data-name="Path 404" d="M261.307,352.827h-106.3c-9.153,0-20.093-7.162-20.481-16.394l-8.072-269.31a16.827,16.827,0,0,1,4.728-12.45,17.266,17.266,0,0,1,12.58-5.344H284.087a17.272,17.272,0,0,1,12.582,5.344A16.844,16.844,0,0,1,301.4,67.13l-.44,14.695-1.422-.044.443-14.7a15.451,15.451,0,0,0-4.332-11.425,15.875,15.875,0,0,0-11.559-4.906H143.761A15.868,15.868,0,0,0,132.2,55.654a15.434,15.434,0,0,0-4.332,11.416l8.072,269.313c.355,8.457,10.539,15.025,19.062,15.025h106.3Z" transform="translate(221.299 86.336)" fill="#3f5a9f"></path><rect id="Rectangle_818" data-name="Rectangle 818" width="156.657" height="1.42" transform="translate(514.97 366.059) rotate(-88.335)" fill="#3f5a9f"></rect><path id="Path_405" data-name="Path 405" d="M254.394,46.672v58.281H148.754V46.672a15.258,15.258,0,0,0-4.873-10.2,15.6,15.6,0,0,0-10.616-4.178H238.9a15.584,15.584,0,0,1,10.616,4.178,15.21,15.21,0,0,1,4.873,10.2" transform="translate(233.247 56.517)" fill="#fff"></path><path id="Path_406" data-name="Path 406" d="M158.62,46.672H127.63a15.221,15.221,0,0,1,4.884-10.2,15.577,15.577,0,0,1,21.232,0,15.258,15.258,0,0,1,4.873,10.2" transform="translate(223.385 56.517)" fill="#2e4882"></path><path id="Path_407" data-name="Path 407" d="M254.868,105.725H148.282V46.971a14.746,14.746,0,0,0-4.725-9.857,15.093,15.093,0,0,0-10.291-4.048V32.12H238.9a16.03,16.03,0,0,1,10.938,4.3,15.663,15.663,0,0,1,5.025,10.52l0,.03Zm-105.64-.946H253.92V46.988a14.709,14.709,0,0,0-4.722-9.873A15.1,15.1,0,0,0,238.9,33.066H138.7a16.091,16.091,0,0,1,5.5,3.355,15.709,15.709,0,0,1,5.025,10.52Z" transform="translate(233.249 56.218)" fill="#2e4882"></path><path id="Path_408" data-name="Path 408" d="M257.634,63.611H138.853a3.711,3.711,0,0,1-2.618-6.339,3.639,3.639,0,0,1,2.618-1.089h6.48v.946h-6.48a2.708,2.708,0,0,0-1.947.811,2.763,2.763,0,0,0,1.947,4.725H257.634A2.78,2.78,0,0,0,260.4,59.9a2.773,2.773,0,0,0-2.764-2.772h-6.482v-.946h6.482a3.719,3.719,0,0,1,3.71,3.718,3.723,3.723,0,0,1-3.71,3.71" transform="translate(236.534 98.334)" fill="#2e4882"></path><path id="Path_409" data-name="Path 409" d="M181.317,169.172c0,2.618,19.23,4.75,42.945,4.75s42.942-2.131,42.942-4.75a.663.663,0,0,0-.019-.143V156.194H181.347V169a.546.546,0,0,0-.03.173" transform="translate(317.35 273.379)" fill="#f49b51"></path><path id="Path_410" data-name="Path 410" d="M181.319,159.26c0,2.624,19.227,4.75,42.942,4.75s42.942-2.126,42.942-4.75-19.227-4.75-42.942-4.75-42.942,2.126-42.942,4.75" transform="translate(317.354 270.431)" fill="#fcc659"></path><path id="Path_411" data-name="Path 411" d="M177.628,163.541c0,2.618,19.227,4.75,42.942,4.75s42.942-2.131,42.942-4.75a.652.652,0,0,0-.016-.143V150.563H177.656v12.805a.632.632,0,0,0-.028.173" transform="translate(310.894 263.523)" fill="#f49b51"></path><path id="Path_412" data-name="Path 412" d="M177.629,153.628c0,2.624,19.227,4.747,42.942,4.747s42.942-2.123,42.942-4.747-19.227-4.75-42.942-4.75-42.942,2.126-42.942,4.75" transform="translate(310.895 260.574)" fill="#fcc659"></path><path id="Path_413" data-name="Path 413" d="M181.317,157.91c0,2.618,19.23,4.75,42.945,4.75s42.942-2.131,42.942-4.75a.663.663,0,0,0-.019-.143V144.932H181.347v12.805a.546.546,0,0,0-.03.173" transform="translate(317.35 253.667)" fill="#f49b51"></path><path id="Path_414" data-name="Path 414" d="M181.319,148c0,2.621,19.227,4.747,42.942,4.747S267.2,150.618,267.2,148s-19.227-4.75-42.942-4.75-42.942,2.126-42.942,4.75" transform="translate(317.354 250.718)" fill="#fcc659"></path><path id="Path_415" data-name="Path 415" d="M198.852,166.168c17.467,0,43.451-1.4,43.451-5.256h-1.015c0,1.48-14.574,4.241-42.436,4.241-1.012,0-2.019,0-3.011-.011l-.008,1.015c1,.008,2,.011,3.02.011" transform="translate(342.755 281.636)" fill="#2e4882"></path><path id="Path_416" data-name="Path 416" d="M198.315,163.865l.047-1.012c-4.348-.209-8.333-.5-11.851-.847l-.1,1.009c3.531.355,7.536.641,11.9.85" transform="translate(326.268 283.551)" fill="#2e4882"></path><path id="Path_417" data-name="Path 417" d="M203.151,159.432c16.138-1.469,16.138-3.5,16.138-4.172h-1.015c0,.5-2.734,2.027-15.214,3.163Z" transform="translate(355.406 271.744)" fill="#2e4882"></path><path id="Path_418" data-name="Path 418" d="M200.359,157.983c4.827,0,9.568-.088,14.092-.261l-.038-1.015c-8.08.311-17.01.346-25.335.093l-.027,1.015c3.685.11,7.489.168,11.309.168" transform="translate(330.885 274.277)" fill="#2e4882"></path><path id="Path_419" data-name="Path 419" d="M192.776,158.309l.069-1.012c-4.582-.3-8.575-.69-11.873-1.158l-.143,1c3.325.47,7.343.864,11.947,1.166" transform="translate(316.496 273.283)" fill="#2e4882"></path><path id="Path_420" data-name="Path 420" d="M207.5,148.988c14.312-1.46,14.312-3.3,14.312-4h-1.015c0,.017-.363,1.658-13.4,2.987Z" transform="translate(362.992 253.772)" fill="#2e4882"></path><path id="Path_421" data-name="Path 421" d="M212.462,148.088c4.937,0,9.766-.091,14.351-.272l-.041-1.015c-4.571.182-9.387.272-14.31.272-8.812,0-17.277-.294-24.477-.847l-.077,1.009c7.225.558,15.715.853,24.554.853" transform="translate(328.886 255.932)" fill="#2e4882"></path><path id="Path_422" data-name="Path 422" d="M175.783,152.278c0,2.618,19.23,4.75,42.945,4.75s42.942-2.131,42.942-4.75a.664.664,0,0,0-.019-.143V139.3H175.813v12.805a.547.547,0,0,0-.03.173" transform="translate(307.664 243.81)" fill="#f49b51"></path><path id="Path_423" data-name="Path 423" d="M175.784,142.366c0,2.621,19.227,4.75,42.942,4.75s42.942-2.129,42.942-4.75-19.227-4.75-42.942-4.75-42.942,2.126-42.942,4.75" transform="translate(307.666 240.863)" fill="#fcc659"></path><path id="Path_424" data-name="Path 424" d="M178.68,141.375c0,1.763,15.66,3.193,34.978,3.193s34.978-1.43,34.978-3.193-15.66-3.193-34.978-3.193-34.978,1.43-34.978,3.193" transform="translate(312.735 241.853)" fill="#f49b51"></path><rect id="Rectangle_819" data-name="Rectangle 819" width="22.956" height="2.838" transform="translate(453.401 114.427)" fill="#e1eaff"></rect><rect id="Rectangle_820" data-name="Rectangle 820" width="46.157" height="2.838" transform="translate(396.608 114.427)" fill="#e1eaff"></rect><rect id="Rectangle_821" data-name="Rectangle 821" width="53.165" height="2.838" transform="translate(423.192 126.732)" fill="#e1eaff"></rect><rect id="Rectangle_822" data-name="Rectangle 822" width="20.058" height="2.838" transform="translate(396.608 126.732)" fill="#e1eaff"></rect><rect id="Rectangle_823" data-name="Rectangle 823" width="21.749" height="2.841" transform="translate(444.699 139.98)" fill="#e1eaff"></rect><rect id="Rectangle_824" data-name="Rectangle 824" width="38.908" height="2.841" transform="translate(396.608 139.98)" fill="#e1eaff"></rect><rect id="Rectangle_825" data-name="Rectangle 825" width="28.787" height="1.419" transform="translate(405.115 260.27)" fill="#3f5a9f"></rect><path id="Path_425" data-name="Path 425" d="M209.6,139.88H161.829v-1.419H209.6a3.377,3.377,0,0,0,3.383-3.256l2.5-65.61,1.419.052-2.505,65.613a4.788,4.788,0,0,1-4.8,4.62" transform="translate(283.241 121.809)" fill="#3f5a9f"></path><path id="Path_426" data-name="Path 426" d="M104.541,59.094A29.108,29.108,0,1,0,127.4,93.329a29.106,29.106,0,0,0-22.863-34.235m17.294,33.127a23.429,23.429,0,1,1-19.043-27.676c.215.039.426.08.641.121A23.457,23.457,0,0,1,121.95,91.591c-.038.209-.074.421-.116.63" transform="translate(122.06 102.436)" fill="#fcc659"></path><path id="Path_427" data-name="Path 427" d="M118.33,87.977c-.036.209-.072.421-.115.63A23.431,23.431,0,1,1,99.172,60.931c.217.036.426.077.641.121A23.457,23.457,0,0,1,118.33,87.977" transform="translate(125.678 106.05)" fill="#f49b51"></path><path id="Path_428" data-name="Path 428" d="M82.2,97.891l.745-4.345a12.7,12.7,0,0,1-6.26-3.02l1.526-2.706a11.629,11.629,0,0,0,5.877,2.91c3.056.523,5.424-.886,5.842-3.339.4-2.365-1.023-4.117-3.985-5.952-4.092-2.472-6.466-4.917-5.825-8.661.611-3.57,3.614-5.847,7.681-5.814l.745-4.345,2.668.457L90.5,67.25a11.638,11.638,0,0,1,5.336,2.461l-1.562,2.654a10.587,10.587,0,0,0-5.17-2.39c-3.314-.567-4.9,1.2-5.192,2.921-.385,2.236,1.018,3.628,4.494,5.817,4.123,2.566,5.976,5.187,5.322,9.015-.58,3.4-3.493,6.18-8.05,6.152l-.765,4.475Z" transform="translate(134.225 109.599)" fill="#fcc659"></path><path id="Path_429" data-name="Path 429" d="M95.013,79.553c-.016-.2-.039-.393-.061-.589a23.149,23.149,0,0,0-9.8-16.433l.363-.52A23.767,23.767,0,0,1,95.58,78.855c.028.242.049.443.066.646Z" transform="translate(149.036 108.537)" fill="#2e4882"></path><path id="Path_430" data-name="Path 430" d="M94.812,65.233a23.1,23.1,0,0,0-15.126-4.046l-.055-.633A23.741,23.741,0,0,1,95.175,64.71Z" transform="translate(139.374 105.836)" fill="#2e4882"></path><path id="Path_431" data-name="Path 431" d="M87.273,79.952l-.487-.41a22.956,22.956,0,0,0,4.37-7.893l.605.193a23.6,23.6,0,0,1-4.488,8.11" transform="translate(151.897 125.404)" fill="#2e4882"></path><path id="Path_432" data-name="Path 432" d="M92.644,66.669a28.768,28.768,0,0,0-6.6-5.957l.374-.569a29.446,29.446,0,0,1,6.755,6.1Z" transform="translate(150.597 105.265)" fill="#2e4882"></path><path id="Path_433" data-name="Path 433" d="M84.893,103.219l-.281-.622A28.772,28.772,0,0,0,99.359,65.241l.63-.264a29.458,29.458,0,0,1-15.1,38.242" transform="translate(148.092 113.726)" fill="#2e4882"></path><path id="Path_434" data-name="Path 434" d="M200.8,103.48a27.022,27.022,0,1,1-19.521-32.855A27.025,27.025,0,0,1,200.8,103.48" transform="translate(258.314 122.139)" fill="url(#linear-gradient)"></path><path id="Path_435" data-name="Path 435" d="M164.934,104.529l-12.4-12.75,1.359-1.32,10.509,10.811,13.517-28.02,1.705.822Z" transform="translate(266.981 128.207)" fill="#fff"></path><path id="Path_436" data-name="Path 436" d="M73.461,67.173A12.616,12.616,0,0,1,79.2,73.188a12.656,12.656,0,0,1,5.743-6.026A12.633,12.633,0,0,1,79.2,61.147a12.639,12.639,0,0,1-5.734,6.026" transform="translate(128.575 107.023)" fill="#ffe6a6"></path><path id="Path_437" data-name="Path 437" d="M81.932,79.032a7.337,7.337,0,0,1,3.333,3.5,7.341,7.341,0,0,1,3.336-3.5,7.342,7.342,0,0,1-3.336-3.5,7.348,7.348,0,0,1-3.333,3.5" transform="translate(143.402 132.198)" fill="#ffe6a6"></path></g></svg>