<svg xmlns="http://www.w3.org/2000/svg" id="retail-payments" width="80" height="80" viewBox="0 0 80 80"><g id="Ellipse_31" data-name="Ellipse 31" fill="#fff" stroke="rgba(13,21,39,0.15)" stroke-width="1"><circle cx="40" cy="40" r="40" stroke="none"></circle><circle cx="40" cy="40" r="39.5" fill="none"></circle></g><g id="Retail_and_Restaurants_icon" data-name="Retail and Restaurants icon" transform="translate(-804.772 -509.772)"><path id="rect56656-7-4-8" d="M830.654,554.164a.653.653,0,0,0-.653.653v20.776a.653.653,0,0,0,.652.653h30.019a.653.653,0,0,0,.653-.653V554.817a.653.653,0,0,0-.653-.653Z" transform="translate(-1.39 -7.7)" fill="#d1dcf9"></path><path id="path58259-8-8-62" d="M830.568,532a.652.652,0,0,0-.616.436l-3.916,11.094a.649.649,0,0,0-.037.217V545.7a5.05,5.05,0,0,0,9.463,2.468,5.039,5.039,0,0,0,8.81,0,5.039,5.039,0,0,0,8.81,0,5.052,5.052,0,0,0,9.462-2.468v-1.958a.654.654,0,0,0-.037-.217l-3.916-11.094a.653.653,0,0,0-.616-.436H830.568Z" transform="translate(0)" fill="#1b53e0"></path><path id="path116574-9" d="M842.574,532,840.5,543.747v4.425a5.039,5.039,0,0,0,8.81,0V532Zm13.472,0,2.074,11.747v4.425a5.052,5.052,0,0,0,9.463-2.468v-1.958a.652.652,0,0,0-.037-.217l-3.916-11.094a.653.653,0,0,0-.616-.436Z" transform="translate(-5.038)" fill="#1240b2"></path><path id="rect61906-3-2-12" d="M844.513,579.376V566.608a.608.608,0,0,0-.608-.608h-7.3a.608.608,0,0,0-.608.608v12.768Z" transform="translate(-3.162 -10.832)" fill="#5e86e9"></path><path id="rect62099-0-3-5" d="M854.616,566a.615.615,0,0,0-.615.615v6.147a.615.615,0,0,0,.615.615h9.835a.615.615,0,0,0,.615-.615v-6.147a.615.615,0,0,0-.615-.615Z" transform="translate(-9.387 -11.617)" fill="#5e86e9"></path><path id="path123216-33" d="M862.545,550H826v1.958a5.049,5.049,0,0,0,9.462,2.468,5.039,5.039,0,0,0,8.81,0,5.039,5.039,0,0,0,8.81,0,5.052,5.052,0,0,0,9.463-2.468Z" transform="translate(0 -6.253)" fill="#5e86e9"></path><path id="path123047-0" d="M840.5,550v4.425a5.039,5.039,0,0,0,8.81,0V550Zm17.62,0v4.425a5.052,5.052,0,0,0,9.463-2.468V550Z" transform="translate(-5.037 -6.253)" fill="#1b53e0"></path></g></svg>