<svg xmlns="http://www.w3.org/2000/svg" id="virtual-terminal-payments" width="80" height="80" viewBox="0 0 80 80"><g id="Ellipse_31" data-name="Ellipse 31" fill="#fff" stroke="rgba(13,21,39,0.15)" stroke-width="1"><circle cx="40" cy="40" r="40" stroke="none"></circle><circle cx="40" cy="40" r="39.5" fill="none"></circle></g><g id="mobile-payment_1_" data-name="mobile-payment (1)" transform="translate(19.556 -8.347)"><g id="Group_6616" data-name="Group 6616" transform="translate(15.85 27.149)"><g id="Group_6609" data-name="Group 6609" transform="translate(0.692 0.692)"><path id="Path_580" data-name="Path 580" d="M197.416,35.792a1.148,1.148,0,0,0-1.148-1.148H180.229a1.148,1.148,0,0,0-1.148,1.148V65.624a1.148,1.148,0,0,0,1.148,1.148h16.039a1.148,1.148,0,0,0,1.148-1.148Z" transform="translate(-179.081 -34.644)" fill="#d1dcf9"></path></g><g id="Group_6611" data-name="Group 6611" transform="translate(5.142 0.692)"><path id="Path_582" data-name="Path 582" d="M236.691,34.644h-9.435l1.59,2.434a1.385,1.385,0,0,0,1.159.627h3.936a1.385,1.385,0,0,0,1.159-.627Z" transform="translate(-227.256 -34.644)" fill="#1b53e0"></path></g><g id="Group_6613" data-name="Group 6613" transform="translate(0 0)"><path id="Path_584" data-name="Path 584" d="M189.465,60.662H173.426a1.842,1.842,0,0,1-1.84-1.84V28.989a1.842,1.842,0,0,1,1.84-1.84h16.039a1.843,1.843,0,0,1,1.84,1.84V58.822A1.842,1.842,0,0,1,189.465,60.662ZM173.426,28.534a.456.456,0,0,0-.456.456V58.821a.456.456,0,0,0,.456.456h16.039a.456.456,0,0,0,.456-.456V28.989a.456.456,0,0,0-.456-.456H173.426Z" transform="translate(-171.586 -27.149)" fill="#1b53e0"></path></g><path id="Path_585" data-name="Path 585" d="M256.4,122.761a.711.711,0,0,0,.671-.721v-.122a2.062,2.062,0,0,0,1.338-1.6,1.854,1.854,0,0,0-1.258-2.1,4.8,4.8,0,0,1-1.2-.554.274.274,0,0,1-.029-.222.394.394,0,0,1,.251-.311.827.827,0,0,1,.762.113l-.012-.011.153.065a.686.686,0,0,0,.785-1.083,2.027,2.027,0,0,0-.789-.422v-.035a.711.711,0,0,0-.671-.721.692.692,0,0,0-.713.692v.106a1.768,1.768,0,0,0-1.126,1.351,1.592,1.592,0,0,0,.535,1.567,5.777,5.777,0,0,0,1.594.77.472.472,0,0,1,.354.564.669.669,0,0,1-.669.569,1.236,1.236,0,0,1-.9-.222.713.713,0,0,0-.968.165.692.692,0,0,0,.186.978,2.523,2.523,0,0,0,.99.42v.072A.692.692,0,0,0,256.4,122.761Z" transform="translate(-246.736 -106.92)" fill="#5e86e9"></path></g><g id="Group_6619" data-name="Group 6619" transform="translate(8.131 36.787)"><g id="Group_6617" data-name="Group 6617" transform="translate(3.206 1.979)"><path id="Path_588" data-name="Path 588" d="M124.057,157.429a.69.69,0,0,1-.5-.214,2.958,2.958,0,0,1,0-4.088.692.692,0,1,1,1,.956,1.573,1.573,0,0,0,0,2.175.692.692,0,0,1-.5,1.171Z" transform="translate(-122.737 -152.913)" fill="#1b53e0"></path></g><g id="Group_6618" data-name="Group 6618" transform="translate(0 0)"><path id="Path_589" data-name="Path 589" d="M90.021,139.967a.691.691,0,0,1-.528-.244,6.165,6.165,0,0,1,0-7.986.692.692,0,1,1,1.055.9,4.781,4.781,0,0,0,0,6.192.692.692,0,0,1-.527,1.141Z" transform="translate(-88.026 -131.493)" fill="#1b53e0"></path></g></g><g id="Group_6630" data-name="Group 6630" transform="translate(0 47.374)"><g id="Group_6620" data-name="Group 6620" transform="translate(2.186 7.639)"><path id="Path_590" data-name="Path 590" d="M44.177,338.208H23.662v-8.025a1.386,1.386,0,0,1,1.386-1.386H42.791a1.386,1.386,0,0,1,1.386,1.386Z" transform="translate(-23.662 -328.798)" fill="#1b53e0"></path></g><g id="Group_6622" data-name="Group 6622" transform="translate(5.418)"><path id="Path_592" data-name="Path 592" d="M72.7,262.538V246.477a.208.208,0,0,0-.34-.161l-.933.767a.208.208,0,0,1-.264,0l-1.141-.938a.208.208,0,0,0-.264,0l-1.141.938a.208.208,0,0,1-.264,0l-1.141-.938a.208.208,0,0,0-.264,0l-1.141.938a.208.208,0,0,1-.264,0l-1.141-.938a.208.208,0,0,0-.264,0L63,247.083a.208.208,0,0,1-.264,0l-1.141-.938a.208.208,0,0,0-.264,0l-1.141.938a.208.208,0,0,1-.264,0l-.933-.767a.208.208,0,0,0-.34.161v16.062Z" transform="translate(-58.65 -246.098)" fill="#d1dcf9"></path></g><g id="Group_6626" data-name="Group 6626" transform="translate(7.985 5.175)"><g id="Group_6623" data-name="Group 6623" transform="translate(0 3.171)"><path id="Path_593" data-name="Path 593" d="M89.238,337.827h-2.1a.692.692,0,1,1,0-1.385h2.1a.692.692,0,1,1,0,1.385Z" transform="translate(-86.447 -336.442)" fill="#5e86e9"></path></g><g id="Group_6624" data-name="Group 6624" transform="translate(0 6.317)"><path id="Path_594" data-name="Path 594" d="M90.952,371.887H87.139a.692.692,0,1,1,0-1.385h3.813a.692.692,0,0,1,0,1.385Z" transform="translate(-86.447 -370.502)" fill="#5e86e9"></path></g><g id="Group_6625" data-name="Group 6625"><path id="Path_595" data-name="Path 595" d="M90.952,303.5H87.139a.692.692,0,1,1,0-1.385h3.813a.692.692,0,1,1,0,1.385Z" transform="translate(-86.447 -302.118)" fill="#5e86e9"></path></g></g><g id="Group_6627" data-name="Group 6627" transform="translate(17.089 0.17)" opacity="0.05"><path id="Path_596" data-name="Path 596" d="M187.044,247.991l-.933.767a.208.208,0,0,1-.264,0l-.842-.692v16.148h2.38V248.152A.208.208,0,0,0,187.044,247.991Z" transform="translate(-185.004 -247.944)" fill="#0d1527"></path></g><g id="Group_6628" data-name="Group 6628" transform="translate(0 15.954)"><path id="Path_597" data-name="Path 597" d="M24.886,424.074V420.13a1.313,1.313,0,0,0-1.313-1.313H22.7l-1.283.035-1.445-.035H1.313A1.313,1.313,0,0,0,0,420.13v3.945a.462.462,0,0,0,.462.462H24.425a.462.462,0,0,0,.462-.462Z" transform="translate(0 -418.817)" fill="#1240b2"></path></g><g id="Group_6629" data-name="Group 6629" transform="translate(19.991 15.954)"><path id="Path_598" data-name="Path 598" d="M217.73,420.13v4.406h3.121a.462.462,0,0,0,.462-.462V420.13A1.313,1.313,0,0,0,220,418.817h-3.583A1.313,1.313,0,0,1,217.73,420.13Z" transform="translate(-216.418 -418.817)" fill="#1240b2"></path></g></g></g></svg>