<svg xmlns="http://www.w3.org/2000/svg" xmlns:xlink="http://www.w3.org/1999/xlink" width="594.541" height="333.965" viewBox="0 0 594.541 333.965"><defs><clipPath id="clip-path"><rect id="Rectangle_845" data-name="Rectangle 845" width="594.541" height="333.965" fill="none"></rect></clipPath></defs><g id="Group_6581" data-name="Group 6581" clip-path="url(#clip-path)"><path id="Path_440" data-name="Path 440" d="M522.115,158.713c0,6.585-112.046,11.926-250.259,11.926S21.595,165.3,21.595,158.713s112.046-11.926,250.261-11.926,250.259,5.341,250.259,11.926" transform="translate(24.028 163.326)" opacity="0.15"></path><path id="Path_441" data-name="Path 441" d="M305.768,66.875l-.019.735c-.693,30.192-5.015,53.529-11.208,71.565L278.5,148.021l12.881-1.308.368-.036c-7.984,19.76-18.247,32.261-27.737,40.147a66.485,66.485,0,0,1-16.084,10.029c-.3.131-.6.258-.892.378-.735.308-1.447.579-2.123.826h-8.569c-.1-.4-.186-.8-.27-1.2-.061-.254-.114-.507-.163-.761-.078-.332-.146-.67-.211-1-8.062-39.442,6.289-69.815,24.072-91.071a1.717,1.717,0,0,1,.175-.211,150.7,150.7,0,0,1,19-18.82l3.275,9.818,1.246-13.447a148.524,148.524,0,0,1,21.792-14.225c.338-.175.513-.26.513-.26" transform="translate(259.698 74.41)" fill="#9aade5"></path><path id="Path_442" data-name="Path 442" d="M305.7,67.117l-.313.579L285.915,103.52l-.349.634-5.307,9.767-.182.325-16.925,31.141-.025.042-27.581,50.749-.416.758-.657,1.206h-.748l.651-1.206.959-1.76,27.22-50.079.507-.93,41.829-76.95.23-.42Z" transform="translate(260.061 74.324)" fill="#fff"></path><path id="Path_443" data-name="Path 443" d="M255.922,96.959l-.3-.49,22.54-13.832.3.492Z" transform="translate(284.425 91.949)" fill="#fff"></path><rect id="Rectangle_829" data-name="Rectangle 829" width="20.729" height="0.575" transform="translate(545.435 178.16) rotate(-31.475)" fill="#fff"></rect><rect id="Rectangle_830" data-name="Rectangle 830" width="0.574" height="41.686" transform="translate(519.454 178.233) rotate(-4.392)" fill="#fff"></rect><path id="Path_444" data-name="Path 444" d="M233,161.609s19.754,10.629,49.468-5.043l-9.112-4.923,15.22,1.409c11.658-7.278,24.63-18.623,38.389-36l-3.477-1.876,4.614.425q3.483-4.456,7.029-9.448a111.9,111.9,0,0,0-20.592-.427l-6.649,8.083,2.168-7.718c-24.932,2.459-61.62,13.536-77.058,55.517" transform="translate(259.256 117.353)" fill="#bac8f3"></path><rect id="Rectangle_831" data-name="Rectangle 831" width="116.563" height="0.649" transform="translate(490.671 276.699) rotate(-27.309)" fill="#fff"></rect><rect id="Rectangle_832" data-name="Rectangle 832" width="0.603" height="14.483" transform="translate(567.369 237.971) rotate(-81.122)" fill="#fff"></rect><rect id="Rectangle_833" data-name="Rectangle 833" width="0.603" height="17.067" transform="translate(560.252 241.495) rotate(-76.9)" fill="#fff"></rect><path id="Path_445" data-name="Path 445" d="M245.374,123.768l-.475-.594a88.738,88.738,0,0,1,31.432-15.782l.207.733a88.035,88.035,0,0,0-31.164,15.642" transform="translate(272.493 119.494)" fill="#2e4882"></path><path id="Path_446" data-name="Path 446" d="M316.778,28.029V288.006a6.571,6.571,0,0,1-6.575,6.575H182.414a6.578,6.578,0,0,1-6.577-6.575V28.029a6.573,6.573,0,0,1,6.577-6.575H310.2a6.566,6.566,0,0,1,6.575,6.575" transform="translate(195.65 23.871)" fill="#446bd0"></path><path id="Path_447" data-name="Path 447" d="M313.9,28.029V288.006a6.571,6.571,0,0,1-6.575,6.575H179.532a6.577,6.577,0,0,1-6.575-6.575V28.029a6.571,6.571,0,0,1,6.575-6.575H307.321a6.566,6.566,0,0,1,6.575,6.575" transform="translate(192.445 23.871)" fill="#1b53e0"></path><path id="Path_448" data-name="Path 448" d="M299.119,41.327V247.389a7.368,7.368,0,0,1-7.111,7.6H184.648a7.368,7.368,0,0,1-7.111-7.6V41.327a7.366,7.366,0,0,1,7.111-7.6h107.36a7.366,7.366,0,0,1,7.111,7.6" transform="translate(197.541 37.531)" fill="#e1eaff"></path><path id="Path_449" data-name="Path 449" d="M233.755,28.054H198.241a.634.634,0,1,1,0-1.268h35.514a.634.634,0,1,1,0,1.268" transform="translate(219.873 29.804)" fill="#2e4882"></path><path id="Path_450" data-name="Path 450" d="M258.08,114.947H195.143a7.1,7.1,0,0,1-7.075-7.077v-2.708a7.1,7.1,0,0,1,7.075-7.077H258.08a7.1,7.1,0,0,1,7.075,7.077v2.708a7.1,7.1,0,0,1-7.075,7.077" transform="translate(209.259 109.136)" fill="#5e86e9"></path><path id="Path_451" data-name="Path 451" d="M295,257.312H184.9a8.982,8.982,0,0,1-8.816-9.12V42.129a8.983,8.983,0,0,1,8.816-9.12H295a8.983,8.983,0,0,1,8.816,9.12V248.191a8.982,8.982,0,0,1-8.816,9.12M184.9,36.053a5.937,5.937,0,0,0-5.772,6.076V248.191a5.937,5.937,0,0,0,5.772,6.076H295a5.937,5.937,0,0,0,5.772-6.076V42.129A5.937,5.937,0,0,0,295,36.053Z" transform="translate(195.921 36.728)" fill="#fff"></path><path id="Path_452" data-name="Path 452" d="M184.258,123.943H286.011a3.819,3.819,0,0,0,3.809-3.809V54.647a3.819,3.819,0,0,0-3.809-3.807H184.258a3.82,3.82,0,0,0-3.809,3.807v65.487a3.821,3.821,0,0,0,3.809,3.809" transform="translate(200.781 56.568)" fill="#5e86e9"></path><path id="Path_453" data-name="Path 453" d="M203.669,77.573H185.35a1.035,1.035,0,0,1-1.031-1.031V73.02a1.035,1.035,0,0,1,1.031-1.031h18.319A1.034,1.034,0,0,1,204.7,73.02v3.522a1.034,1.034,0,0,1-1.031,1.031" transform="translate(205.087 80.1)" fill="#fff"></path><path id="Path_454" data-name="Path 454" d="M215.13,77.573H196.811a1.035,1.035,0,0,1-1.031-1.031V73.02a1.035,1.035,0,0,1,1.031-1.031H215.13a1.035,1.035,0,0,1,1.031,1.031v3.522a1.035,1.035,0,0,1-1.031,1.031" transform="translate(217.84 80.1)" fill="#fff"></path><path id="Path_455" data-name="Path 455" d="M226.591,77.573H208.272a1.035,1.035,0,0,1-1.031-1.031V73.02a1.035,1.035,0,0,1,1.031-1.031h18.319a1.034,1.034,0,0,1,1.031,1.031v3.522a1.034,1.034,0,0,1-1.031,1.031" transform="translate(230.592 80.1)" fill="#fff"></path><path id="Path_456" data-name="Path 456" d="M238.051,77.573H219.732a1.035,1.035,0,0,1-1.031-1.031V73.02a1.035,1.035,0,0,1,1.031-1.031h18.319a1.034,1.034,0,0,1,1.031,1.031v3.522a1.034,1.034,0,0,1-1.031,1.031" transform="translate(243.343 80.1)" fill="#fff"></path><path id="Path_457" data-name="Path 457" d="M241.107,82.743h-24.1a1.258,1.258,0,0,1-1.255-1.255V78.414a1.259,1.259,0,0,1,1.255-1.255h24.1a1.259,1.259,0,0,1,1.255,1.255v3.074a1.258,1.258,0,0,1-1.255,1.255" transform="translate(240.063 85.853)" fill="#fff"></path><path id="Path_458" data-name="Path 458" d="M186.52,66.443V59.112a2.911,2.911,0,0,1,2.907-2.907h14.246a2.909,2.909,0,0,1,2.9,2.907v7.331a2.909,2.909,0,0,1-2.9,2.907H189.427a2.911,2.911,0,0,1-2.907-2.907m2.907-9.458a2.131,2.131,0,0,0-2.127,2.127v7.331a2.131,2.131,0,0,0,2.127,2.127h14.246a2.129,2.129,0,0,0,2.125-2.127V59.112a2.129,2.129,0,0,0-2.125-2.127Z" transform="translate(207.536 62.538)" fill="#fff"></path><path id="Path_459" data-name="Path 459" d="M226.749,65.4a.345.345,0,0,1,.1-.249,8.227,8.227,0,0,0,0-11.62.353.353,0,0,1,.5-.5,8.934,8.934,0,0,1,0,12.617.352.352,0,0,1-.5,0,.345.345,0,0,1-.1-.249" transform="translate(252.298 58.895)" fill="#fff"></path><path id="Path_460" data-name="Path 460" d="M225.912,54.24a.345.345,0,0,1,.1-.249.349.349,0,0,1,.5,0,6.07,6.07,0,0,1,0,8.577.353.353,0,0,1-.5-.5,5.364,5.364,0,0,0,0-7.578.349.349,0,0,1-.1-.249" transform="translate(251.367 59.958)" fill="#fff"></path><path id="Path_461" data-name="Path 461" d="M225.11,59.457a.345.345,0,0,1,.1-.249,2.711,2.711,0,0,0,0-3.83.353.353,0,1,1,.5-.5,3.417,3.417,0,0,1,0,4.827.352.352,0,0,1-.5,0,.345.345,0,0,1-.1-.249" transform="translate(250.475 60.946)" fill="#fff"></path><path id="Path_462" data-name="Path 462" d="M314.768,236.867h-1.141V28.329a6.011,6.011,0,0,0-6-6H179.831a6.011,6.011,0,0,0-6,6V206.945h-1.141V28.329a7.153,7.153,0,0,1,7.145-7.145H307.623a7.153,7.153,0,0,1,7.145,7.145Z" transform="translate(192.144 23.571)" fill="#2e4882"></path><path id="Path_463" data-name="Path 463" d="M194.527,170.6h-14.7a7.155,7.155,0,0,1-7.145-7.147V133.392h1.141v30.063a6.012,6.012,0,0,0,6,6.006h14.7Z" transform="translate(192.144 148.422)" fill="#2e4882"></path><rect id="Rectangle_834" data-name="Rectangle 834" width="13.601" height="1.141" transform="translate(431.377 317.884)" fill="#2e4882"></rect><path id="Path_464" data-name="Path 464" d="M277.847,155.317c0,1.963-14.421,3.562-32.206,3.562s-32.206-1.6-32.206-3.562a.456.456,0,0,1,.015-.106v-9.627h64.373v9.6a.385.385,0,0,1,.023.129" transform="translate(237.485 161.988)" fill="#f49b51"></path><path id="Path_465" data-name="Path 465" d="M277.844,147.5c0,1.967-14.419,3.562-32.2,3.562s-32.206-1.6-32.206-3.562,14.419-3.562,32.206-3.562,32.2,1.6,32.2,3.562" transform="translate(237.484 160.159)" fill="#fcc659"></path><path id="Path_466" data-name="Path 466" d="M281.449,149.82c0,1.963-14.421,3.562-32.206,3.562s-32.206-1.6-32.206-3.562a.456.456,0,0,1,.015-.106v-9.627h64.373v9.6a.387.387,0,0,1,.023.129" transform="translate(241.493 155.871)" fill="#f49b51"></path><path id="Path_467" data-name="Path 467" d="M281.446,142c0,1.967-14.419,3.562-32.2,3.562s-32.206-1.6-32.206-3.562,14.419-3.56,32.206-3.56,32.2,1.593,32.2,3.56" transform="translate(241.492 154.042)" fill="#fcc659"></path><path id="Path_468" data-name="Path 468" d="M277.847,144.322c0,1.963-14.421,3.562-32.206,3.562s-32.206-1.6-32.206-3.562a.456.456,0,0,1,.015-.106v-9.627h64.373v9.6a.386.386,0,0,1,.023.129" transform="translate(237.485 149.754)" fill="#f49b51"></path><path id="Path_469" data-name="Path 469" d="M277.844,136.507c0,1.967-14.419,3.562-32.2,3.562s-32.206-1.6-32.206-3.562,14.419-3.562,32.206-3.562,32.2,1.6,32.2,3.562" transform="translate(237.484 147.925)" fill="#fcc659"></path><path id="Path_470" data-name="Path 470" d="M245.843,154.132c-13.1,0-32.586-1.05-32.586-3.942h.761c0,1.109,10.931,3.182,31.825,3.182.758,0,1.513,0,2.258-.008l.006.761c-.748.006-1.5.008-2.265.008" transform="translate(237.286 167.113)" fill="#2e4882"></path><path id="Path_471" data-name="Path 471" d="M234.745,152.652l-.038-.761c3.262-.156,6.251-.37,8.888-.634l.078.756c-2.651.266-5.656.482-8.928.638" transform="translate(261.153 168.301)" fill="#2e4882"></path><path id="Path_472" data-name="Path 472" d="M229.038,147.8c-12.1-1.1-12.1-2.626-12.1-3.129h.763c0,.372,2.049,1.519,11.408,2.37Z" transform="translate(241.378 160.973)" fill="#2e4882"></path><path id="Path_473" data-name="Path 473" d="M237.927,147.042c-3.621,0-7.177-.066-10.57-.2l.032-.761c6.057.232,12.756.26,19,.072l.023.761c-2.763.082-5.618.125-8.482.125" transform="translate(252.975 162.545)" fill="#2e4882"></path><path id="Path_474" data-name="Path 474" d="M240.186,147.158l-.051-.761c3.435-.224,6.431-.518,8.9-.866l.108.752c-2.493.353-5.508.646-8.96.875" transform="translate(267.192 161.929)" fill="#2e4882"></path><path id="Path_475" data-name="Path 475" d="M224.085,137.645c-10.737-1.094-10.737-2.476-10.737-3h.765c0,.013.273,1.244,10.046,2.242Z" transform="translate(237.387 149.818)" fill="#2e4882"></path><path id="Path_476" data-name="Path 476" d="M234.441,137.248c-3.7,0-7.325-.068-10.762-.2l.03-.763c3.429.135,7.039.2,10.732.2,6.608,0,12.957-.22,18.357-.636l.057.756c-5.419.42-11.785.64-18.414.64" transform="translate(248.882 151.159)" fill="#2e4882"></path><path id="Path_477" data-name="Path 477" d="M283.25,138.824c0,1.963-14.421,3.562-32.206,3.562s-32.206-1.6-32.206-3.562a.488.488,0,0,1,.015-.108v-9.625h64.373v9.6a.385.385,0,0,1,.023.129" transform="translate(243.497 143.636)" fill="#f49b51"></path><path id="Path_478" data-name="Path 478" d="M283.247,131.009c0,1.967-14.419,3.562-32.2,3.562s-32.206-1.6-32.206-3.562,14.419-3.562,32.206-3.562,32.2,1.6,32.2,3.562" transform="translate(243.496 141.807)" fill="#fcc659"></path><path id="Path_479" data-name="Path 479" d="M274.129,130.395c0,1.323-11.744,2.4-26.231,2.4s-26.233-1.073-26.233-2.4S233.409,128,247.9,128s26.231,1.073,26.231,2.4" transform="translate(246.641 142.421)" fill="#f49b51"></path><path id="Path_480" data-name="Path 480" d="M212.126,121.02a32.532,32.532,0,1,0,31.637,33.4,32.53,32.53,0,0,0-31.637-33.4m25.3,33.232a26.182,26.182,0,1,1-26.193-26.9c.245,0,.482.008.729.015a26.208,26.208,0,0,1,25.47,26.165c0,.239,0,.477-.006.716" transform="translate(198.849 134.643)" fill="#fcc659"></path><path id="Path_481" data-name="Path 481" d="M234.085,150.2c0,.239,0,.477-.006.716a26.183,26.183,0,1,1-26.2-26.9c.245,0,.484.008.729.015A26.213,26.213,0,0,1,234.085,150.2" transform="translate(202.194 137.986)" fill="#f49b51"></path><path id="Path_482" data-name="Path 482" d="M197.258,166.979v-4.927a14.21,14.21,0,0,1-7.464-2.146l1.173-3.268a13,13,0,0,0,7.023,2.1c3.465,0,5.806-2,5.806-4.781,0-2.683-1.9-4.342-5.512-5.806-4.975-1.95-8.049-4.194-8.049-8.438,0-4.05,2.877-7.124,7.367-7.855v-4.927h3.023v4.732a13.023,13.023,0,0,1,6.342,1.707l-1.219,3.22a11.8,11.8,0,0,0-6.148-1.658c-3.754,0-5.17,2.244-5.17,4.2,0,2.535,1.8,3.8,6.049,5.561,5.024,2.049,7.561,4.585,7.561,8.926,0,3.854-2.683,7.464-7.707,8.294v5.073Z" transform="translate(211.179 141.231)" fill="#fcc659"></path><path id="Path_483" data-name="Path 483" d="M213.408,142.54c-.055-.213-.116-.425-.177-.636a25.87,25.87,0,0,0-13.9-16.253l.3-.644A26.561,26.561,0,0,1,213.9,141.663c.076.262.139.48.194.7Z" transform="translate(221.795 139.092)" fill="#2e4882"></path><path id="Path_484" data-name="Path 484" d="M208.607,126.966a25.844,25.844,0,0,0-17.427-1.606l-.177-.687a26.532,26.532,0,0,1,17.9,1.65Z" transform="translate(212.523 137.775)" fill="#2e4882"></path><path id="Path_485" data-name="Path 485" d="M205.314,147.947l-.611-.359a25.7,25.7,0,0,0,3.327-9.52l.7.1a26.405,26.405,0,0,1-3.42,9.78" transform="translate(227.768 153.625)" fill="#2e4882"></path><path id="Path_486" data-name="Path 486" d="M208.554,128.124a32.107,32.107,0,0,0-8.394-5.318l.3-.7a32.879,32.879,0,0,1,8.59,5.442Z" transform="translate(222.713 135.868)" fill="#2e4882"></path><path id="Path_487" data-name="Path 487" d="M203.026,173.023l-.425-.632a32.163,32.163,0,0,0,9.2-43.931l.642-.408a32.924,32.924,0,0,1-9.418,44.97" transform="translate(225.429 142.482)" fill="#2e4882"></path><path id="Path_488" data-name="Path 488" d="M268.737,69.147h-.761V54.656a3.432,3.432,0,0,0-3.429-3.427H199.739v-.761h64.808a4.192,4.192,0,0,1,4.19,4.187Z" transform="translate(222.245 56.156)" fill="#2e4882"></path><rect id="Rectangle_835" data-name="Rectangle 835" width="0.761" height="8.381" transform="translate(490.221 132.911)" fill="#2e4882"></rect><rect id="Rectangle_836" data-name="Rectangle 836" width="13.213" height="0.761" transform="translate(400.401 106.623)" fill="#2e4882"></rect><path id="Path_489" data-name="Path 489" d="M161.492.013a32.531,32.531,0,1,0,31.637,33.4A32.527,32.527,0,0,0,161.492.013m25.3,33.23a26.182,26.182,0,1,1-26.193-26.9c.245,0,.484.008.729.015a26.208,26.208,0,0,1,25.47,26.165c0,.239,0,.477-.006.716" transform="translate(142.51 0)" fill="#fcc659"></path><path id="Path_490" data-name="Path 490" d="M183.451,29.186c0,.239,0,.477-.006.716A26.183,26.183,0,1,1,157.249,3c.245,0,.484.008.729.015a26.213,26.213,0,0,1,25.473,26.168" transform="translate(145.854 3.342)" fill="#f49b51"></path><path id="Path_491" data-name="Path 491" d="M146.623,45.971V41.044a14.21,14.21,0,0,1-7.464-2.146l1.173-3.268a13,13,0,0,0,7.023,2.1c3.465,0,5.806-2,5.806-4.781,0-2.683-1.9-4.342-5.512-5.806-4.975-1.95-8.049-4.2-8.049-8.438,0-4.05,2.877-7.124,7.367-7.855V5.921h3.023v4.732a13.023,13.023,0,0,1,6.342,1.707l-1.219,3.22a11.8,11.8,0,0,0-6.148-1.658c-3.754,0-5.17,2.244-5.17,4.2,0,2.535,1.8,3.8,6.049,5.561,5.024,2.049,7.561,4.585,7.561,8.926,0,3.854-2.683,7.464-7.707,8.294v5.073Z" transform="translate(154.839 6.588)" fill="#fcc659"></path><path id="Path_492" data-name="Path 492" d="M162.795,21.556c-.059-.224-.123-.448-.188-.67A25.852,25.852,0,0,0,148.722,4.665l.3-.642a26.561,26.561,0,0,1,14.265,16.656c.07.239.135.467.194.7Z" transform="translate(165.479 4.476)" fill="#2e4882"></path><path id="Path_493" data-name="Path 493" d="M157.994,5.982a25.818,25.818,0,0,0-17.427-1.6l-.177-.689a26.546,26.546,0,0,1,17.9,1.65Z" transform="translate(156.208 3.16)" fill="#2e4882"></path><path id="Path_494" data-name="Path 494" d="M131.849,29.154a26.361,26.361,0,0,1,2.8-20.117l.613.359a25.647,25.647,0,0,0-2.725,19.578Z" transform="translate(145.742 10.055)" fill="#2e4882"></path><path id="Path_495" data-name="Path 495" d="M157.919,7.394a32.11,32.11,0,0,0-8.392-5.318l.3-.7a32.823,32.823,0,0,1,8.59,5.442Z" transform="translate(166.375 1.534)" fill="#2e4882"></path><path id="Path_496" data-name="Path 496" d="M152.392,52.293l-.425-.632a32.163,32.163,0,0,0,9.2-43.931l.642-.408a32.918,32.918,0,0,1-9.418,44.97" transform="translate(169.09 8.148)" fill="#2e4882"></path><path id="Path_497" data-name="Path 497" d="M142.4,57.655,145.286,45.3l11.765-4.9,2.1,17.25s-1.745,11.206-12.57,15.222S142.4,57.655,142.4,57.655" transform="translate(156.2 44.958)" fill="#fcb47e"></path><path id="Path_498" data-name="Path 498" d="M139.819,35.429s-4.189,23.218,2.62,23.394,12.393-2.444,13.789-4.016,2.444-9.251,2.444-9.251.872-9.951-3.317-11.871-13.268-5.237-15.537,1.745" transform="translate(154.154 34.708)" fill="#fcb47e"></path><path id="Path_499" data-name="Path 499" d="M162.837,53.061c-1.337,2.47-2.658,4.889-2.658,4.889-1.99-.313-4.192-2.8-4.58-4.939,0,0-6.26-.585-6.48-8.33,0,0-10.868.072-11.125-9.361s10.6-7,14.206-4.12a29.638,29.638,0,0,0,11.385,6.152c5.892,1.9.968,12.541-.748,15.71" transform="translate(153.538 31.848)" fill="#374263"></path><path id="Path_500" data-name="Path 500" d="M155.687,153.571l-1.339-13.722h-14.5L143,153.174a6.917,6.917,0,0,0,6.556,4.3,6.732,6.732,0,0,0,6.135-3.9" transform="translate(155.603 155.607)" fill="#fcb47e"></path><path id="Path_501" data-name="Path 501" d="M192.093,130.305l-11.14-8.123-9.642,10.832,14.273,7.236s1.768.351,5.345-2.765c3.539-3.08,1.164-7.179,1.164-7.179" transform="translate(190.614 135.949)" fill="#fcb47e"></path><path id="Path_502" data-name="Path 502" d="M176.014,215.075c-8.394,3.173-19.124,2.3-30.685,0-.334-.807-.67-1.614-.989-2.427C122.31,156.964,137.91,76.084,137.91,76.084h34.65l-.784,26.734a182.677,182.677,0,0,0-3.234,21.308c-4.4,46.635,7.473,90.949,7.473,90.949" transform="translate(147.486 84.657)" fill="#1240b2"></path><path id="Path_503" data-name="Path 503" d="M161.277,187.377c-.541-1.088-20.273-41.187-14.4-86.421l6.256,5.039c-2.117,42.351,7.861,80.318,8.142,81.382" transform="translate(162.214 112.331)" fill="#1240b2"></path><path id="Path_504" data-name="Path 504" d="M220.5,167.094c-3.182,8.926-6.568,15.86-10.251,19.908a12.111,12.111,0,0,1-5.335,3.691,121.334,121.334,0,0,1-14.62-8.812c-.608-.418-1.2-.845-1.8-1.278q-1.188-.868-2.322-1.751c-.349-.266-.691-.532-1.027-.8-.684-.535-1.354-1.082-2.009-1.623-.585-.486-1.164-.98-1.728-1.468a106.2,106.2,0,0,1-8.286-7.984c-.245-.258-.488-.524-.725-.784-.173-.19-.349-.387-.524-.577l-.008-.008c-34.946-38.842-28.53-89.518-28.53-89.518h30.4c2.6,48.592,46.764,91.01,46.764,91.01" transform="translate(158.982 84.657)" fill="#1240b2"></path><path id="Path_505" data-name="Path 505" d="M170.567,33.169c-2.594-1.893-4.4-2.937-4.84-3.251-.551-.4-.68-1.377-1.327-2.366-1.485-2.277-4.57-6.3-7.762-7.42-.408-.146-.727.289-.285.758.78.862,2.256,2.1,2.028,2.3-.488.412-3.944-3.744-4.918-2.78-.733.731,4.27,4.437,4.075,4.671-.391.467-4.158-3.78-5.073-2.82-.873.911,3.649,3.294,3.454,3.693s-3.338-2.182-3.955-1.591c-.936.894,4.711,4.394,4.559,4.912-.2.841-3.12-.913-3.554.078-.427.927,3.663,2.685,4.437,3.072,1.785.9,3.087.509,4.515,2.736.786,1.223,1.563,2.44,2.328,3.665Z" transform="translate(168.971 22.369)" fill="#fcb47e"></path><path id="Path_506" data-name="Path 506" d="M126.83,35.3c2.377-2.159,4.063-3.391,4.464-3.75.507-.452.53-1.443,1.067-2.5,1.234-2.421,3.873-6.752,6.925-8.206.391-.188.752.209.363.723-.68.94-2.018,2.324-1.77,2.506.53.357,3.522-4.145,4.593-3.289.807.646-3.771,4.868-3.551,5.079.437.423,3.729-4.2,4.743-3.346.963.813-3.279,3.663-3.04,4.042s3.085-2.527,3.761-2.007c1.027.79-4.213,4.874-4.008,5.373.289.815,3-1.24,3.541-.3.524.877-3.355,3.061-4.082,3.53-1.68,1.082-3.015.835-4.2,3.2-.651,1.3-1.293,2.592-1.923,3.894Z" transform="translate(141.121 23.011)" fill="#fcb47e"></path><path id="Path_507" data-name="Path 507" d="M183.752,78.576a87.137,87.137,0,0,1-13.31,6.94,61.241,61.241,0,0,1-17.732,4.589,35.128,35.128,0,0,1-18.545-3.051c.38-2.837.746-5.252,1.05-7.177a39.128,39.128,0,0,0,17.366,4.3,64.212,64.212,0,0,0,17.966-2.261,92.96,92.96,0,0,0,13.09-4.511c.03.389.068.782.114,1.17" transform="translate(149.282 86.128)" fill="#1240b2"></path><path id="Path_508" data-name="Path 508" d="M146.471,133.505V95.268s-34.361-5.831-27.615-39.1c4.285-21.142,19.382-28.69,19.382-28.69l8.37,6.725s-17.793,27.2,5.626,36.642c0,0,13.175-.412,16.606,3.294,0,0,7.549,6.038,15.507-3.98,0,0,8.1-3.156,15-1.3,5.679,1.525,13-12.56-.589-36.437l8.508-7.686s49.817,47.894.961,71.637l-2.727,38.2s-37.815,21.446-59.028-1.063" transform="translate(131.272 27.516)" fill="#d1dcf9"></path><path id="Path_509" data-name="Path 509" d="M149.748,40.968a2.711,2.711,0,1,1-2.711-2.711,2.713,2.713,0,0,1,2.711,2.711" transform="translate(160.589 42.568)" fill="#fcb47e"></path><path id="Path_510" data-name="Path 510" d="M155.655,129.446A122.484,122.484,0,0,1,143.23,88.468l.6-.076a121.87,121.87,0,0,0,12.363,40.777Z" transform="translate(159.369 98.352)" fill="#fff"></path><path id="Path_511" data-name="Path 511" d="M163.543,91.659a13.6,13.6,0,0,1-12.725-8.442l.568-.2a12.981,12.981,0,0,0,12.608,8.035l.015.6c-.156,0-.313.006-.467.006" transform="translate(167.812 92.368)" fill="#fff"></path><path id="Path_512" data-name="Path 512" d="M148.083,55.281q-.273,0-.539-.025c-4.323-.4-6.507-5.446-6.6-5.662l.556-.235c.021.049,2.136,4.931,6.1,5.294,3.33.308,7.006-2.554,10.937-8.5l.5.334c-3.862,5.839-7.546,8.8-10.961,8.8" transform="translate(156.829 51.352)" fill="#2e4882"></path><path id="Path_513" data-name="Path 513" d="M146.475,81.579s-34.367-5.837-27.617-39.108a48.244,48.244,0,0,1,1.331-5.168c.085-.091.175-.184.26-.266-.57,7.511-.839,14.089,2.489,21.2,6.959,14.875,24.013,23.3,23.537,23.341" transform="translate(131.273 41.21)" fill="#608be2"></path><path id="Path_514" data-name="Path 514" d="M171.83,75.24l-2.727,38.2a83.23,83.23,0,0,1-18.414,7.175c1.825-1.384,9.511-13.137,10.8-19.075,2.311-10.652,2.6-16.785,2.894-28.139,11.368-2.954,24.327-12.97,28.785-29.685,1.012,11.4-3.826,23-21.336,31.521" transform="translate(167.667 48.645)" fill="#d1dcf9"></path><path id="Path_515" data-name="Path 515" d="M143.589,83.827h-.175l.013-.606c.161,0,16.135.224,29.96-8.206l.315.516c-13.2,8.047-28.32,8.3-30.112,8.3" transform="translate(159.573 83.467)" fill="#2e4882"></path><path id="Path_516" data-name="Path 516" d="M194.98,139.852a12.111,12.111,0,0,1-5.335,3.691,121.5,121.5,0,0,1-14.62-8.812c-.608-.418-1.2-.845-1.8-1.278-.79-.579-1.568-1.166-2.322-1.751-.349-.266-.691-.532-1.027-.807-.685-.532-1.354-1.08-2.009-1.62-.585-.488-1.164-.982-1.726-1.468a106.25,106.25,0,0,1-8.288-7.984c-.243-.258-.488-.524-.723-.784-.175-.19-.351-.387-.526-.579,20.785,17.176,34.077,20.685,38.37,21.393" transform="translate(174.256 131.807)" fill="#385087"></path><path id="Path_517" data-name="Path 517" d="M190.143,132.862c-14.632-9.5-23.928-26.666-24.021-26.837l.5-.268c.091.169,9.321,17.208,23.827,26.626Z" transform="translate(184.84 117.672)" fill="#fff"></path><path id="Path_518" data-name="Path 518" d="M166.582,159.16h-32.9a1.973,1.973,0,0,1-1.973-2.113l0-.04c.023-.251.053-.511.091-.769a5.108,5.108,0,0,1,.763-2.3c1.559-2.07,4.589-3.013,9.982-5.153a43.228,43.228,0,0,0,7.527-3.972,1.038,1.038,0,0,1,1.3.137c6.507,6.361,10.5,5.007,11.7,2.381.915-2,2.208-1.582,2.565-1,1.1,1.836,1.7,7.208,1.942,9.9.03.289.053.556.068.769l.061.8a1.15,1.15,0,0,1-1.126,1.348" transform="translate(146.544 160.944)" fill="#374263"></path><path id="Path_519" data-name="Path 519" d="M138.775,150.12a3.517,3.517,0,0,1-1.986-3.57l.564.087a2.9,2.9,0,0,0,1.671,2.97Z" transform="translate(152.18 163.063)" fill="#fff"></path><path id="Path_520" data-name="Path 520" d="M137.364,150.488a3.551,3.551,0,0,1-1.91-3.4l.568.068a2.986,2.986,0,0,0,1.623,2.833Z" transform="translate(150.704 163.665)" fill="#fff"></path><path id="Path_521" data-name="Path 521" d="M147.366,149.173a10.528,10.528,0,0,1-4.225-1.02l.26-.507c.051.025,5.043,2.535,7.608-.661l.446.357a5,5,0,0,1-4.088,1.832" transform="translate(159.27 163.546)" fill="#fff"></path><rect id="Rectangle_837" data-name="Rectangle 837" width="19.17" height="0.57" transform="translate(291.011 317.537)" fill="#fff"></rect><rect id="Rectangle_838" data-name="Rectangle 838" width="4.534" height="0.57" transform="translate(284.013 317.537)" fill="#fff"></rect><path id="Path_522" data-name="Path 522" d="M197.225,129.831l-16.073,28.7a1.974,1.974,0,0,1-2.81.689l-.027-.019c-.213-.144-.418-.3-.632-.456a5.209,5.209,0,0,1-1.629-1.789c-1.044-2.373-.389-5.47.38-11.231a43.881,43.881,0,0,0,.213-8.508,1.04,1.04,0,0,1,.754-1.067c8.727-2.571,9.5-6.712,7.792-9.04-1.3-1.773-.3-2.7.38-2.725,2.138-.059,7.116,2.032,9.581,3.144.275.114.518.222.716.313l.731.342a1.149,1.149,0,0,1,.623,1.644" transform="translate(195.289 138.403)" fill="#374263"></path><path id="Path_523" data-name="Path 523" d="M176.907,135.554a4.973,4.973,0,0,1-.985-.089l.118-.558c.023.006,2.368.471,3.537-1.048l.452.349a3.833,3.833,0,0,1-3.123,1.346" transform="translate(195.744 148.943)" fill="#fff"></path><path id="Path_524" data-name="Path 524" d="M176.783,137.026a4.977,4.977,0,0,1-.985-.089l.118-.558c.023.006,2.368.471,3.537-1.048l.452.349a3.833,3.833,0,0,1-3.123,1.346" transform="translate(195.607 150.581)" fill="#fff"></path><path id="Path_525" data-name="Path 525" d="M180.309,133.672l-.37-.433c.042-.038,4.257-3.706,2.275-7.291l.5-.277c2.208,4-2.358,7.961-2.4,8" transform="translate(200.214 139.831)" fill="#fff"></path><rect id="Rectangle_839" data-name="Rectangle 839" width="19.172" height="0.572" transform="translate(379.254 287.024) rotate(-61.442)" fill="#fff"></rect><rect id="Rectangle_840" data-name="Rectangle 840" width="4.534" height="0.571" transform="translate(375.898 293.162) rotate(-61.442)" fill="#fff"></rect><path id="Path_526" data-name="Path 526" d="M141.023,60.266a19.615,19.615,0,0,1-10.965-8.852c-2.516-4.629-2.77-10.3-.754-16.851l.729.224c-1.952,6.344-1.722,11.814.689,16.255,3.488,6.427,10.439,8.472,10.511,8.493Z" transform="translate(142.379 38.457)" fill="#2e4882"></path><path id="Path_527" data-name="Path 527" d="M148.078,43.333c-2.647,0-6.813-1.13-8.992-3.849-1.35-1.684-2.451-4.656-.023-9.254l.5.266c-1.83,3.471-1.842,6.374-.036,8.63,2.527,3.152,7.857,4.05,9.917,3.488l.15.551a5.935,5.935,0,0,1-1.519.167" transform="translate(153.135 33.636)" fill="#374263"></path><path id="Path_528" data-name="Path 528" d="M144.791,38.038a11.513,11.513,0,0,1-6.408-2.079l.315-.475c6.237,4.118,11.02.566,11.068.53l.346.454a9.515,9.515,0,0,1-5.322,1.57" transform="translate(153.975 39.482)" fill="#374263"></path><path id="Path_529" data-name="Path 529" d="M11.808,81.309c.006.215.011.425.015.638.6,26.193,4.352,46.437,9.725,62.083L35.464,151.7,24.29,150.569l-.319-.032c6.925,17.142,15.828,27.987,24.063,34.83a57.663,57.663,0,0,0,13.95,8.7c.262.114.52.224.775.33.638.266,1.255.5,1.84.716h7.435c.085-.351.163-.7.235-1.046.053-.22.1-.439.142-.659.068-.287.127-.581.184-.868,6.993-34.217-5.457-60.566-20.884-79.006a1.434,1.434,0,0,0-.15-.184A130.929,130.929,0,0,0,35.081,97.023l-2.842,8.516L31.158,93.873A128.671,128.671,0,0,0,12.252,81.535c-.292-.152-.444-.226-.444-.226" transform="translate(13.138 90.471)" fill="#9aade5"></path><path id="Path_530" data-name="Path 530" d="M11.687,81.519l.273.5L28.85,113.1l.3.549,4.6,8.474.156.283L48.6,149.418l.021.038L72.547,193.48l.359.659.57,1.046h.649l-.564-1.046-.832-1.527L49.115,149.167l-.439-.8L12.388,81.608l-.2-.366Z" transform="translate(13.004 90.396)" fill="#fff"></path><path id="Path_531" data-name="Path 531" d="M32.421,107.407l.26-.425-19.553-12-.26.425Z" transform="translate(14.318 105.686)" fill="#fff"></path><path id="Path_532" data-name="Path 532" d="M27.981,101.833l.26-.425L12.915,92l-.262.425Z" transform="translate(14.079 102.369)" fill="#fff"></path><path id="Path_533" data-name="Path 533" d="M30.554,133.493l2.82-35.863-.551-.04L30,133.453Z" transform="translate(33.383 108.587)" fill="#fff"></path><path id="Path_534" data-name="Path 534" d="M88.661,164.209s-17.136,9.222-42.915-4.375l7.906-4.27-13.2,1.223c-10.113-6.315-21.365-16.158-33.3-31.232l3.017-1.627-4,.37q-3.02-3.869-6.1-8.2a97.162,97.162,0,0,1,17.863-.372l5.77,7.014-1.882-6.7c21.63,2.134,53.457,11.74,66.849,48.161" transform="translate(0.069 128.523)" fill="#bac8f3"></path><path id="Path_535" data-name="Path 535" d="M89.85,162.565,0,116.171l.26-.5,89.848,46.392Z" transform="translate(0 128.705)" fill="#fff"></path><path id="Path_536" data-name="Path 536" d="M5.324,123.94,17.738,122l-.08-.518L5.243,123.423Z" transform="translate(5.834 135.171)" fill="#fff"></path><rect id="Rectangle_841" data-name="Rectangle 841" width="14.805" height="0.524" transform="translate(15.207 263.075) rotate(-13.096)" fill="#fff"></rect><path id="Path_537" data-name="Path 537" d="M198.733,209.632H41.886a6.958,6.958,0,0,1-6.957-6.957V95.9a6.958,6.958,0,0,1,6.957-6.959H198.733A6.958,6.958,0,0,1,205.69,95.9V202.675a6.958,6.958,0,0,1-6.957,6.957" transform="translate(38.865 98.96)" fill="#5e86e9"></path><path id="Path_538" data-name="Path 538" d="M197.181,98.731v95.641a7.331,7.331,0,0,1-7.331,7.331H178.788V97.594H41.02a3.1,3.1,0,1,1,0-6.194H189.85a7.331,7.331,0,0,1,7.331,7.331" transform="translate(42.196 101.699)" fill="#1240b2"></path><path id="Path_539" data-name="Path 539" d="M109.277,83.2A32.531,32.531,0,1,0,132.514,122.9,32.529,32.529,0,0,0,109.277,83.2m17.1,38.1a26.184,26.184,0,1,1-19.411-32.136c.239.055.471.116.708.177A26.213,26.213,0,0,1,126.544,120.6c-.055.232-.108.465-.169.7" transform="translate(76.218 91.379)" fill="#fcc659"></path><path id="Path_540" data-name="Path 540" d="M123.2,117.261c-.055.232-.108.465-.169.7a26.184,26.184,0,1,1-19.411-32.138c.239.057.471.116.708.18A26.212,26.212,0,0,1,123.2,117.261" transform="translate(79.565 94.721)" fill="#f49b51"></path><path id="Path_541" data-name="Path 541" d="M83.972,127.085l1.118-4.8a14.207,14.207,0,0,1-6.782-3.784l1.882-2.918a12.99,12.99,0,0,0,6.363,3.636c3.374.786,6.108-.632,6.739-3.338.608-2.613-.868-4.661-4.052-6.9-4.4-3.03-6.887-5.913-5.924-10.046.917-3.942,4.418-6.283,8.956-5.979l1.118-4.8,2.945.687-1.073,4.608a13.007,13.007,0,0,1,5.789,3.1l-1.918,2.858A11.779,11.779,0,0,0,93.523,96.4c-3.659-.851-5.546,1.012-5.989,2.913-.575,2.47.9,4.115,4.631,6.788,4.428,3.135,6.323,6.182,5.339,10.409-.875,3.754-4.306,6.661-9.387,6.327l-1.151,4.942Z" transform="translate(87.131 98.09)" fill="#fcc659"></path><path id="Path_542" data-name="Path 542" d="M78.934,70.64a32.531,32.531,0,1,0,31.637,33.4,32.527,32.527,0,0,0-31.637-33.4m25.3,33.23a26.182,26.182,0,1,1-26.2-26.9c.245,0,.484.008.729.015a26.21,26.21,0,0,1,25.473,26.165c0,.239,0,.477-.006.716" transform="translate(50.649 78.585)" fill="#fcc659"></path><path id="Path_543" data-name="Path 543" d="M100.892,99.812c0,.239,0,.477-.006.716a26.183,26.183,0,1,1-26.2-26.9c.245,0,.484.008.729.015a26.213,26.213,0,0,1,25.473,26.168" transform="translate(53.993 81.926)" fill="#f49b51"></path><path id="Path_544" data-name="Path 544" d="M64.065,116.6V111.67a14.21,14.21,0,0,1-7.464-2.146l1.173-3.268a13,13,0,0,0,7.023,2.1c3.465,0,5.806-2,5.806-4.781,0-2.683-1.9-4.342-5.512-5.806-4.975-1.95-8.049-4.194-8.049-8.438,0-4.05,2.877-7.124,7.367-7.855V76.547h3.023v4.732a13.023,13.023,0,0,1,6.342,1.707l-1.219,3.22a11.8,11.8,0,0,0-6.146-1.658c-3.756,0-5.172,2.244-5.172,4.2,0,2.535,1.8,3.8,6.049,5.561,5.024,2.049,7.561,4.585,7.561,8.926,0,3.854-2.683,7.464-7.707,8.294V116.6Z" transform="translate(62.979 85.172)" fill="#fcc659"></path><path id="Path_545" data-name="Path 545" d="M75.36,77.843a32.131,32.131,0,0,0-8.392-5.318l.3-.7a32.835,32.835,0,0,1,8.592,5.442Z" transform="translate(74.514 79.921)" fill="#2e4882"></path><path id="Path_546" data-name="Path 546" d="M69.833,122.742l-.425-.632a32.163,32.163,0,0,0,9.2-43.931l.642-.408a32.918,32.918,0,0,1-9.418,44.97" transform="translate(77.229 86.535)" fill="#2e4882"></path><path id="Path_547" data-name="Path 547" d="M80.1,92.1c-.057-.222-.12-.442-.184-.661A25.855,25.855,0,0,0,66.026,75.209l.3-.644A26.561,26.561,0,0,1,80.591,91.221c.072.245.135.471.194.7Z" transform="translate(73.466 82.967)" fill="#2e4882"></path><path id="Path_548" data-name="Path 548" d="M75.3,76.525A25.831,25.831,0,0,0,57.87,74.92l-.177-.687a26.545,26.545,0,0,1,17.9,1.648Z" transform="translate(64.194 81.651)" fill="#2e4882"></path><path id="Path_549" data-name="Path 549" d="M72.007,97.5l-.613-.359a25.739,25.739,0,0,0,3.33-9.518l.7.1a26.4,26.4,0,0,1-3.418,9.78" transform="translate(79.438 97.502)" fill="#2e4882"></path><path id="Path_550" data-name="Path 550" d="M187.821,213.557H41.673a6.745,6.745,0,0,1-6.744-6.746V101.135a6.745,6.745,0,0,1,6.744-6.746H187.821a6.747,6.747,0,0,1,6.746,6.746V206.811a6.747,6.747,0,0,1-6.746,6.746" transform="translate(38.865 105.024)" fill="#5e86e9"></path><path id="Path_551" data-name="Path 551" d="M92.517,156.9H44.5a6.561,6.561,0,0,1-6.554-6.554V141.1h.761v9.241a5.8,5.8,0,0,0,5.793,5.793H92.517Z" transform="translate(42.225 157)" fill="#2e4882"></path><rect id="Rectangle_842" data-name="Rectangle 842" width="14.799" height="0.761" transform="translate(146.4 313.135)" fill="#2e4882"></rect><path id="Path_552" data-name="Path 552" d="M143.941,115.9h-.761V103.161a5.8,5.8,0,0,0-5.793-5.791h-62.7v-.763h62.7a6.561,6.561,0,0,1,6.554,6.554Z" transform="translate(83.108 107.492)" fill="#2e4882"></path><rect id="Rectangle_843" data-name="Rectangle 843" width="14.142" height="0.761" transform="translate(132.387 204.099)" fill="#2e4882"></rect><rect id="Rectangle_844" data-name="Rectangle 844" width="0.761" height="17.985" transform="translate(80.174 270.013)" fill="#2e4882"></rect><path id="Path_553" data-name="Path 553" d="M143.92,111.01v33.674a7.652,7.652,0,0,1-7.656,7.656H107.132a16.864,16.864,0,0,1,0-33.729h29.132a5.9,5.9,0,0,1,.64.032,7.66,7.66,0,0,0,7.016-7.633" transform="translate(100.44 123.518)" fill="#1240b2"></path><path id="Path_554" data-name="Path 554" d="M109.535,126.737a7.87,7.87,0,1,1-7.87-7.87,7.87,7.87,0,0,1,7.87,7.87" transform="translate(104.365 132.26)" fill="#fff"></path><path id="Path_555" data-name="Path 555" d="M97.521,135.187v-.761a7.489,7.489,0,0,0,0-14.979v-.761a8.25,8.25,0,0,1,0,16.5" transform="translate(108.509 132.06)" fill="#2e4882"></path><path id="Path_556" data-name="Path 556" d="M94.377,125.664h-.761a8.19,8.19,0,0,1,2.417-5.833l.537.539a7.439,7.439,0,0,0-2.193,5.294" transform="translate(104.164 133.333)" fill="#2e4882"></path><path id="Path_557" data-name="Path 557" d="M40.724,131.31a68.915,68.915,0,0,0-13.8-10.086l.372-.663a69.666,69.666,0,0,1,13.95,10.2Z" transform="translate(29.96 134.145)" fill="#2e4882"></path><path id="Path_558" data-name="Path 558" d="M27.56,120.957a86.592,86.592,0,0,0-8.677-3.013l.211-.731a87.1,87.1,0,0,1,8.755,3.04Z" transform="translate(21.011 130.42)" fill="#2e4882"></path><path id="Path_559" data-name="Path 559" d="M53.412,120.864a32.531,32.531,0,1,0,39.672,23.3,32.531,32.531,0,0,0-39.672-23.3m33.532,24.9A26.184,26.184,0,1,1,54.31,127.2c.235-.068.465-.127.7-.188a26.211,26.211,0,0,1,31.739,18.059c.065.228.133.458.192.689" transform="translate(32.336 133.31)" fill="#fcc659"></path><path id="Path_560" data-name="Path 560" d="M83.41,141.724c.065.228.133.458.192.689a26.184,26.184,0,1,1-32.637-18.56c.237-.068.467-.127.7-.188A26.212,26.212,0,0,1,83.41,141.724" transform="translate(35.677 136.657)" fill="#f49b51"></path><path id="Path_561" data-name="Path 561" d="M54.055,165.291l-1.369-4.732a14.2,14.2,0,0,1-7.766.011l.218-3.465a13,13,0,0,0,7.331.063c3.327-.961,5.02-3.534,4.246-6.2-.744-2.577-3.032-3.642-6.906-4.044-5.324-.492-8.9-1.8-10.077-5.871-1.126-3.889.786-7.642,4.893-9.592l-1.369-4.732,2.907-.841,1.314,4.546a13,13,0,0,1,6.566-.123l-.277,3.431a11.813,11.813,0,0,0-6.365.114c-3.608,1.044-4.344,3.594-3.8,5.468.706,2.436,2.793,3.154,7.356,3.661,5.4.573,8.537,2.3,9.744,6.475,1.071,3.7-.5,7.914-5.1,10.107l1.411,4.874Z" transform="translate(43.853 140.067)" fill="#fcc659"></path><path id="Path_562" data-name="Path 562" d="M62.808,175.652l-.492-.511a32.221,32.221,0,0,0,3.718-42.165l.575-.42a32.938,32.938,0,0,1-3.8,43.1m-4.278-50.045a32.235,32.235,0,0,0-10.075-4.734l.186-.685a32.945,32.945,0,0,1,10.3,4.838Z" transform="translate(53.914 133.73)" fill="#2e4882"></path><path id="Path_563" data-name="Path 563" d="M63.709,141.37c-.059-.228-.125-.454-.19-.68a25.85,25.85,0,0,0-13.882-16.211l.3-.642A26.556,26.556,0,0,1,64.2,140.493c.068.232.133.465.194.7Z" transform="translate(55.229 137.79)" fill="#2e4882"></path><path id="Path_564" data-name="Path 564" d="M58.908,125.8A25.845,25.845,0,0,0,41.48,124.19l-.177-.685a26.534,26.534,0,0,1,17.9,1.646Z" transform="translate(45.957 136.474)" fill="#2e4882"></path><path id="Path_565" data-name="Path 565" d="M32.763,148.968a26.35,26.35,0,0,1,2.8-20.117l.613.359a25.645,25.645,0,0,0-2.725,19.578Z" transform="translate(35.491 143.369)" fill="#2e4882"></path><path id="Path_566" data-name="Path 566" d="M55.616,146.777,55,146.418a25.723,25.723,0,0,0,3.33-9.52l.7.1a26.4,26.4,0,0,1-3.418,9.78" transform="translate(61.201 152.323)" fill="#2e4882"></path></g></svg>